<?xml version="1.0" encoding="UTF-8" standalone="no"?>
<!DOCTYPE svg PUBLIC "-//W3C//DTD SVG 1.1//EN"
 "http://www.w3.org/Graphics/SVG/1.1/DTD/svg11.dtd">
<!-- Generated by graphviz version 10.0.1 (20240210.2158)
 -->
<!-- Pages: 1 -->
<svg width="260pt" height="133pt"
 viewBox="0.00 0.00 260.03 132.50" xmlns="http://www.w3.org/2000/svg" xmlns:xlink="http://www.w3.org/1999/xlink">
<g id="graph0" class="graph" transform="scale(1 1) rotate(0) translate(4 128.5)">
<polygon fill="white" stroke="none" points="-4,4 -4,-128.5 256.03,-128.5 256.03,4 -4,4"/>
<!-- wind energy -->
<g id="node1" class="node">
<title>wind energy</title>
<ellipse fill="none" stroke="black" cx="56.98" cy="-106.5" rx="56.98" ry="18"/>
<text text-anchor="middle" x="56.98" y="-101.45" font-family="Times,serif" font-size="14.00">wind energy</text>
</g>
<!-- balancing costs -->
<g id="node3" class="node">
<title>balancing costs</title>
<ellipse fill="none" stroke="black" cx="123.98" cy="-18" rx="67.73" ry="18"/>
<text text-anchor="middle" x="123.98" y="-12.95" font-family="Times,serif" font-size="14.00">balancing costs</text>
</g>
<!-- wind energy&#45;&gt;balancing costs -->
<g id="edge1" class="edge">
<title>wind energy&#45;&gt;balancing costs</title>
<path fill="none" stroke="black" d="M69.9,-88.82C79.57,-76.34 92.97,-59.03 104.02,-44.77"/>
<polygon fill="black" stroke="black" points="106.59,-47.17 109.95,-37.12 101.06,-42.88 106.59,-47.17"/>
<text text-anchor="middle" x="108.98" y="-57.2" font-family="Times,serif" font-size="14.00">1.00</text>
</g>
<!-- outdated grid -->
<g id="node2" class="node">
<title>outdated grid</title>
<ellipse fill="none" stroke="black" cx="191.98" cy="-106.5" rx="60.05" ry="18"/>
<text text-anchor="middle" x="191.98" y="-101.45" font-family="Times,serif" font-size="14.00">outdated grid</text>
</g>
<!-- outdated grid&#45;&gt;balancing costs -->
<g id="edge2" class="edge">
<title>outdated grid&#45;&gt;balancing costs</title>
<path fill="none" stroke="black" d="M178.87,-88.82C169.06,-76.34 155.45,-59.03 144.24,-44.77"/>
<polygon fill="black" stroke="black" points="147.15,-42.81 138.22,-37.11 141.65,-47.14 147.15,-42.81"/>
<text text-anchor="middle" x="175.98" y="-57.2" font-family="Times,serif" font-size="14.00">1.00</text>
</g>
</g>
</svg>