<?xml version="1.0" encoding="UTF-8" standalone="no"?>
<!DOCTYPE svg PUBLIC "-//W3C//DTD SVG 1.1//EN"
 "http://www.w3.org/Graphics/SVG/1.1/DTD/svg11.dtd">
<!-- Generated by graphviz version 10.0.1 (20240210.2158)
 -->
<!-- Pages: 1 -->
<svg width="346pt" height="310pt"
 viewBox="0.00 0.00 346.34 309.50" xmlns="http://www.w3.org/2000/svg" xmlns:xlink="http://www.w3.org/1999/xlink">
<g id="graph0" class="graph" transform="scale(1 1) rotate(0) translate(4 305.5)">
<polygon fill="white" stroke="none" points="-4,4 -4,-305.5 342.34,-305.5 342.34,4 -4,4"/>
<!-- x0(t) -->
<g id="node1" class="node">
<title>x0(t)</title>
<ellipse fill="none" stroke="black" cx="28.83" cy="-195" rx="28.83" ry="18"/>
<text text-anchor="middle" x="28.83" y="-189.95" font-family="Times,serif" font-size="14.00">x0(t)</text>
</g>
<!-- x1(t) -->
<g id="node2" class="node">
<title>x1(t)</title>
<ellipse fill="none" stroke="black" cx="127.83" cy="-106.5" rx="28.83" ry="18"/>
<text text-anchor="middle" x="127.83" y="-101.45" font-family="Times,serif" font-size="14.00">x1(t)</text>
</g>
<!-- x0(t)&#45;&gt;x1(t) -->
<g id="edge2" class="edge">
<title>x0(t)&#45;&gt;x1(t)</title>
<path fill="none" stroke="black" d="M45.18,-179.72C60.94,-165.94 85.01,-144.92 103.11,-129.1"/>
<polygon fill="black" stroke="black" points="105.09,-132.02 110.32,-122.8 100.49,-126.74 105.09,-132.02"/>
<text text-anchor="middle" x="99.83" y="-145.7" font-family="Times,serif" font-size="14.00">2.00</text>
</g>
<!-- x2(t) -->
<g id="node3" class="node">
<title>x2(t)</title>
<ellipse fill="none" stroke="black" cx="220.83" cy="-18" rx="28.83" ry="18"/>
<text text-anchor="middle" x="220.83" y="-12.95" font-family="Times,serif" font-size="14.00">x2(t)</text>
</g>
<!-- x0(t)&#45;&gt;x2(t) -->
<g id="edge5" class="edge">
<title>x0(t)&#45;&gt;x2(t)</title>
<path fill="none" stroke="black" d="M29.78,-176.9C31.92,-154.08 38.85,-113.65 61.33,-88.5 92.94,-53.14 145.77,-35.01 181.9,-26.28"/>
<polygon fill="black" stroke="black" points="182.55,-29.72 191.53,-24.1 181,-22.89 182.55,-29.72"/>
<text text-anchor="middle" x="76.08" y="-101.45" font-family="Times,serif" font-size="14.00">&#45;1.00</text>
</g>
<!-- x1(t)&#45;&gt;x2(t) -->
<g id="edge6" class="edge">
<title>x1(t)&#45;&gt;x2(t)</title>
<path fill="none" stroke="black" d="M143.19,-91.22C157.77,-77.65 179.93,-57.05 196.84,-41.31"/>
<polygon fill="black" stroke="black" points="199.09,-44 204.03,-34.62 194.33,-38.87 199.09,-44"/>
<text text-anchor="middle" x="193.83" y="-57.2" font-family="Times,serif" font-size="14.00">0.50</text>
</g>
<!-- x0(t&#45;1) -->
<g id="node4" class="node">
<title>x0(t&#45;1)</title>
<ellipse fill="none" stroke="black" cx="184.83" cy="-283.5" rx="36.51" ry="18"/>
<text text-anchor="middle" x="184.83" y="-278.45" font-family="Times,serif" font-size="14.00">x0(t&#45;1)</text>
</g>
<!-- x0(t&#45;1)&#45;&gt;x0(t) -->
<g id="edge1" class="edge">
<title>x0(t&#45;1)&#45;&gt;x0(t)</title>
<path fill="none" stroke="black" d="M161.14,-269.36C134,-254.31 89.43,-229.6 59.62,-213.07"/>
<polygon fill="black" stroke="black" points="61.51,-210.12 51.07,-208.33 58.12,-216.24 61.51,-210.12"/>
<text text-anchor="middle" x="131.83" y="-234.2" font-family="Times,serif" font-size="14.00">0.70</text>
</g>
<!-- x0(t&#45;1)&#45;&gt;x1(t) -->
<g id="edge3" class="edge">
<title>x0(t&#45;1)&#45;&gt;x1(t)</title>
<path fill="none" stroke="black" d="M183.37,-265.39C180.55,-238.26 172.86,-184.17 153.83,-142.5 152.18,-138.88 150.11,-135.27 147.86,-131.82"/>
<polygon fill="black" stroke="black" points="150.82,-129.94 142.14,-123.86 145.14,-134.03 150.82,-129.94"/>
<text text-anchor="middle" x="186.83" y="-189.95" font-family="Times,serif" font-size="14.00">0.20</text>
</g>
<!-- x0(t&#45;1)&#45;&gt;x2(t) -->
<g id="edge7" class="edge">
<title>x0(t&#45;1)&#45;&gt;x2(t)</title>
<path fill="none" stroke="black" d="M190.13,-265.25C194.21,-251.29 199.68,-231.05 202.83,-213 213.02,-154.67 217.69,-85.4 219.63,-47.43"/>
<polygon fill="black" stroke="black" points="223.11,-47.92 220.09,-37.76 216.12,-47.58 223.11,-47.92"/>
<text text-anchor="middle" x="223.83" y="-145.7" font-family="Times,serif" font-size="14.00">0.10</text>
</g>
<!-- x1(t&#45;1) -->
<g id="node5" class="node">
<title>x1(t&#45;1)</title>
<ellipse fill="none" stroke="black" cx="111.83" cy="-195" rx="36.51" ry="18"/>
<text text-anchor="middle" x="111.83" y="-189.95" font-family="Times,serif" font-size="14.00">x1(t&#45;1)</text>
</g>
<!-- x1(t&#45;1)&#45;&gt;x1(t) -->
<g id="edge4" class="edge">
<title>x1(t&#45;1)&#45;&gt;x1(t)</title>
<path fill="none" stroke="black" d="M114.99,-176.91C117.15,-165.26 120.05,-149.55 122.56,-136.02"/>
<polygon fill="black" stroke="black" points="125.97,-136.81 124.35,-126.34 119.09,-135.54 125.97,-136.81"/>
<text text-anchor="middle" x="135.08" y="-145.7" font-family="Times,serif" font-size="14.00">&#45;0.60</text>
</g>
<!-- x2(t&#45;1) -->
<g id="node6" class="node">
<title>x2(t&#45;1)</title>
<ellipse fill="none" stroke="black" cx="301.83" cy="-106.5" rx="36.51" ry="18"/>
<text text-anchor="middle" x="301.83" y="-101.45" font-family="Times,serif" font-size="14.00">x2(t&#45;1)</text>
</g>
<!-- x2(t&#45;1)&#45;&gt;x2(t) -->
<g id="edge8" class="edge">
<title>x2(t&#45;1)&#45;&gt;x2(t)</title>
<path fill="none" stroke="black" d="M286.98,-89.63C274.53,-76.34 256.59,-57.19 242.54,-42.18"/>
<polygon fill="black" stroke="black" points="245.21,-39.91 235.82,-35 240.1,-44.69 245.21,-39.91"/>
<text text-anchor="middle" x="279.83" y="-57.2" font-family="Times,serif" font-size="14.00">0.10</text>
</g>
</g>
</svg>