<?xml version="1.0" encoding="UTF-8" standalone="no"?>
<!DOCTYPE svg PUBLIC "-//W3C//DTD SVG 1.1//EN"
 "http://www.w3.org/Graphics/SVG/1.1/DTD/svg11.dtd">
<!-- Generated by graphviz version 10.0.1 (20240210.2158)
 -->
<!-- Pages: 1 -->
<svg width="228pt" height="138pt"
 viewBox="0.00 0.00 227.59 137.98" xmlns="http://www.w3.org/2000/svg" xmlns:xlink="http://www.w3.org/1999/xlink">
<g id="graph0" class="graph" transform="scale(1 1) rotate(0) translate(4 133.98)">
<polygon fill="white" stroke="none" points="-4,4 -4,-133.98 223.59,-133.98 223.59,4 -4,4"/>
<!-- T -->
<g id="node1" class="node">
<title>T</title>
<ellipse fill="none" stroke="black" cx="110.09" cy="-111.98" rx="58.52" ry="18"/>
<text text-anchor="middle" x="110.09" y="-106.93" font-family="Times,serif" font-size="14.00">Temperature</text>
</g>
<!-- L -->
<g id="node2" class="node">
<title>L</title>
<ellipse fill="none" stroke="black" cx="51.09" cy="-28.99" rx="51.09" ry="28.99"/>
<text text-anchor="middle" x="51.09" y="-32.19" font-family="Times,serif" font-size="14.00">Electricity</text>
<text text-anchor="middle" x="51.09" y="-15.69" font-family="Times,serif" font-size="14.00">load</text>
</g>
<!-- T&#45;&gt;L -->
<g id="edge1" class="edge">
<title>T&#45;&gt;L</title>
<path fill="none" stroke="black" d="M97.86,-94.2C91.76,-85.83 84.15,-75.37 76.84,-65.34"/>
<polygon fill="black" stroke="black" points="79.88,-63.56 71.16,-57.54 74.22,-67.69 79.88,-63.56"/>
</g>
<!-- I -->
<g id="node3" class="node">
<title>I</title>
<ellipse fill="none" stroke="black" cx="170.09" cy="-28.99" rx="49.5" ry="28.99"/>
<text text-anchor="middle" x="170.09" y="-32.19" font-family="Times,serif" font-size="14.00">Ice cream</text>
<text text-anchor="middle" x="170.09" y="-15.69" font-family="Times,serif" font-size="14.00">sales</text>
</g>
<!-- T&#45;&gt;I -->
<g id="edge2" class="edge">
<title>T&#45;&gt;I</title>
<path fill="none" stroke="black" d="M122.52,-94.2C128.78,-85.76 136.6,-75.19 144.09,-65.08"/>
<polygon fill="black" stroke="black" points="146.78,-67.34 149.92,-57.22 141.15,-63.17 146.78,-67.34"/>
</g>
</g>
</svg>