<?xml version="1.0" encoding="UTF-8" standalone="no"?>
<!DOCTYPE svg PUBLIC "-//W3C//DTD SVG 1.1//EN"
 "http://www.w3.org/Graphics/SVG/1.1/DTD/svg11.dtd">
<!-- Generated by graphviz version 10.0.1 (20240210.2158)
 -->
<!-- Pages: 1 -->
<svg width="293pt" height="221pt"
 viewBox="0.00 0.00 293.02 221.00" xmlns="http://www.w3.org/2000/svg" xmlns:xlink="http://www.w3.org/1999/xlink">
<g id="graph0" class="graph" transform="scale(1 1) rotate(0) translate(4 217)">
<polygon fill="white" stroke="none" points="-4,4 -4,-217 289.02,-217 289.02,4 -4,4"/>
<!-- x0(t) -->
<g id="node1" class="node">
<title>x0(t)</title>
<ellipse fill="none" stroke="black" cx="157.51" cy="-106.5" rx="28.83" ry="18"/>
<text text-anchor="middle" x="157.51" y="-101.45" font-family="Times,serif" font-size="14.00">x0(t)</text>
</g>
<!-- x1(t) -->
<g id="node2" class="node">
<title>x1(t)</title>
<ellipse fill="none" stroke="black" cx="81.51" cy="-18" rx="28.83" ry="18"/>
<text text-anchor="middle" x="81.51" y="-12.95" font-family="Times,serif" font-size="14.00">x1(t)</text>
</g>
<!-- x0(t)&#45;&gt;x1(t) -->
<g id="edge2" class="edge">
<title>x0(t)&#45;&gt;x1(t)</title>
<path fill="none" stroke="black" d="M144.27,-90.43C132.68,-77.24 115.65,-57.86 102.25,-42.61"/>
<polygon fill="black" stroke="black" points="105.08,-40.52 95.85,-35.32 99.82,-45.14 105.08,-40.52"/>
<text text-anchor="middle" x="138.51" y="-57.2" font-family="Times,serif" font-size="14.00">2.05</text>
</g>
<!-- x2(t) -->
<g id="node3" class="node">
<title>x2(t)</title>
<ellipse fill="none" stroke="black" cx="81.51" cy="-106.5" rx="28.83" ry="18"/>
<text text-anchor="middle" x="81.51" y="-101.45" font-family="Times,serif" font-size="14.00">x2(t)</text>
</g>
<!-- x2(t)&#45;&gt;x1(t) -->
<g id="edge3" class="edge">
<title>x2(t)&#45;&gt;x1(t)</title>
<path fill="none" stroke="black" d="M81.51,-88.41C81.51,-76.76 81.51,-61.05 81.51,-47.52"/>
<polygon fill="black" stroke="black" points="85.01,-47.86 81.51,-37.86 78.01,-47.86 85.01,-47.86"/>
<text text-anchor="middle" x="93.51" y="-57.2" font-family="Times,serif" font-size="14.00">0.38</text>
</g>
<!-- x0(t&#45;1) -->
<g id="node4" class="node">
<title>x0(t&#45;1)</title>
<ellipse fill="none" stroke="black" cx="157.51" cy="-195" rx="36.51" ry="18"/>
<text text-anchor="middle" x="157.51" y="-189.95" font-family="Times,serif" font-size="14.00">x0(t&#45;1)</text>
</g>
<!-- x0(t&#45;1)&#45;&gt;x0(t) -->
<g id="edge1" class="edge">
<title>x0(t&#45;1)&#45;&gt;x0(t)</title>
<path fill="none" stroke="black" d="M157.51,-176.91C157.51,-165.26 157.51,-149.55 157.51,-136.02"/>
<polygon fill="black" stroke="black" points="161.01,-136.36 157.51,-126.36 154.01,-136.36 161.01,-136.36"/>
<text text-anchor="middle" x="169.51" y="-145.7" font-family="Times,serif" font-size="14.00">0.65</text>
</g>
<!-- x1(t&#45;1) -->
<g id="node5" class="node">
<title>x1(t&#45;1)</title>
<ellipse fill="none" stroke="black" cx="36.51" cy="-195" rx="36.51" ry="18"/>
<text text-anchor="middle" x="36.51" y="-189.95" font-family="Times,serif" font-size="14.00">x1(t&#45;1)</text>
</g>
<!-- x1(t&#45;1)&#45;&gt;x1(t) -->
<g id="edge4" class="edge">
<title>x1(t&#45;1)&#45;&gt;x1(t)</title>
<path fill="none" stroke="black" d="M27.4,-177.39C17.02,-156.14 2.96,-118.51 15.01,-88.5 22.94,-68.74 39.47,-51.41 54.07,-39.01"/>
<polygon fill="black" stroke="black" points="56.06,-41.9 61.64,-32.89 51.66,-36.46 56.06,-41.9"/>
<text text-anchor="middle" x="29.76" y="-101.45" font-family="Times,serif" font-size="14.00">&#45;0.57</text>
</g>
<!-- x1(t&#45;1)&#45;&gt;x2(t) -->
<g id="edge5" class="edge">
<title>x1(t&#45;1)&#45;&gt;x2(t)</title>
<path fill="none" stroke="black" d="M45.19,-177.32C51.54,-165.12 60.28,-148.3 67.6,-134.23"/>
<polygon fill="black" stroke="black" points="70.65,-135.96 72.16,-125.47 64.44,-132.73 70.65,-135.96"/>
<text text-anchor="middle" x="77.76" y="-145.7" font-family="Times,serif" font-size="14.00">&#45;0.08</text>
</g>
<!-- x2(t&#45;1) -->
<g id="node6" class="node">
<title>x2(t&#45;1)</title>
<ellipse fill="none" stroke="black" cx="248.51" cy="-195" rx="36.51" ry="18"/>
<text text-anchor="middle" x="248.51" y="-189.95" font-family="Times,serif" font-size="14.00">x2(t&#45;1)</text>
</g>
</g>
</svg>