<?xml version="1.0" encoding="UTF-8" standalone="no"?>
<!DOCTYPE svg PUBLIC "-//W3C//DTD SVG 1.1//EN"
 "http://www.w3.org/Graphics/SVG/1.1/DTD/svg11.dtd">
<!-- Generated by graphviz version 10.0.1 (20240210.2158)
 -->
<!-- Pages: 1 -->
<svg width="294pt" height="133pt"
 viewBox="0.00 0.00 293.92 132.50" xmlns="http://www.w3.org/2000/svg" xmlns:xlink="http://www.w3.org/1999/xlink">
<g id="graph0" class="graph" transform="scale(1 1) rotate(0) translate(4 128.5)">
<polygon fill="white" stroke="none" points="-4,4 -4,-128.5 289.92,-128.5 289.92,4 -4,4"/>
<!-- temperature -->
<g id="node1" class="node">
<title>temperature</title>
<ellipse fill="none" stroke="black" cx="142.19" cy="-106.5" rx="55.45" ry="18"/>
<text text-anchor="middle" x="142.19" y="-101.45" font-family="Times,serif" font-size="14.00">temperature</text>
</g>
<!-- electricity load -->
<g id="node2" class="node">
<title>electricity load</title>
<ellipse fill="none" stroke="black" cx="66.19" cy="-18" rx="66.19" ry="18"/>
<text text-anchor="middle" x="66.19" y="-12.95" font-family="Times,serif" font-size="14.00">electricity load</text>
</g>
<!-- temperature&#45;&gt;electricity load -->
<g id="edge1" class="edge">
<title>temperature&#45;&gt;electricity load</title>
<path fill="none" stroke="black" d="M127.54,-88.82C116.47,-76.22 101.08,-58.7 88.48,-44.36"/>
<polygon fill="black" stroke="black" points="91.29,-42.26 82.06,-37.06 86.03,-46.88 91.29,-42.26"/>
<text text-anchor="middle" x="123.19" y="-57.2" font-family="Times,serif" font-size="14.00">1.00</text>
</g>
<!-- ice cream sales -->
<g id="node3" class="node">
<title>ice cream sales</title>
<ellipse fill="none" stroke="black" cx="218.19" cy="-18" rx="67.73" ry="18"/>
<text text-anchor="middle" x="218.19" y="-12.95" font-family="Times,serif" font-size="14.00">ice cream sales</text>
</g>
<!-- temperature&#45;&gt;ice cream sales -->
<g id="edge2" class="edge">
<title>temperature&#45;&gt;ice cream sales</title>
<path fill="none" stroke="black" d="M156.85,-88.82C167.92,-76.22 183.31,-58.7 195.91,-44.36"/>
<polygon fill="black" stroke="black" points="198.36,-46.88 202.33,-37.06 193.1,-42.26 198.36,-46.88"/>
<text text-anchor="middle" x="198.19" y="-57.2" font-family="Times,serif" font-size="14.00">1.00</text>
</g>
</g>
</svg>