<?xml version="1.0" encoding="UTF-8" standalone="no"?>
<!DOCTYPE svg PUBLIC "-//W3C//DTD SVG 1.1//EN"
 "http://www.w3.org/Graphics/SVG/1.1/DTD/svg11.dtd">
<!-- Generated by graphviz version 10.0.1 (20240210.2158)
 -->
<!-- Pages: 1 -->
<svg width="117pt" height="221pt"
 viewBox="0.00 0.00 116.50 221.00" xmlns="http://www.w3.org/2000/svg" xmlns:xlink="http://www.w3.org/1999/xlink">
<g id="graph0" class="graph" transform="scale(1 1) rotate(0) translate(4 217)">
<polygon fill="white" stroke="none" points="-4,4 -4,-217 112.5,-217 112.5,4 -4,4"/>
<!-- x0 -->
<g id="node1" class="node">
<title>x0</title>
<ellipse fill="none" stroke="black" cx="70" cy="-195" rx="27" ry="18"/>
<text text-anchor="middle" x="70" y="-189.95" font-family="Times,serif" font-size="14.00">x0</text>
</g>
<!-- x1 -->
<g id="node2" class="node">
<title>x1</title>
<ellipse fill="none" stroke="black" cx="27" cy="-106.5" rx="27" ry="18"/>
<text text-anchor="middle" x="27" y="-101.45" font-family="Times,serif" font-size="14.00">x1</text>
</g>
<!-- x0&#45;&gt;x1 -->
<g id="edge1" class="edge">
<title>x0&#45;&gt;x1</title>
<path fill="none" stroke="black" d="M61.5,-177.66C58.47,-171.79 55.05,-165.11 52,-159 47.97,-150.93 43.65,-142.11 39.76,-134.09"/>
<polygon fill="black" stroke="black" points="42.94,-132.63 35.44,-125.15 36.64,-135.67 42.94,-132.63"/>
<text text-anchor="middle" x="64" y="-145.7" font-family="Times,serif" font-size="14.00">2.05</text>
</g>
<!-- x2 -->
<g id="node3" class="node">
<title>x2</title>
<ellipse fill="none" stroke="black" cx="58" cy="-18" rx="27" ry="18"/>
<text text-anchor="middle" x="58" y="-12.95" font-family="Times,serif" font-size="14.00">x2</text>
</g>
<!-- x0&#45;&gt;x2 -->
<g id="edge2" class="edge">
<title>x0&#45;&gt;x2</title>
<path fill="none" stroke="black" d="M73.51,-176.98C74.53,-171.29 75.5,-164.9 76,-159 78.5,-129.61 84.58,-100.1 74,-54 73.36,-51.21 72.48,-48.37 71.47,-45.58"/>
<polygon fill="black" stroke="black" points="74.81,-44.48 67.68,-36.64 68.36,-47.21 74.81,-44.48"/>
<text text-anchor="middle" x="94.25" y="-101.45" font-family="Times,serif" font-size="14.00">&#45;1.09</text>
</g>
<!-- x1&#45;&gt;x2 -->
<g id="edge3" class="edge">
<title>x1&#45;&gt;x2</title>
<path fill="none" stroke="black" d="M32.98,-88.82C37.28,-76.81 43.18,-60.34 48.18,-46.41"/>
<polygon fill="black" stroke="black" points="51.35,-47.94 51.42,-37.35 44.76,-45.58 51.35,-47.94"/>
<text text-anchor="middle" x="58" y="-57.2" font-family="Times,serif" font-size="14.00">0.52</text>
</g>
</g>
</svg>