<?xml version="1.0" encoding="UTF-8" standalone="no"?>
<!DOCTYPE svg PUBLIC "-//W3C//DTD SVG 1.1//EN"
 "http://www.w3.org/Graphics/SVG/1.1/DTD/svg11.dtd">
<!-- Generated by graphviz version 10.0.1 (20240210.2158)
 -->
<!-- Pages: 1 -->
<svg width="312pt" height="133pt"
 viewBox="0.00 0.00 312.14 132.50" xmlns="http://www.w3.org/2000/svg" xmlns:xlink="http://www.w3.org/1999/xlink">
<g id="graph0" class="graph" transform="scale(1 1) rotate(0) translate(4 128.5)">
<polygon fill="white" stroke="none" points="-4,4 -4,-128.5 308.14,-128.5 308.14,4 -4,4"/>
<!-- wind forecast -->
<g id="node1" class="node">
<title>wind forecast</title>
<ellipse fill="none" stroke="black" cx="61.08" cy="-106.5" rx="61.08" ry="18"/>
<text text-anchor="middle" x="61.08" y="-101.45" font-family="Times,serif" font-size="14.00">wind forecast</text>
</g>
<!-- congestion -->
<g id="node2" class="node">
<title>congestion</title>
<ellipse fill="none" stroke="black" cx="141.08" cy="-18" rx="50.84" ry="18"/>
<text text-anchor="middle" x="141.08" y="-12.95" font-family="Times,serif" font-size="14.00">congestion</text>
</g>
<!-- wind forecast&#45;&gt;congestion -->
<g id="edge1" class="edge">
<title>wind forecast&#45;&gt;congestion</title>
<path fill="none" stroke="black" d="M76.5,-88.82C88.34,-76.02 104.88,-58.14 118.25,-43.68"/>
<polygon fill="black" stroke="black" points="120.45,-46.46 124.67,-36.74 115.31,-41.7 120.45,-46.46"/>
<text text-anchor="middle" x="121.08" y="-57.2" font-family="Times,serif" font-size="14.00">1.00</text>
</g>
<!-- thermal constraints -->
<g id="node3" class="node">
<title>thermal constraints</title>
<ellipse fill="none" stroke="black" cx="222.08" cy="-106.5" rx="82.06" ry="18"/>
<text text-anchor="middle" x="222.08" y="-101.45" font-family="Times,serif" font-size="14.00">thermal constraints</text>
</g>
<!-- thermal constraints&#45;&gt;congestion -->
<g id="edge2" class="edge">
<title>thermal constraints&#45;&gt;congestion</title>
<path fill="none" stroke="black" d="M206.07,-88.41C194.16,-75.69 177.72,-58.13 164.35,-43.86"/>
<polygon fill="black" stroke="black" points="166.92,-41.48 157.53,-36.57 161.81,-46.26 166.92,-41.48"/>
<text text-anchor="middle" x="200.08" y="-57.2" font-family="Times,serif" font-size="14.00">1.00</text>
</g>
</g>
</svg>