<?xml version="1.0" encoding="UTF-8" standalone="no"?>
<!DOCTYPE svg PUBLIC "-//W3C//DTD SVG 1.1//EN"
 "http://www.w3.org/Graphics/SVG/1.1/DTD/svg11.dtd">
<!-- Generated by graphviz version 10.0.1 (20240210.2158)
 -->
<!-- Pages: 1 -->
<svg width="223pt" height="310pt"
 viewBox="0.00 0.00 223.02 309.50" xmlns="http://www.w3.org/2000/svg" xmlns:xlink="http://www.w3.org/1999/xlink">
<g id="graph0" class="graph" transform="scale(1 1) rotate(0) translate(4 305.5)">
<polygon fill="white" stroke="none" points="-4,4 -4,-305.5 219.02,-305.5 219.02,4 -4,4"/>
<!-- x0(t) -->
<g id="node1" class="node">
<title>x0(t)</title>
<ellipse fill="none" stroke="black" cx="95.51" cy="-18" rx="28.83" ry="18"/>
<text text-anchor="middle" x="95.51" y="-12.95" font-family="Times,serif" font-size="14.00">x0(t)</text>
</g>
<!-- x1(t) -->
<g id="node2" class="node">
<title>x1(t)</title>
<ellipse fill="none" stroke="black" cx="30.51" cy="-106.5" rx="28.83" ry="18"/>
<text text-anchor="middle" x="30.51" y="-101.45" font-family="Times,serif" font-size="14.00">x1(t)</text>
</g>
<!-- x1(t)&#45;&gt;x0(t) -->
<g id="edge1" class="edge">
<title>x1(t)&#45;&gt;x0(t)</title>
<path fill="none" stroke="black" d="M37.45,-88.87C42.26,-78.34 49.27,-64.73 57.51,-54 61.17,-49.23 65.52,-44.56 69.94,-40.26"/>
<polygon fill="black" stroke="black" points="72.26,-42.89 77.27,-33.55 67.53,-37.72 72.26,-42.89"/>
<text text-anchor="middle" x="69.51" y="-57.2" font-family="Times,serif" font-size="14.00">0.42</text>
</g>
<!-- x2(t) -->
<g id="node3" class="node">
<title>x2(t)</title>
<ellipse fill="none" stroke="black" cx="95.51" cy="-195" rx="28.83" ry="18"/>
<text text-anchor="middle" x="95.51" y="-189.95" font-family="Times,serif" font-size="14.00">x2(t)</text>
</g>
<!-- x2(t)&#45;&gt;x0(t) -->
<g id="edge2" class="edge">
<title>x2(t)&#45;&gt;x0(t)</title>
<path fill="none" stroke="black" d="M95.51,-176.58C95.51,-146.44 95.51,-84.3 95.51,-47.7"/>
<polygon fill="black" stroke="black" points="99.01,-47.86 95.51,-37.86 92.01,-47.86 99.01,-47.86"/>
<text text-anchor="middle" x="109.76" y="-101.45" font-family="Times,serif" font-size="14.00">&#45;0.21</text>
</g>
<!-- x2(t)&#45;&gt;x1(t) -->
<g id="edge4" class="edge">
<title>x2(t)&#45;&gt;x1(t)</title>
<path fill="none" stroke="black" d="M78.39,-180.47C71.38,-174.39 63.52,-166.83 57.51,-159 51.78,-151.54 46.65,-142.69 42.43,-134.44"/>
<polygon fill="black" stroke="black" points="45.61,-132.97 38.11,-125.49 39.31,-136.02 45.61,-132.97"/>
<text text-anchor="middle" x="69.51" y="-145.7" font-family="Times,serif" font-size="14.00">0.63</text>
</g>
<!-- x0(t&#45;1) -->
<g id="node4" class="node">
<title>x0(t&#45;1)</title>
<ellipse fill="none" stroke="black" cx="178.51" cy="-106.5" rx="36.51" ry="18"/>
<text text-anchor="middle" x="178.51" y="-101.45" font-family="Times,serif" font-size="14.00">x0(t&#45;1)</text>
</g>
<!-- x0(t&#45;1)&#45;&gt;x0(t) -->
<g id="edge3" class="edge">
<title>x0(t&#45;1)&#45;&gt;x0(t)</title>
<path fill="none" stroke="black" d="M163.67,-90.04C150.84,-76.67 132.13,-57.16 117.55,-41.97"/>
<polygon fill="black" stroke="black" points="120.44,-39.93 110.99,-35.13 115.39,-44.77 120.44,-39.93"/>
<text text-anchor="middle" x="155.51" y="-57.2" font-family="Times,serif" font-size="14.00">0.63</text>
</g>
<!-- x1(t&#45;1) -->
<g id="node5" class="node">
<title>x1(t&#45;1)</title>
<ellipse fill="none" stroke="black" cx="36.51" cy="-283.5" rx="36.51" ry="18"/>
<text text-anchor="middle" x="36.51" y="-278.45" font-family="Times,serif" font-size="14.00">x1(t&#45;1)</text>
</g>
<!-- x1(t&#45;1)&#45;&gt;x1(t) -->
<g id="edge5" class="edge">
<title>x1(t&#45;1)&#45;&gt;x1(t)</title>
<path fill="none" stroke="black" d="M34.11,-265.12C32.3,-251.09 29.97,-230.81 29.01,-213 27.61,-187.01 28.23,-157.36 29.05,-136.13"/>
<polygon fill="black" stroke="black" points="32.55,-136.35 29.48,-126.2 25.55,-136.04 32.55,-136.35"/>
<text text-anchor="middle" x="43.76" y="-189.95" font-family="Times,serif" font-size="14.00">&#45;0.41</text>
</g>
<!-- x1(t&#45;1)&#45;&gt;x2(t) -->
<g id="edge6" class="edge">
<title>x1(t&#45;1)&#45;&gt;x2(t)</title>
<path fill="none" stroke="black" d="M47.61,-266.23C56.23,-253.59 68.35,-235.82 78.24,-221.32"/>
<polygon fill="black" stroke="black" points="81.06,-223.39 83.81,-213.16 75.28,-219.44 81.06,-223.39"/>
<text text-anchor="middle" x="85.76" y="-234.2" font-family="Times,serif" font-size="14.00">&#45;0.19</text>
</g>
<!-- x2(t&#45;1) -->
<g id="node6" class="node">
<title>x2(t&#45;1)</title>
<ellipse fill="none" stroke="black" cx="127.51" cy="-283.5" rx="36.51" ry="18"/>
<text text-anchor="middle" x="127.51" y="-278.45" font-family="Times,serif" font-size="14.00">x2(t&#45;1)</text>
</g>
</g>
</svg>