<?xml version="1.0" encoding="UTF-8" standalone="no"?>
<!DOCTYPE svg PUBLIC "-//W3C//DTD SVG 1.1//EN"
 "http://www.w3.org/Graphics/SVG/1.1/DTD/svg11.dtd">
<!-- Generated by graphviz version 10.0.1 (20240210.2158)
 -->
<!-- Pages: 1 -->
<svg width="209pt" height="221pt"
 viewBox="0.00 0.00 209.22 221.00" xmlns="http://www.w3.org/2000/svg" xmlns:xlink="http://www.w3.org/1999/xlink">
<g id="graph0" class="graph" transform="scale(1 1) rotate(0) translate(4 217)">
<polygon fill="white" stroke="none" points="-4,4 -4,-217 205.22,-217 205.22,4 -4,4"/>
<!-- temperatures -->
<g id="node1" class="node">
<title>temperatures</title>
<ellipse fill="none" stroke="black" cx="142.19" cy="-195" rx="59.03" ry="18"/>
<text text-anchor="middle" x="142.19" y="-189.95" font-family="Times,serif" font-size="14.00">temperatures</text>
</g>
<!-- electricity load -->
<g id="node2" class="node">
<title>electricity load</title>
<ellipse fill="none" stroke="black" cx="66.19" cy="-106.5" rx="66.19" ry="18"/>
<text text-anchor="middle" x="66.19" y="-101.45" font-family="Times,serif" font-size="14.00">electricity load</text>
</g>
<!-- temperatures&#45;&gt;electricity load -->
<g id="edge1" class="edge">
<title>temperatures&#45;&gt;electricity load</title>
<path fill="none" stroke="black" d="M127.54,-177.32C116.47,-164.72 101.08,-147.2 88.48,-132.86"/>
<polygon fill="black" stroke="black" points="91.29,-130.76 82.06,-125.56 86.03,-135.38 91.29,-130.76"/>
<text text-anchor="middle" x="123.19" y="-145.7" font-family="Times,serif" font-size="14.00">1.00</text>
</g>
<!-- carbon emissions -->
<g id="node3" class="node">
<title>carbon emissions</title>
<ellipse fill="none" stroke="black" cx="117.19" cy="-18" rx="75.41" ry="18"/>
<text text-anchor="middle" x="117.19" y="-12.95" font-family="Times,serif" font-size="14.00">carbon emissions</text>
</g>
<!-- temperatures&#45;&gt;carbon emissions -->
<g id="edge2" class="edge">
<title>temperatures&#45;&gt;carbon emissions</title>
<path fill="none" stroke="black" d="M143.72,-176.67C145.19,-155.64 146.49,-119.18 141.19,-88.5 138.77,-74.44 133.88,-59.41 129.15,-46.93"/>
<polygon fill="black" stroke="black" points="132.43,-45.7 125.48,-37.7 125.92,-48.29 132.43,-45.7"/>
<text text-anchor="middle" x="156.19" y="-101.45" font-family="Times,serif" font-size="14.00">1.00</text>
</g>
<!-- electricity load&#45;&gt;carbon emissions -->
<g id="edge3" class="edge">
<title>electricity load&#45;&gt;carbon emissions</title>
<path fill="none" stroke="black" d="M76.27,-88.41C83.46,-76.21 93.28,-59.55 101.5,-45.62"/>
<polygon fill="black" stroke="black" points="104.31,-47.75 106.37,-37.36 98.28,-44.19 104.31,-47.75"/>
<text text-anchor="middle" x="109.19" y="-57.2" font-family="Times,serif" font-size="14.00">1.00</text>
</g>
</g>
</svg>