<?xml version="1.0" encoding="UTF-8" standalone="no"?>
<!DOCTYPE svg PUBLIC "-//W3C//DTD SVG 1.1//EN"
 "http://www.w3.org/Graphics/SVG/1.1/DTD/svg11.dtd">
<!-- Generated by graphviz version 10.0.1 (20240210.2158)
 -->
<!-- Pages: 1 -->
<svg width="159pt" height="221pt"
 viewBox="0.00 0.00 158.81 221.00" xmlns="http://www.w3.org/2000/svg" xmlns:xlink="http://www.w3.org/1999/xlink">
<g id="graph0" class="graph" transform="scale(1 1) rotate(0) translate(4 217)">
<polygon fill="white" stroke="none" points="-4,4 -4,-217 154.81,-217 154.81,4 -4,4"/>
<!-- wind generation -->
<g id="node1" class="node">
<title>wind generation</title>
<ellipse fill="none" stroke="black" cx="75.41" cy="-195" rx="70.8" ry="18"/>
<text text-anchor="middle" x="75.41" y="-189.95" font-family="Times,serif" font-size="14.00">wind generation</text>
</g>
<!-- electricity prices -->
<g id="node2" class="node">
<title>electricity prices</title>
<ellipse fill="none" stroke="black" cx="75.41" cy="-106.5" rx="72.34" ry="18"/>
<text text-anchor="middle" x="75.41" y="-101.45" font-family="Times,serif" font-size="14.00">electricity prices</text>
</g>
<!-- wind generation&#45;&gt;electricity prices -->
<g id="edge1" class="edge">
<title>wind generation&#45;&gt;electricity prices</title>
<path fill="none" stroke="black" d="M75.41,-176.91C75.41,-165.26 75.41,-149.55 75.41,-136.02"/>
<polygon fill="black" stroke="black" points="78.91,-136.36 75.41,-126.36 71.91,-136.36 78.91,-136.36"/>
<text text-anchor="middle" x="89.66" y="-145.7" font-family="Times,serif" font-size="14.00">&#45;1.00</text>
</g>
<!-- carbon emissions -->
<g id="node3" class="node">
<title>carbon emissions</title>
<ellipse fill="none" stroke="black" cx="75.41" cy="-18" rx="75.41" ry="18"/>
<text text-anchor="middle" x="75.41" y="-12.95" font-family="Times,serif" font-size="14.00">carbon emissions</text>
</g>
<!-- electricity prices&#45;&gt;carbon emissions -->
<g id="edge2" class="edge">
<title>electricity prices&#45;&gt;carbon emissions</title>
<path fill="none" stroke="black" d="M75.41,-88.41C75.41,-76.76 75.41,-61.05 75.41,-47.52"/>
<polygon fill="black" stroke="black" points="78.91,-47.86 75.41,-37.86 71.91,-47.86 78.91,-47.86"/>
<text text-anchor="middle" x="89.66" y="-57.2" font-family="Times,serif" font-size="14.00">&#45;1.50</text>
</g>
</g>
</svg>