<?xml version="1.0" encoding="UTF-8" standalone="no"?>
<!DOCTYPE svg PUBLIC "-//W3C//DTD SVG 1.1//EN"
 "http://www.w3.org/Graphics/SVG/1.1/DTD/svg11.dtd">
<!-- Generated by graphviz version 10.0.1 (20240210.2158)
 -->
<!-- Pages: 1 -->
<svg width="140pt" height="254pt"
 viewBox="0.00 0.00 139.88 253.95" xmlns="http://www.w3.org/2000/svg" xmlns:xlink="http://www.w3.org/1999/xlink">
<g id="graph0" class="graph" transform="scale(1 1) rotate(0) translate(4 249.95)">
<polygon fill="white" stroke="none" points="-4,4 -4,-249.95 135.88,-249.95 135.88,4 -4,4"/>
<!-- W -->
<g id="node1" class="node">
<title>W</title>
<ellipse fill="none" stroke="black" cx="65.94" cy="-216.96" rx="56.39" ry="28.99"/>
<text text-anchor="middle" x="65.94" y="-220.16" font-family="Times,serif" font-size="14.00">weather </text>
<text text-anchor="middle" x="65.94" y="-203.66" font-family="Times,serif" font-size="14.00">fluctuations</text>
</g>
<!-- F -->
<g id="node2" class="node">
<title>F</title>
<ellipse fill="none" stroke="black" cx="65.94" cy="-122.97" rx="65.94" ry="28.99"/>
<text text-anchor="middle" x="65.94" y="-126.17" font-family="Times,serif" font-size="14.00">wind forecast </text>
<text text-anchor="middle" x="65.94" y="-109.67" font-family="Times,serif" font-size="14.00">errors</text>
</g>
<!-- W&#45;&gt;F -->
<g id="edge1" class="edge">
<title>W&#45;&gt;F</title>
<path fill="none" stroke="black" d="M65.94,-187.61C65.94,-180.09 65.94,-171.83 65.94,-163.82"/>
<polygon fill="black" stroke="black" points="69.44,-163.9 65.94,-153.9 62.44,-163.9 69.44,-163.9"/>
</g>
<!-- B -->
<g id="node3" class="node">
<title>B</title>
<ellipse fill="none" stroke="black" cx="65.94" cy="-28.99" rx="51.09" ry="28.99"/>
<text text-anchor="middle" x="65.94" y="-32.19" font-family="Times,serif" font-size="14.00">balancing </text>
<text text-anchor="middle" x="65.94" y="-15.69" font-family="Times,serif" font-size="14.00">costs</text>
</g>
<!-- F&#45;&gt;B -->
<g id="edge2" class="edge">
<title>F&#45;&gt;B</title>
<path fill="none" stroke="black" d="M65.94,-93.63C65.94,-86.11 65.94,-77.85 65.94,-69.84"/>
<polygon fill="black" stroke="black" points="69.44,-69.92 65.94,-59.92 62.44,-69.92 69.44,-69.92"/>
</g>
</g>
</svg>