<?xml version="1.0" encoding="UTF-8" standalone="no"?>
<!DOCTYPE svg PUBLIC "-//W3C//DTD SVG 1.1//EN"
 "http://www.w3.org/Graphics/SVG/1.1/DTD/svg11.dtd">
<!-- Generated by graphviz version 10.0.1 (20240210.2158)
 -->
<!-- Pages: 1 -->
<svg width="356pt" height="287pt"
 viewBox="0.00 0.00 356.47 286.95" xmlns="http://www.w3.org/2000/svg" xmlns:xlink="http://www.w3.org/1999/xlink">
<g id="graph0" class="graph" transform="scale(1 1) rotate(0) translate(4 282.95)">
<polygon fill="white" stroke="none" points="-4,4 -4,-282.95 352.47,-282.95 352.47,4 -4,4"/>
<!-- solar power 
generation (t&#45;1) -->
<g id="node1" class="node">
<title>solar power 
generation (t&#45;1)</title>
<ellipse fill="none" stroke="black" cx="277.23" cy="-249.96" rx="71.24" ry="28.99"/>
<text text-anchor="middle" x="277.23" y="-253.16" font-family="Times,serif" font-size="14.00">solar power </text>
<text text-anchor="middle" x="277.23" y="-236.66" font-family="Times,serif" font-size="14.00">generation (t&#45;1)</text>
</g>
<!-- transmission capacity 
usage (t&#45;1) -->
<g id="node2" class="node">
<title>transmission capacity 
usage (t&#45;1)</title>
<ellipse fill="none" stroke="black" cx="97.23" cy="-139.47" rx="97.23" ry="28.99"/>
<text text-anchor="middle" x="97.23" y="-142.67" font-family="Times,serif" font-size="14.00">transmission capacity </text>
<text text-anchor="middle" x="97.23" y="-126.17" font-family="Times,serif" font-size="14.00">usage (t&#45;1)</text>
</g>
<!-- solar power 
generation (t&#45;1)&#45;&gt;transmission capacity 
usage (t&#45;1) -->
<g id="edge2" class="edge">
<title>solar power 
generation (t&#45;1)&#45;&gt;transmission capacity 
usage (t&#45;1)</title>
<path fill="none" stroke="black" d="M238.17,-225.42C212.09,-209.7 177.49,-188.85 149.11,-171.74"/>
<polygon fill="black" stroke="black" points="151.02,-168.8 140.64,-166.64 147.4,-174.8 151.02,-168.8"/>
<text text-anchor="middle" x="212.48" y="-189.67" font-family="Times,serif" font-size="14.00">&#45;0.16</text>
</g>
<!-- balancing 
costs (t) -->
<g id="node3" class="node">
<title>balancing 
costs (t)</title>
<ellipse fill="none" stroke="black" cx="277.23" cy="-28.99" rx="51.09" ry="28.99"/>
<text text-anchor="middle" x="277.23" y="-32.19" font-family="Times,serif" font-size="14.00">balancing </text>
<text text-anchor="middle" x="277.23" y="-15.69" font-family="Times,serif" font-size="14.00">costs (t)</text>
</g>
<!-- solar power 
generation (t&#45;1)&#45;&gt;balancing 
costs (t) -->
<g id="edge4" class="edge">
<title>solar power 
generation (t&#45;1)&#45;&gt;balancing 
costs (t)</title>
<path fill="none" stroke="black" d="M277.23,-220.78C277.23,-182.37 277.23,-113.38 277.23,-69.73"/>
<polygon fill="black" stroke="black" points="280.73,-69.92 277.23,-59.92 273.73,-69.92 280.73,-69.92"/>
<text text-anchor="middle" x="289.23" y="-134.42" font-family="Times,serif" font-size="14.00">0.62</text>
</g>
<!-- transmission capacity 
usage (t&#45;1)&#45;&gt;transmission capacity 
usage (t&#45;1) -->
<g id="edge3" class="edge">
<title>transmission capacity 
usage (t&#45;1)&#45;&gt;transmission capacity 
usage (t&#45;1)</title>
<path fill="none" stroke="black" d="M189.9,-148.82C203.38,-147.34 212.45,-144.22 212.45,-139.47 212.45,-136.21 208.16,-133.72 201.1,-132"/>
<polygon fill="black" stroke="black" points="201.84,-128.57 191.4,-130.38 200.68,-135.48 201.84,-128.57"/>
<text text-anchor="middle" x="226.7" y="-134.42" font-family="Times,serif" font-size="14.00">&#45;0.58</text>
</g>
<!-- transmission capacity 
usage (t&#45;1)&#45;&gt;balancing 
costs (t) -->
<g id="edge5" class="edge">
<title>transmission capacity 
usage (t&#45;1)&#45;&gt;balancing 
costs (t)</title>
<path fill="none" stroke="black" d="M139.43,-113.04C167.59,-96.07 204.56,-73.79 233.11,-56.58"/>
<polygon fill="black" stroke="black" points="234.77,-59.66 241.53,-51.5 231.16,-53.67 234.77,-59.66"/>
<text text-anchor="middle" x="210.23" y="-79.18" font-family="Times,serif" font-size="14.00">1.57</text>
</g>
<!-- balancing 
costs (t)&#45;&gt;solar power 
generation (t&#45;1) -->
<g id="edge1" class="edge">
<title>balancing 
costs (t)&#45;&gt;solar power 
generation (t&#45;1)</title>
<path fill="none" stroke="black" d="M289.3,-57.33C295.4,-72.63 302.15,-92.25 305.23,-110.48 309.52,-135.89 309.52,-143.06 305.23,-168.47 302.84,-182.6 298.25,-197.56 293.47,-210.7"/>
<polygon fill="black" stroke="black" points="290.27,-209.25 289.98,-219.84 296.81,-211.74 290.27,-209.25"/>
<text text-anchor="middle" x="321.23" y="-134.42" font-family="Times,serif" font-size="14.00">0.04</text>
</g>
</g>
</svg>