<?xml version="1.0" encoding="UTF-8" standalone="no"?>
<!DOCTYPE svg PUBLIC "-//W3C//DTD SVG 1.1//EN"
 "http://www.w3.org/Graphics/SVG/1.1/DTD/svg11.dtd">
<!-- Generated by graphviz version 10.0.1 (20240210.2158)
 -->
<!-- Pages: 1 -->
<svg width="109pt" height="221pt"
 viewBox="0.00 0.00 109.23 221.00" xmlns="http://www.w3.org/2000/svg" xmlns:xlink="http://www.w3.org/1999/xlink">
<g id="graph0" class="graph" transform="scale(1 1) rotate(0) translate(4 217)">
<polygon fill="white" stroke="none" points="-4,4 -4,-217 105.23,-217 105.23,4 -4,4"/>
<!-- x0 -->
<g id="node1" class="node">
<title>x0</title>
<ellipse fill="none" stroke="black" cx="27.73" cy="-195" rx="27" ry="18"/>
<text text-anchor="middle" x="27.73" y="-189.95" font-family="Times,serif" font-size="14.00">x0</text>
</g>
<!-- x0&#45;&gt;x0 -->
<g id="edge1" class="edge">
<title>x0&#45;&gt;x0</title>
<path fill="none" stroke="black" d="M52.26,-203.17C63.24,-203.95 72.73,-201.22 72.73,-195 72.73,-191.11 69.02,-188.59 63.56,-187.43"/>
<polygon fill="black" stroke="black" points="63.94,-183.95 53.77,-186.91 63.57,-190.94 63.94,-183.95"/>
<text text-anchor="middle" x="84.73" y="-189.95" font-family="Times,serif" font-size="14.00">0.09</text>
</g>
<!-- x1 -->
<g id="node2" class="node">
<title>x1</title>
<ellipse fill="none" stroke="black" cx="27.73" cy="-106.5" rx="27" ry="18"/>
<text text-anchor="middle" x="27.73" y="-101.45" font-family="Times,serif" font-size="14.00">x1</text>
</g>
<!-- x0&#45;&gt;x1 -->
<g id="edge3" class="edge">
<title>x0&#45;&gt;x1</title>
<path fill="none" stroke="black" d="M13.45,-179.2C8.77,-173.38 4.15,-166.33 1.73,-159 -0.58,-152.04 -0.58,-149.46 1.73,-142.5 2.98,-138.72 4.81,-135.02 6.94,-131.52"/>
<polygon fill="black" stroke="black" points="9.66,-133.72 12.58,-123.54 3.95,-129.68 9.66,-133.72"/>
<text text-anchor="middle" x="13.73" y="-145.7" font-family="Times,serif" font-size="14.00">1.49</text>
</g>
<!-- x1&#45;&gt;x0 -->
<g id="edge2" class="edge">
<title>x1&#45;&gt;x0</title>
<path fill="none" stroke="black" d="M28.92,-124.94C29.25,-130.54 29.56,-136.78 29.73,-142.5 29.94,-149.83 29.94,-151.67 29.73,-159 29.67,-161.06 29.59,-163.18 29.5,-165.31"/>
<polygon fill="black" stroke="black" points="26.02,-164.88 29,-175.05 33.01,-165.24 26.02,-164.88"/>
<text text-anchor="middle" x="41.73" y="-145.7" font-family="Times,serif" font-size="14.00">0.21</text>
</g>
<!-- x1&#45;&gt;x1 -->
<g id="edge4" class="edge">
<title>x1&#45;&gt;x1</title>
<path fill="none" stroke="black" d="M52.26,-114.67C63.24,-115.45 72.73,-112.72 72.73,-106.5 72.73,-102.61 69.02,-100.09 63.56,-98.93"/>
<polygon fill="black" stroke="black" points="63.94,-95.45 53.77,-98.41 63.57,-102.44 63.94,-95.45"/>
<text text-anchor="middle" x="86.98" y="-101.45" font-family="Times,serif" font-size="14.00">&#45;0.55</text>
</g>
<!-- x2 -->
<g id="node3" class="node">
<title>x2</title>
<ellipse fill="none" stroke="black" cx="27.73" cy="-18" rx="27" ry="18"/>
<text text-anchor="middle" x="27.73" y="-12.95" font-family="Times,serif" font-size="14.00">x2</text>
</g>
<!-- x1&#45;&gt;x2 -->
<g id="edge5" class="edge">
<title>x1&#45;&gt;x2</title>
<path fill="none" stroke="black" d="M27.73,-88.41C27.73,-76.76 27.73,-61.05 27.73,-47.52"/>
<polygon fill="black" stroke="black" points="31.23,-47.86 27.73,-37.86 24.23,-47.86 31.23,-47.86"/>
<text text-anchor="middle" x="41.98" y="-57.2" font-family="Times,serif" font-size="14.00">&#45;0.25</text>
</g>
</g>
</svg>