<?xml version="1.0" encoding="UTF-8" standalone="no"?>
<!DOCTYPE svg PUBLIC "-//W3C//DTD SVG 1.1//EN"
 "http://www.w3.org/Graphics/SVG/1.1/DTD/svg11.dtd">
<!-- Generated by graphviz version 10.0.1 (20240210.2158)
 -->
<!-- Pages: 1 -->
<svg width="117pt" height="221pt"
 viewBox="0.00 0.00 116.50 221.00" xmlns="http://www.w3.org/2000/svg" xmlns:xlink="http://www.w3.org/1999/xlink">
<g id="graph0" class="graph" transform="scale(1 1) rotate(0) translate(4 217)">
<polygon fill="white" stroke="none" points="-4,4 -4,-217 112.5,-217 112.5,4 -4,4"/>
<!-- x0 -->
<g id="node1" class="node">
<title>x0</title>
<ellipse fill="none" stroke="black" cx="27" cy="-106.5" rx="27" ry="18"/>
<text text-anchor="middle" x="27" y="-101.45" font-family="Times,serif" font-size="14.00">x0</text>
</g>
<!-- x1 -->
<g id="node2" class="node">
<title>x1</title>
<ellipse fill="none" stroke="black" cx="58" cy="-18" rx="27" ry="18"/>
<text text-anchor="middle" x="58" y="-12.95" font-family="Times,serif" font-size="14.00">x1</text>
</g>
<!-- x0&#45;&gt;x1 -->
<g id="edge2" class="edge">
<title>x0&#45;&gt;x1</title>
<path fill="none" stroke="black" d="M32.98,-88.82C37.28,-76.81 43.18,-60.34 48.18,-46.41"/>
<polygon fill="black" stroke="black" points="51.35,-47.94 51.42,-37.35 44.76,-45.58 51.35,-47.94"/>
<text text-anchor="middle" x="57" y="-57.2" font-family="Times,serif" font-size="14.00">1.60</text>
</g>
<!-- x2 -->
<g id="node3" class="node">
<title>x2</title>
<ellipse fill="none" stroke="black" cx="58" cy="-195" rx="27" ry="18"/>
<text text-anchor="middle" x="58" y="-189.95" font-family="Times,serif" font-size="14.00">x2</text>
</g>
<!-- x2&#45;&gt;x0 -->
<g id="edge1" class="edge">
<title>x2&#45;&gt;x0</title>
<path fill="none" stroke="black" d="M52.02,-177.32C47.72,-165.31 41.82,-148.84 36.82,-134.91"/>
<polygon fill="black" stroke="black" points="40.24,-134.08 33.58,-125.85 33.65,-136.44 40.24,-134.08"/>
<text text-anchor="middle" x="57" y="-145.7" font-family="Times,serif" font-size="14.00">0.17</text>
</g>
<!-- x2&#45;&gt;x1 -->
<g id="edge3" class="edge">
<title>x2&#45;&gt;x1</title>
<path fill="none" stroke="black" d="M66.6,-177.71C69.19,-171.96 71.7,-165.35 73,-159 82.38,-113.29 82.38,-99.71 73,-54 72.45,-51.32 71.69,-48.6 70.79,-45.91"/>
<polygon fill="black" stroke="black" points="74.08,-44.71 67.16,-36.7 67.57,-47.28 74.08,-44.71"/>
<text text-anchor="middle" x="94.25" y="-101.45" font-family="Times,serif" font-size="14.00">&#45;0.42</text>
</g>
</g>
</svg>