<?xml version="1.0" encoding="UTF-8" standalone="no"?>
<!DOCTYPE svg PUBLIC "-//W3C//DTD SVG 1.1//EN"
 "http://www.w3.org/Graphics/SVG/1.1/DTD/svg11.dtd">
<!-- Generated by graphviz version 10.0.1 (20240210.2158)
 -->
<!-- Pages: 1 -->
<svg width="286pt" height="221pt"
 viewBox="0.00 0.00 286.34 221.00" xmlns="http://www.w3.org/2000/svg" xmlns:xlink="http://www.w3.org/1999/xlink">
<g id="graph0" class="graph" transform="scale(1 1) rotate(0) translate(4 217)">
<polygon fill="white" stroke="none" points="-4,4 -4,-217 282.34,-217 282.34,4 -4,4"/>
<!-- wind forecast -->
<g id="node1" class="node">
<title>wind forecast</title>
<ellipse fill="none" stroke="black" cx="61.08" cy="-106.5" rx="61.08" ry="18"/>
<text text-anchor="middle" x="61.08" y="-101.45" font-family="Times,serif" font-size="14.00">wind forecast</text>
</g>
<!-- congestion -->
<g id="node2" class="node">
<title>congestion</title>
<ellipse fill="none" stroke="black" cx="134.08" cy="-18" rx="50.84" ry="18"/>
<text text-anchor="middle" x="134.08" y="-12.95" font-family="Times,serif" font-size="14.00">congestion</text>
</g>
<!-- wind forecast&#45;&gt;congestion -->
<g id="edge2" class="edge">
<title>wind forecast&#45;&gt;congestion</title>
<path fill="none" stroke="black" d="M75.15,-88.82C85.86,-76.14 100.76,-58.47 112.9,-44.09"/>
<polygon fill="black" stroke="black" points="115.29,-46.68 119.07,-36.78 109.94,-42.17 115.29,-46.68"/>
<text text-anchor="middle" x="116.08" y="-57.2" font-family="Times,serif" font-size="14.00">3.00</text>
</g>
<!-- day ahead price -->
<g id="node3" class="node">
<title>day ahead price</title>
<ellipse fill="none" stroke="black" cx="209.08" cy="-106.5" rx="69.26" ry="18"/>
<text text-anchor="middle" x="209.08" y="-101.45" font-family="Times,serif" font-size="14.00">day ahead price</text>
</g>
<!-- day ahead price&#45;&gt;congestion -->
<g id="edge3" class="edge">
<title>day ahead price&#45;&gt;congestion</title>
<path fill="none" stroke="black" d="M194.62,-88.82C183.62,-76.14 168.3,-58.47 155.83,-44.09"/>
<polygon fill="black" stroke="black" points="158.68,-42.03 149.48,-36.77 153.39,-46.62 158.68,-42.03"/>
<text text-anchor="middle" x="190.08" y="-57.2" font-family="Times,serif" font-size="14.00">2.00</text>
</g>
<!-- thermal constraints -->
<g id="node4" class="node">
<title>thermal constraints</title>
<ellipse fill="none" stroke="black" cx="134.08" cy="-195" rx="82.06" ry="18"/>
<text text-anchor="middle" x="134.08" y="-189.95" font-family="Times,serif" font-size="14.00">thermal constraints</text>
</g>
<!-- thermal constraints&#45;&gt;wind forecast -->
<g id="edge1" class="edge">
<title>thermal constraints&#45;&gt;wind forecast</title>
<path fill="none" stroke="black" d="M119.65,-176.91C109.09,-164.39 94.57,-147.18 82.63,-133.04"/>
<polygon fill="black" stroke="black" points="85.32,-130.8 76.2,-125.42 79.97,-135.32 85.32,-130.8"/>
<text text-anchor="middle" x="116.08" y="-145.7" font-family="Times,serif" font-size="14.00">2.00</text>
</g>
<!-- thermal constraints&#45;&gt;day ahead price -->
<g id="edge4" class="edge">
<title>thermal constraints&#45;&gt;day ahead price</title>
<path fill="none" stroke="black" d="M148.89,-176.91C159.78,-164.35 174.76,-147.08 187.05,-132.91"/>
<polygon fill="black" stroke="black" points="189.39,-135.55 193.3,-125.7 184.1,-130.96 189.39,-135.55"/>
<text text-anchor="middle" x="190.08" y="-145.7" font-family="Times,serif" font-size="14.00">5.00</text>
</g>
</g>
</svg>