<?xml version="1.0" encoding="UTF-8" standalone="no"?>
<!DOCTYPE svg PUBLIC "-//W3C//DTD SVG 1.1//EN"
 "http://www.w3.org/Graphics/SVG/1.1/DTD/svg11.dtd">
<!-- Generated by graphviz version 10.0.1 (20240210.2158)
 -->
<!-- Pages: 1 -->
<svg width="330pt" height="221pt"
 viewBox="0.00 0.00 330.34 221.00" xmlns="http://www.w3.org/2000/svg" xmlns:xlink="http://www.w3.org/1999/xlink">
<g id="graph0" class="graph" transform="scale(1 1) rotate(0) translate(4 217)">
<polygon fill="white" stroke="none" points="-4,4 -4,-217 326.34,-217 326.34,4 -4,4"/>
<!-- x0(t) -->
<g id="node1" class="node">
<title>x0(t)</title>
<ellipse fill="none" stroke="black" cx="194.83" cy="-106.5" rx="28.83" ry="18"/>
<text text-anchor="middle" x="194.83" y="-101.45" font-family="Times,serif" font-size="14.00">x0(t)</text>
</g>
<!-- x1(t) -->
<g id="node2" class="node">
<title>x1(t)</title>
<ellipse fill="none" stroke="black" cx="111.83" cy="-18" rx="28.83" ry="18"/>
<text text-anchor="middle" x="111.83" y="-12.95" font-family="Times,serif" font-size="14.00">x1(t)</text>
</g>
<!-- x0(t)&#45;&gt;x1(t) -->
<g id="edge2" class="edge">
<title>x0(t)&#45;&gt;x1(t)</title>
<path fill="none" stroke="black" d="M180.37,-90.43C167.52,-77.04 148.54,-57.25 133.8,-41.9"/>
<polygon fill="black" stroke="black" points="136.62,-39.78 127.17,-34.99 131.57,-44.63 136.62,-39.78"/>
<text text-anchor="middle" x="171.83" y="-57.2" font-family="Times,serif" font-size="14.00">1.76</text>
</g>
<!-- x2(t) -->
<g id="node3" class="node">
<title>x2(t)</title>
<ellipse fill="none" stroke="black" cx="28.83" cy="-106.5" rx="28.83" ry="18"/>
<text text-anchor="middle" x="28.83" y="-101.45" font-family="Times,serif" font-size="14.00">x2(t)</text>
</g>
<!-- x2(t)&#45;&gt;x1(t) -->
<g id="edge3" class="edge">
<title>x2(t)&#45;&gt;x1(t)</title>
<path fill="none" stroke="black" d="M43.29,-90.43C56.14,-77.04 75.13,-57.25 89.86,-41.9"/>
<polygon fill="black" stroke="black" points="92.09,-44.63 96.49,-34.99 87.04,-39.78 92.09,-44.63"/>
<text text-anchor="middle" x="88.83" y="-57.2" font-family="Times,serif" font-size="14.00">0.35</text>
</g>
<!-- x0(t&#45;1) -->
<g id="node4" class="node">
<title>x0(t&#45;1)</title>
<ellipse fill="none" stroke="black" cx="194.83" cy="-195" rx="36.51" ry="18"/>
<text text-anchor="middle" x="194.83" y="-189.95" font-family="Times,serif" font-size="14.00">x0(t&#45;1)</text>
</g>
<!-- x0(t&#45;1)&#45;&gt;x0(t) -->
<g id="edge1" class="edge">
<title>x0(t&#45;1)&#45;&gt;x0(t)</title>
<path fill="none" stroke="black" d="M194.83,-176.91C194.83,-165.26 194.83,-149.55 194.83,-136.02"/>
<polygon fill="black" stroke="black" points="198.33,-136.36 194.83,-126.36 191.33,-136.36 198.33,-136.36"/>
<text text-anchor="middle" x="206.83" y="-145.7" font-family="Times,serif" font-size="14.00">0.67</text>
</g>
<!-- x1(t&#45;1) -->
<g id="node5" class="node">
<title>x1(t&#45;1)</title>
<ellipse fill="none" stroke="black" cx="111.83" cy="-106.5" rx="36.51" ry="18"/>
<text text-anchor="middle" x="111.83" y="-101.45" font-family="Times,serif" font-size="14.00">x1(t&#45;1)</text>
</g>
<!-- x1(t&#45;1)&#45;&gt;x1(t) -->
<g id="edge4" class="edge">
<title>x1(t&#45;1)&#45;&gt;x1(t)</title>
<path fill="none" stroke="black" d="M111.83,-88.41C111.83,-76.76 111.83,-61.05 111.83,-47.52"/>
<polygon fill="black" stroke="black" points="115.33,-47.86 111.83,-37.86 108.33,-47.86 115.33,-47.86"/>
<text text-anchor="middle" x="126.08" y="-57.2" font-family="Times,serif" font-size="14.00">&#45;0.44</text>
</g>
<!-- x2(t&#45;1) -->
<g id="node6" class="node">
<title>x2(t&#45;1)</title>
<ellipse fill="none" stroke="black" cx="285.83" cy="-195" rx="36.51" ry="18"/>
<text text-anchor="middle" x="285.83" y="-189.95" font-family="Times,serif" font-size="14.00">x2(t&#45;1)</text>
</g>
</g>
</svg>