<?xml version="1.0" encoding="UTF-8" standalone="no"?>
<!DOCTYPE svg PUBLIC "-//W3C//DTD SVG 1.1//EN"
 "http://www.w3.org/Graphics/SVG/1.1/DTD/svg11.dtd">
<!-- Generated by graphviz version 10.0.1 (20240210.2158)
 -->
<!-- Pages: 1 -->
<svg width="338pt" height="287pt"
 viewBox="0.00 0.00 338.14 286.95" xmlns="http://www.w3.org/2000/svg" xmlns:xlink="http://www.w3.org/1999/xlink">
<g id="graph0" class="graph" transform="scale(1 1) rotate(0) translate(4 282.95)">
<polygon fill="white" stroke="none" points="-4,4 -4,-282.95 334.14,-282.95 334.14,4 -4,4"/>
<!-- weather 
fluctuations -->
<g id="node1" class="node">
<title>weather 
fluctuations</title>
<ellipse fill="none" stroke="black" cx="105.07" cy="-249.96" rx="56.39" ry="28.99"/>
<text text-anchor="middle" x="105.07" y="-253.16" font-family="Times,serif" font-size="14.00">weather </text>
<text text-anchor="middle" x="105.07" y="-236.66" font-family="Times,serif" font-size="14.00">fluctuations</text>
</g>
<!-- heating 
demand -->
<g id="node3" class="node">
<title>heating 
demand</title>
<ellipse fill="none" stroke="black" cx="42.07" cy="-139.47" rx="42.07" ry="28.99"/>
<text text-anchor="middle" x="42.07" y="-142.67" font-family="Times,serif" font-size="14.00">heating </text>
<text text-anchor="middle" x="42.07" y="-126.17" font-family="Times,serif" font-size="14.00">demand</text>
</g>
<!-- weather 
fluctuations&#45;&gt;heating 
demand -->
<g id="edge1" class="edge">
<title>weather 
fluctuations&#45;&gt;heating 
demand</title>
<path fill="none" stroke="black" d="M89.34,-221.86C81.4,-208.2 71.67,-191.43 63.1,-176.68"/>
<polygon fill="black" stroke="black" points="66.2,-175.05 58.15,-168.16 60.15,-178.56 66.2,-175.05"/>
<text text-anchor="middle" x="90.07" y="-189.67" font-family="Times,serif" font-size="14.00">0.30</text>
</g>
<!-- wind forecast 
errors -->
<g id="node4" class="node">
<title>wind forecast 
errors</title>
<ellipse fill="none" stroke="black" cx="168.07" cy="-139.47" rx="65.94" ry="28.99"/>
<text text-anchor="middle" x="168.07" y="-142.67" font-family="Times,serif" font-size="14.00">wind forecast </text>
<text text-anchor="middle" x="168.07" y="-126.17" font-family="Times,serif" font-size="14.00">errors</text>
</g>
<!-- weather 
fluctuations&#45;&gt;wind forecast 
errors -->
<g id="edge2" class="edge">
<title>weather 
fluctuations&#45;&gt;wind forecast 
errors</title>
<path fill="none" stroke="black" d="M120.81,-221.86C128.57,-208.5 138.04,-192.18 146.47,-177.67"/>
<polygon fill="black" stroke="black" points="149.35,-179.69 151.34,-169.29 143.29,-176.18 149.35,-179.69"/>
<text text-anchor="middle" x="152.07" y="-189.67" font-family="Times,serif" font-size="14.00">0.80</text>
</g>
<!-- outages -->
<g id="node2" class="node">
<title>outages</title>
<ellipse fill="none" stroke="black" cx="291.07" cy="-139.47" rx="39.07" ry="18"/>
<text text-anchor="middle" x="291.07" y="-134.42" font-family="Times,serif" font-size="14.00">outages</text>
</g>
<!-- balancing 
costs -->
<g id="node5" class="node">
<title>balancing 
costs</title>
<ellipse fill="none" stroke="black" cx="168.07" cy="-28.99" rx="51.09" ry="28.99"/>
<text text-anchor="middle" x="168.07" y="-32.19" font-family="Times,serif" font-size="14.00">balancing </text>
<text text-anchor="middle" x="168.07" y="-15.69" font-family="Times,serif" font-size="14.00">costs</text>
</g>
<!-- outages&#45;&gt;balancing 
costs -->
<g id="edge3" class="edge">
<title>outages&#45;&gt;balancing 
costs</title>
<path fill="none" stroke="black" d="M273.45,-122.93C255.31,-106.93 226.54,-81.56 203.64,-61.36"/>
<polygon fill="black" stroke="black" points="206.13,-58.89 196.32,-54.9 201.5,-64.14 206.13,-58.89"/>
<text text-anchor="middle" x="248.07" y="-79.18" font-family="Times,serif" font-size="14.00">1.50</text>
</g>
<!-- heating 
demand&#45;&gt;balancing 
costs -->
<g id="edge4" class="edge">
<title>heating 
demand&#45;&gt;balancing 
costs</title>
<path fill="none" stroke="black" d="M67.87,-116.26C86.4,-100.31 111.6,-78.61 132.1,-60.97"/>
<polygon fill="black" stroke="black" points="134.12,-63.84 139.41,-54.67 129.55,-58.54 134.12,-63.84"/>
<text text-anchor="middle" x="124.07" y="-79.18" font-family="Times,serif" font-size="14.00">0.70</text>
</g>
<!-- wind forecast 
errors&#45;&gt;balancing 
costs -->
<g id="edge5" class="edge">
<title>wind forecast 
errors&#45;&gt;balancing 
costs</title>
<path fill="none" stroke="black" d="M168.07,-110.25C168.07,-97.92 168.07,-83.24 168.07,-69.82"/>
<polygon fill="black" stroke="black" points="171.57,-69.96 168.07,-59.96 164.57,-69.96 171.57,-69.96"/>
<text text-anchor="middle" x="180.07" y="-79.18" font-family="Times,serif" font-size="14.00">1.80</text>
</g>
</g>
</svg>