<?xml version="1.0" encoding="UTF-8" standalone="no"?>
<!DOCTYPE svg PUBLIC "-//W3C//DTD SVG 1.1//EN"
 "http://www.w3.org/Graphics/SVG/1.1/DTD/svg11.dtd">
<!-- Generated by graphviz version 10.0.1 (20240210.2158)
 -->
<!-- Pages: 1 -->
<svg width="295pt" height="44pt"
 viewBox="0.00 0.00 295.00 44.00" xmlns="http://www.w3.org/2000/svg" xmlns:xlink="http://www.w3.org/1999/xlink">
<g id="graph0" class="graph" transform="scale(1 1) rotate(0) translate(4 40)">
<polygon fill="white" stroke="none" points="-4,4 -4,-40 291,-40 291,4 -4,4"/>
<!-- x0 -->
<g id="node1" class="node">
<title>x0</title>
<ellipse fill="none" stroke="black" cx="27" cy="-18" rx="27" ry="18"/>
<text text-anchor="middle" x="27" y="-12.95" font-family="Times,serif" font-size="14.00">x0</text>
</g>
<!-- x0&#45;&gt;x0 -->
<g id="edge1" class="edge">
<title>x0&#45;&gt;x0</title>
<path fill="none" stroke="black" d="M52.44,-24.69C63.03,-25.15 72,-22.92 72,-18 72,-15 68.67,-13 63.67,-12"/>
<polygon fill="black" stroke="black" points="64.15,-8.52 53.95,-11.4 63.72,-15.51 64.15,-8.52"/>
<text text-anchor="middle" x="84" y="-12.95" font-family="Times,serif" font-size="14.00">0.67</text>
</g>
<!-- x1 -->
<g id="node2" class="node">
<title>x1</title>
<ellipse fill="none" stroke="black" cx="141" cy="-18" rx="27" ry="18"/>
<text text-anchor="middle" x="141" y="-12.95" font-family="Times,serif" font-size="14.00">x1</text>
</g>
<!-- x1&#45;&gt;x1 -->
<g id="edge2" class="edge">
<title>x1&#45;&gt;x1</title>
<path fill="none" stroke="black" d="M166.44,-24.69C177.03,-25.15 186,-22.92 186,-18 186,-15 182.67,-13 177.67,-12"/>
<polygon fill="black" stroke="black" points="178.15,-8.52 167.95,-11.4 177.72,-15.51 178.15,-8.52"/>
<text text-anchor="middle" x="200.25" y="-12.95" font-family="Times,serif" font-size="14.00">&#45;0.54</text>
</g>
<!-- x2 -->
<g id="node3" class="node">
<title>x2</title>
<ellipse fill="none" stroke="black" cx="260" cy="-18" rx="27" ry="18"/>
<text text-anchor="middle" x="260" y="-12.95" font-family="Times,serif" font-size="14.00">x2</text>
</g>
</g>
</svg>