<?xml version="1.0" encoding="UTF-8" standalone="no"?>
<!DOCTYPE svg PUBLIC "-//W3C//DTD SVG 1.1//EN"
 "http://www.w3.org/Graphics/SVG/1.1/DTD/svg11.dtd">
<!-- Generated by graphviz version 10.0.1 (20240210.2158)
 -->
<!-- Pages: 1 -->
<svg width="120pt" height="221pt"
 viewBox="0.00 0.00 120.00 221.00" xmlns="http://www.w3.org/2000/svg" xmlns:xlink="http://www.w3.org/1999/xlink">
<g id="graph0" class="graph" transform="scale(1 1) rotate(0) translate(4 217)">
<polygon fill="white" stroke="none" points="-4,4 -4,-217 116,-217 116,4 -4,4"/>
<!-- x0 -->
<g id="node1" class="node">
<title>x0</title>
<ellipse fill="none" stroke="black" cx="37" cy="-18" rx="27" ry="18"/>
<text text-anchor="middle" x="37" y="-12.95" font-family="Times,serif" font-size="14.00">x0</text>
</g>
<!-- x1 -->
<g id="node2" class="node">
<title>x1</title>
<ellipse fill="none" stroke="black" cx="85" cy="-106.5" rx="27" ry="18"/>
<text text-anchor="middle" x="85" y="-101.45" font-family="Times,serif" font-size="14.00">x1</text>
</g>
<!-- x1&#45;&gt;x0 -->
<g id="edge1" class="edge">
<title>x1&#45;&gt;x0</title>
<path fill="none" stroke="black" d="M75.97,-89.23C69.07,-76.79 59.41,-59.38 51.43,-45.01"/>
<polygon fill="black" stroke="black" points="54.63,-43.57 46.72,-36.52 48.51,-46.96 54.63,-43.57"/>
<text text-anchor="middle" x="77" y="-57.2" font-family="Times,serif" font-size="14.00">0.42</text>
</g>
<!-- x2 -->
<g id="node3" class="node">
<title>x2</title>
<ellipse fill="none" stroke="black" cx="27" cy="-195" rx="27" ry="18"/>
<text text-anchor="middle" x="27" y="-189.95" font-family="Times,serif" font-size="14.00">x2</text>
</g>
<!-- x2&#45;&gt;x0 -->
<g id="edge2" class="edge">
<title>x2&#45;&gt;x0</title>
<path fill="none" stroke="black" d="M24.06,-176.77C20.93,-155.84 16.87,-119.48 20.5,-88.5 22.13,-74.54 25.55,-59.33 28.86,-46.7"/>
<polygon fill="black" stroke="black" points="32.14,-47.97 31.41,-37.4 25.39,-46.12 32.14,-47.97"/>
<text text-anchor="middle" x="35.25" y="-101.45" font-family="Times,serif" font-size="14.00">&#45;0.21</text>
</g>
<!-- x2&#45;&gt;x1 -->
<g id="edge3" class="edge">
<title>x2&#45;&gt;x1</title>
<path fill="none" stroke="black" d="M37.64,-178.13C46.14,-165.45 58.22,-147.44 68.05,-132.77"/>
<polygon fill="black" stroke="black" points="70.92,-134.78 73.59,-124.52 65.11,-130.88 70.92,-134.78"/>
<text text-anchor="middle" x="73" y="-145.7" font-family="Times,serif" font-size="14.00">0.63</text>
</g>
</g>
</svg>