<?xml version="1.0" encoding="UTF-8" standalone="no"?>
<!DOCTYPE svg PUBLIC "-//W3C//DTD SVG 1.1//EN"
 "http://www.w3.org/Graphics/SVG/1.1/DTD/svg11.dtd">
<!-- Generated by graphviz version 10.0.1 (20240210.2158)
 -->
<!-- Pages: 1 -->
<svg width="242pt" height="176pt"
 viewBox="0.00 0.00 242.01 176.47" xmlns="http://www.w3.org/2000/svg" xmlns:xlink="http://www.w3.org/1999/xlink">
<g id="graph0" class="graph" transform="scale(1 1) rotate(0) translate(4 172.47)">
<polygon fill="white" stroke="none" points="-4,4 -4,-172.47 238.01,-172.47 238.01,4 -4,4"/>
<!-- weather 
fluctuations -->
<g id="node1" class="node">
<title>weather 
fluctuations</title>
<ellipse fill="none" stroke="black" cx="128.94" cy="-139.47" rx="56.39" ry="28.99"/>
<text text-anchor="middle" x="128.94" y="-142.67" font-family="Times,serif" font-size="14.00">weather </text>
<text text-anchor="middle" x="128.94" y="-126.17" font-family="Times,serif" font-size="14.00">fluctuations</text>
</g>
<!-- wind forecast 
errors -->
<g id="node2" class="node">
<title>wind forecast 
errors</title>
<ellipse fill="none" stroke="black" cx="65.94" cy="-28.99" rx="65.94" ry="28.99"/>
<text text-anchor="middle" x="65.94" y="-32.19" font-family="Times,serif" font-size="14.00">wind forecast </text>
<text text-anchor="middle" x="65.94" y="-15.69" font-family="Times,serif" font-size="14.00">errors</text>
</g>
<!-- weather 
fluctuations&#45;&gt;wind forecast 
errors -->
<g id="edge1" class="edge">
<title>weather 
fluctuations&#45;&gt;wind forecast 
errors</title>
<path fill="none" stroke="black" d="M113.2,-111.38C105.44,-98.02 95.97,-81.7 87.54,-67.19"/>
<polygon fill="black" stroke="black" points="90.72,-65.69 82.67,-58.8 84.67,-69.21 90.72,-65.69"/>
<text text-anchor="middle" x="113.94" y="-79.18" font-family="Times,serif" font-size="14.00">1.50</text>
</g>
<!-- heating 
demand -->
<g id="node3" class="node">
<title>heating 
demand</title>
<ellipse fill="none" stroke="black" cx="191.94" cy="-28.99" rx="42.07" ry="28.99"/>
<text text-anchor="middle" x="191.94" y="-32.19" font-family="Times,serif" font-size="14.00">heating </text>
<text text-anchor="middle" x="191.94" y="-15.69" font-family="Times,serif" font-size="14.00">demand</text>
</g>
<!-- weather 
fluctuations&#45;&gt;heating 
demand -->
<g id="edge2" class="edge">
<title>weather 
fluctuations&#45;&gt;heating 
demand</title>
<path fill="none" stroke="black" d="M144.67,-111.38C152.61,-97.71 162.34,-80.95 170.91,-66.2"/>
<polygon fill="black" stroke="black" points="173.87,-68.08 175.86,-57.68 167.81,-64.57 173.87,-68.08"/>
<text text-anchor="middle" x="175.94" y="-79.18" font-family="Times,serif" font-size="14.00">0.70</text>
</g>
</g>
</svg>