<?xml version="1.0" encoding="UTF-8" standalone="no"?>
<!DOCTYPE svg PUBLIC "-//W3C//DTD SVG 1.1//EN"
 "http://www.w3.org/Graphics/SVG/1.1/DTD/svg11.dtd">
<!-- Generated by graphviz version 10.0.1 (20240210.2158)
 -->
<!-- Pages: 1 -->
<svg width="362pt" height="176pt"
 viewBox="0.00 0.00 362.47 176.47" xmlns="http://www.w3.org/2000/svg" xmlns:xlink="http://www.w3.org/1999/xlink">
<g id="graph0" class="graph" transform="scale(1 1) rotate(0) translate(4 172.47)">
<polygon fill="white" stroke="none" points="-4,4 -4,-172.47 358.47,-172.47 358.47,4 -4,4"/>
<!-- solar power 
generation (t&#45;1) -->
<g id="node1" class="node">
<title>solar power 
generation (t&#45;1)</title>
<ellipse fill="none" stroke="black" cx="71.24" cy="-139.47" rx="71.24" ry="28.99"/>
<text text-anchor="middle" x="71.24" y="-142.67" font-family="Times,serif" font-size="14.00">solar power </text>
<text text-anchor="middle" x="71.24" y="-126.17" font-family="Times,serif" font-size="14.00">generation (t&#45;1)</text>
</g>
<!-- balancing 
costs (t) -->
<g id="node3" class="node">
<title>balancing 
costs (t)</title>
<ellipse fill="none" stroke="black" cx="164.24" cy="-28.99" rx="51.09" ry="28.99"/>
<text text-anchor="middle" x="164.24" y="-32.19" font-family="Times,serif" font-size="14.00">balancing </text>
<text text-anchor="middle" x="164.24" y="-15.69" font-family="Times,serif" font-size="14.00">costs (t)</text>
</g>
<!-- solar power 
generation (t&#45;1)&#45;&gt;balancing 
costs (t) -->
<g id="edge1" class="edge">
<title>solar power 
generation (t&#45;1)&#45;&gt;balancing 
costs (t)</title>
<path fill="none" stroke="black" d="M94.23,-111.66C106.55,-97.29 121.86,-79.43 135.02,-64.08"/>
<polygon fill="black" stroke="black" points="137.64,-66.4 141.49,-56.53 132.32,-61.84 137.64,-66.4"/>
<text text-anchor="middle" x="136.24" y="-79.18" font-family="Times,serif" font-size="14.00">0.37</text>
</g>
<!-- transmission capacity 
usage (t&#45;1) -->
<g id="node2" class="node">
<title>transmission capacity 
usage (t&#45;1)</title>
<ellipse fill="none" stroke="black" cx="257.24" cy="-139.47" rx="97.23" ry="28.99"/>
<text text-anchor="middle" x="257.24" y="-142.67" font-family="Times,serif" font-size="14.00">transmission capacity </text>
<text text-anchor="middle" x="257.24" y="-126.17" font-family="Times,serif" font-size="14.00">usage (t&#45;1)</text>
</g>
<!-- transmission capacity 
usage (t&#45;1)&#45;&gt;balancing 
costs (t) -->
<g id="edge2" class="edge">
<title>transmission capacity 
usage (t&#45;1)&#45;&gt;balancing 
costs (t)</title>
<path fill="none" stroke="black" d="M233.77,-111.1C221.54,-96.83 206.46,-79.24 193.47,-64.09"/>
<polygon fill="black" stroke="black" points="196.25,-61.96 187.09,-56.64 190.94,-66.51 196.25,-61.96"/>
<text text-anchor="middle" x="228.24" y="-79.18" font-family="Times,serif" font-size="14.00">1.43</text>
</g>
</g>
</svg>