<?xml version="1.0" encoding="UTF-8" standalone="no"?>
<!DOCTYPE svg PUBLIC "-//W3C//DTD SVG 1.1//EN"
 "http://www.w3.org/Graphics/SVG/1.1/DTD/svg11.dtd">
<!-- Generated by graphviz version 10.0.1 (20240210.2158)
 -->
<!-- Pages: 1 -->
<svg width="306pt" height="277pt"
 viewBox="0.00 0.00 306.36 277.28" xmlns="http://www.w3.org/2000/svg" xmlns:xlink="http://www.w3.org/1999/xlink">
<g id="graph0" class="graph" transform="scale(1 1) rotate(0) translate(4 273.28)">
<polygon fill="white" stroke="none" points="-4,4 -4,-273.28 302.36,-273.28 302.36,4 -4,4"/>
<!-- Z -->
<g id="node1" class="node">
<title>Z</title>
<ellipse fill="none" stroke="black" cx="81.85" cy="-240.29" rx="56.92" ry="28.99"/>
<text text-anchor="middle" x="81.85" y="-243.49" font-family="Times,serif" font-size="14.00">Wind speed</text>
<text text-anchor="middle" x="81.85" y="-226.99" font-family="Times,serif" font-size="14.00">forecasts</text>
</g>
<!-- X -->
<g id="node2" class="node">
<title>X</title>
<ellipse fill="none" stroke="black" cx="81.85" cy="-134.64" rx="81.85" ry="40.66"/>
<text text-anchor="middle" x="81.85" y="-146.09" font-family="Times,serif" font-size="14.00">Predicted wind </text>
<text text-anchor="middle" x="81.85" y="-129.59" font-family="Times,serif" font-size="14.00">power production </text>
<text text-anchor="middle" x="81.85" y="-113.09" font-family="Times,serif" font-size="14.00">using the IV</text>
</g>
<!-- Z&#45;&gt;X -->
<g id="edge1" class="edge">
<title>Z&#45;&gt;X</title>
<path fill="none" stroke="black" d="M81.85,-210.97C81.85,-203.47 81.85,-195.14 81.85,-186.82"/>
<polygon fill="black" stroke="black" points="85.35,-187.1 81.85,-177.1 78.35,-187.1 85.35,-187.1"/>
</g>
<!-- Y -->
<g id="node3" class="node">
<title>Y</title>
<ellipse fill="none" stroke="black" cx="160.85" cy="-28.99" rx="53.74" ry="28.99"/>
<text text-anchor="middle" x="160.85" y="-32.19" font-family="Times,serif" font-size="14.00">Electricity </text>
<text text-anchor="middle" x="160.85" y="-15.69" font-family="Times,serif" font-size="14.00">prices</text>
</g>
<!-- X&#45;&gt;Y -->
<g id="edge2" class="edge">
<title>X&#45;&gt;Y</title>
<path fill="none" stroke="black" d="M110.37,-96.22C118.08,-86.1 126.41,-75.18 134.02,-65.18"/>
<polygon fill="black" stroke="black" points="136.59,-67.59 139.87,-57.52 131.02,-63.35 136.59,-67.59"/>
</g>
<!-- U -->
<g id="node4" class="node">
<title>U</title>
<ellipse fill="none" stroke="black" cx="239.85" cy="-134.64" rx="58.51" ry="28.99"/>
<text text-anchor="middle" x="239.85" y="-137.84" font-family="Times,serif" font-size="14.00">Unobserved</text>
<text text-anchor="middle" x="239.85" y="-121.34" font-family="Times,serif" font-size="14.00">confounders</text>
</g>
<!-- U&#45;&gt;Y -->
<g id="edge3" class="edge">
<title>U&#45;&gt;Y</title>
<path fill="none" stroke="black" d="M219.71,-107.22C210.05,-94.55 198.34,-79.19 187.92,-65.51"/>
<polygon fill="black" stroke="black" points="190.71,-63.4 181.87,-57.57 185.15,-67.65 190.71,-63.4"/>
</g>
</g>
</svg>