<?xml version="1.0" encoding="UTF-8" standalone="no"?>
<!DOCTYPE svg PUBLIC "-//W3C//DTD SVG 1.1//EN"
 "http://www.w3.org/Graphics/SVG/1.1/DTD/svg11.dtd">
<!-- Generated by graphviz version 10.0.1 (20240210.2158)
 -->
<!-- Pages: 1 -->
<svg width="310pt" height="133pt"
 viewBox="0.00 0.00 309.60 132.50" xmlns="http://www.w3.org/2000/svg" xmlns:xlink="http://www.w3.org/1999/xlink">
<g id="graph0" class="graph" transform="scale(1 1) rotate(0) translate(4 128.5)">
<polygon fill="white" stroke="none" points="-4,4 -4,-128.5 305.6,-128.5 305.6,4 -4,4"/>
<!-- temperatures -->
<g id="node1" class="node">
<title>temperatures</title>
<ellipse fill="none" stroke="black" cx="146.19" cy="-106.5" rx="59.03" ry="18"/>
<text text-anchor="middle" x="146.19" y="-101.45" font-family="Times,serif" font-size="14.00">temperatures</text>
</g>
<!-- electricity load -->
<g id="node2" class="node">
<title>electricity load</title>
<ellipse fill="none" stroke="black" cx="66.19" cy="-18" rx="66.19" ry="18"/>
<text text-anchor="middle" x="66.19" y="-12.95" font-family="Times,serif" font-size="14.00">electricity load</text>
</g>
<!-- temperatures&#45;&gt;electricity load -->
<g id="edge1" class="edge">
<title>temperatures&#45;&gt;electricity load</title>
<path fill="none" stroke="black" d="M130.77,-88.82C119.11,-76.22 102.91,-58.7 89.65,-44.36"/>
<polygon fill="black" stroke="black" points="92.23,-42 82.87,-37.03 87.09,-46.75 92.23,-42"/>
<text text-anchor="middle" x="126.19" y="-57.2" font-family="Times,serif" font-size="14.00">1.00</text>
</g>
<!-- carbon emissions -->
<g id="node3" class="node">
<title>carbon emissions</title>
<ellipse fill="none" stroke="black" cx="226.19" cy="-18" rx="75.41" ry="18"/>
<text text-anchor="middle" x="226.19" y="-12.95" font-family="Times,serif" font-size="14.00">carbon emissions</text>
</g>
<!-- temperatures&#45;&gt;carbon emissions -->
<g id="edge2" class="edge">
<title>temperatures&#45;&gt;carbon emissions</title>
<path fill="none" stroke="black" d="M161.62,-88.82C173.27,-76.22 189.48,-58.7 202.74,-44.36"/>
<polygon fill="black" stroke="black" points="205.3,-46.75 209.52,-37.03 200.16,-42 205.3,-46.75"/>
<text text-anchor="middle" x="205.19" y="-57.2" font-family="Times,serif" font-size="14.00">1.00</text>
</g>
</g>
</svg>