<?xml version="1.0" encoding="UTF-8" standalone="no"?>
<!DOCTYPE svg PUBLIC "-//W3C//DTD SVG 1.1//EN"
 "http://www.w3.org/Graphics/SVG/1.1/DTD/svg11.dtd">
<!-- Generated by graphviz version 10.0.1 (20240210.2158)
 -->
<!-- Pages: 1 -->
<svg width="240pt" height="287pt"
 viewBox="0.00 0.00 240.23 286.95" xmlns="http://www.w3.org/2000/svg" xmlns:xlink="http://www.w3.org/1999/xlink">
<g id="graph0" class="graph" transform="scale(1 1) rotate(0) translate(4 282.95)">
<polygon fill="white" stroke="none" points="-4,4 -4,-282.95 236.23,-282.95 236.23,4 -4,4"/>
<!-- solar power 
generation (t) -->
<g id="node1" class="node">
<title>solar power 
generation (t)</title>
<ellipse fill="none" stroke="black" cx="164.23" cy="-249.96" rx="63.29" ry="28.99"/>
<text text-anchor="middle" x="164.23" y="-253.16" font-family="Times,serif" font-size="14.00">solar power </text>
<text text-anchor="middle" x="164.23" y="-236.66" font-family="Times,serif" font-size="14.00">generation (t)</text>
</g>
<!-- transmission capacity 
usage (t) -->
<g id="node2" class="node">
<title>transmission capacity 
usage (t)</title>
<ellipse fill="none" stroke="black" cx="97.23" cy="-139.47" rx="97.23" ry="28.99"/>
<text text-anchor="middle" x="97.23" y="-142.67" font-family="Times,serif" font-size="14.00">transmission capacity </text>
<text text-anchor="middle" x="97.23" y="-126.17" font-family="Times,serif" font-size="14.00">usage (t)</text>
</g>
<!-- solar power 
generation (t)&#45;&gt;transmission capacity 
usage (t) -->
<g id="edge1" class="edge">
<title>solar power 
generation (t)&#45;&gt;transmission capacity 
usage (t)</title>
<path fill="none" stroke="black" d="M147.32,-221.58C139.13,-208.32 129.17,-192.2 120.3,-177.83"/>
<polygon fill="black" stroke="black" points="123.39,-176.17 115.16,-169.51 117.43,-179.85 123.39,-176.17"/>
<text text-anchor="middle" x="149.48" y="-189.67" font-family="Times,serif" font-size="14.00">&#45;0.97</text>
</g>
<!-- balancing 
costs (t) -->
<g id="node3" class="node">
<title>balancing 
costs (t)</title>
<ellipse fill="none" stroke="black" cx="163.23" cy="-28.99" rx="51.09" ry="28.99"/>
<text text-anchor="middle" x="163.23" y="-32.19" font-family="Times,serif" font-size="14.00">balancing </text>
<text text-anchor="middle" x="163.23" y="-15.69" font-family="Times,serif" font-size="14.00">costs (t)</text>
</g>
<!-- solar power 
generation (t)&#45;&gt;balancing 
costs (t) -->
<g id="edge2" class="edge">
<title>solar power 
generation (t)&#45;&gt;balancing 
costs (t)</title>
<path fill="none" stroke="black" d="M181.21,-221.79C189.64,-206.7 198.92,-187.23 203.23,-168.47 208.99,-143.35 209.12,-135.57 203.23,-110.48 199.67,-95.35 192.83,-79.81 185.79,-66.47"/>
<polygon fill="black" stroke="black" points="189.05,-65.13 181.16,-58.06 182.92,-68.51 189.05,-65.13"/>
<text text-anchor="middle" x="220.23" y="-134.42" font-family="Times,serif" font-size="14.00">1.49</text>
</g>
<!-- transmission capacity 
usage (t)&#45;&gt;balancing 
costs (t) -->
<g id="edge3" class="edge">
<title>transmission capacity 
usage (t)&#45;&gt;balancing 
costs (t)</title>
<path fill="none" stroke="black" d="M114.22,-110.54C122.42,-97.07 132.35,-80.75 141.12,-66.33"/>
<polygon fill="black" stroke="black" points="143.98,-68.37 146.18,-58 138,-64.73 143.98,-68.37"/>
<text text-anchor="middle" x="146.23" y="-79.18" font-family="Times,serif" font-size="14.00">2.05</text>
</g>
</g>
</svg>