<?xml version="1.0" encoding="UTF-8" standalone="no"?>
<!DOCTYPE svg PUBLIC "-//W3C//DTD SVG 1.1//EN"
 "http://www.w3.org/Graphics/SVG/1.1/DTD/svg11.dtd">
<!-- Generated by graphviz version 10.0.1 (20240210.2158)
 -->
<!-- Pages: 1 -->
<svg width="122pt" height="310pt"
 viewBox="0.00 0.00 122.00 309.50" xmlns="http://www.w3.org/2000/svg" xmlns:xlink="http://www.w3.org/1999/xlink">
<g id="graph0" class="graph" transform="scale(1 1) rotate(0) translate(4 305.5)">
<polygon fill="white" stroke="none" points="-4,4 -4,-305.5 118,-305.5 118,4 -4,4"/>
<!-- x0 -->
<g id="node1" class="node">
<title>x0</title>
<ellipse fill="none" stroke="black" cx="70" cy="-283.5" rx="27" ry="18"/>
<text text-anchor="middle" x="70" y="-278.45" font-family="Times,serif" font-size="14.00">x0</text>
</g>
<!-- x1 -->
<g id="node2" class="node">
<title>x1</title>
<ellipse fill="none" stroke="black" cx="27" cy="-195" rx="27" ry="18"/>
<text text-anchor="middle" x="27" y="-189.95" font-family="Times,serif" font-size="14.00">x1</text>
</g>
<!-- x0&#45;&gt;x1 -->
<g id="edge1" class="edge">
<title>x0&#45;&gt;x1</title>
<path fill="none" stroke="black" d="M61.5,-266.16C58.47,-260.29 55.05,-253.61 52,-247.5 47.97,-239.43 43.65,-230.61 39.76,-222.59"/>
<polygon fill="black" stroke="black" points="42.94,-221.13 35.44,-213.65 36.64,-224.17 42.94,-221.13"/>
<text text-anchor="middle" x="64" y="-234.2" font-family="Times,serif" font-size="14.00">1.00</text>
</g>
<!-- x2 -->
<g id="node3" class="node">
<title>x2</title>
<ellipse fill="none" stroke="black" cx="87" cy="-106.5" rx="27" ry="18"/>
<text text-anchor="middle" x="87" y="-101.45" font-family="Times,serif" font-size="14.00">x2</text>
</g>
<!-- x0&#45;&gt;x2 -->
<g id="edge2" class="edge">
<title>x0&#45;&gt;x2</title>
<path fill="none" stroke="black" d="M73.24,-265.46C74.24,-259.76 75.27,-253.37 76,-247.5 80.78,-209.14 83.86,-164.6 85.51,-136.25"/>
<polygon fill="black" stroke="black" points="89,-136.48 86.07,-126.3 82.01,-136.09 89,-136.48"/>
<text text-anchor="middle" x="94" y="-189.95" font-family="Times,serif" font-size="14.00">1.00</text>
</g>
<!-- x1&#45;&gt;x2 -->
<g id="edge3" class="edge">
<title>x1&#45;&gt;x2</title>
<path fill="none" stroke="black" d="M33.36,-177.45C37.79,-166.95 44.28,-153.35 52,-142.5 55.25,-137.93 59.13,-133.41 63.09,-129.22"/>
<polygon fill="black" stroke="black" points="65.5,-131.76 70.11,-122.22 60.56,-126.8 65.5,-131.76"/>
<text text-anchor="middle" x="64" y="-145.7" font-family="Times,serif" font-size="14.00">1.00</text>
</g>
<!-- x3 -->
<g id="node4" class="node">
<title>x3</title>
<ellipse fill="none" stroke="black" cx="34" cy="-18" rx="27" ry="18"/>
<text text-anchor="middle" x="34" y="-12.95" font-family="Times,serif" font-size="14.00">x3</text>
</g>
<!-- x1&#45;&gt;x3 -->
<g id="edge4" class="edge">
<title>x1&#45;&gt;x3</title>
<path fill="none" stroke="black" d="M26.47,-176.81C25.95,-155.92 25.44,-119.6 27,-88.5 27.68,-75.01 29.09,-60.1 30.47,-47.56"/>
<polygon fill="black" stroke="black" points="33.92,-48.23 31.59,-37.89 26.96,-47.42 33.92,-48.23"/>
<text text-anchor="middle" x="39" y="-101.45" font-family="Times,serif" font-size="14.00">1.00</text>
</g>
<!-- x2&#45;&gt;x3 -->
<g id="edge5" class="edge">
<title>x2&#45;&gt;x3</title>
<path fill="none" stroke="black" d="M77.28,-89.63C69.56,-77.03 58.61,-59.16 49.65,-44.55"/>
<polygon fill="black" stroke="black" points="52.84,-43.05 44.63,-36.35 46.87,-46.7 52.84,-43.05"/>
<text text-anchor="middle" x="77" y="-57.2" font-family="Times,serif" font-size="14.00">1.00</text>
</g>
</g>
</svg>