<?xml version="1.0" encoding="UTF-8" standalone="no"?>
<!DOCTYPE svg PUBLIC "-//W3C//DTD SVG 1.1//EN"
 "http://www.w3.org/Graphics/SVG/1.1/DTD/svg11.dtd">
<!-- Generated by graphviz version 10.0.1 (20240210.2158)
 -->
<!-- Pages: 1 -->
<svg width="259pt" height="310pt"
 viewBox="0.00 0.00 259.02 309.50" xmlns="http://www.w3.org/2000/svg" xmlns:xlink="http://www.w3.org/1999/xlink">
<g id="graph0" class="graph" transform="scale(1 1) rotate(0) translate(4 305.5)">
<polygon fill="white" stroke="none" points="-4,4 -4,-305.5 255.02,-305.5 255.02,4 -4,4"/>
<!-- x0(t) -->
<g id="node1" class="node">
<title>x0(t)</title>
<ellipse fill="none" stroke="black" cx="123.51" cy="-195" rx="28.83" ry="18"/>
<text text-anchor="middle" x="123.51" y="-189.95" font-family="Times,serif" font-size="14.00">x0(t)</text>
</g>
<!-- x1(t) -->
<g id="node2" class="node">
<title>x1(t)</title>
<ellipse fill="none" stroke="black" cx="62.51" cy="-106.5" rx="28.83" ry="18"/>
<text text-anchor="middle" x="62.51" y="-101.45" font-family="Times,serif" font-size="14.00">x1(t)</text>
</g>
<!-- x0(t)&#45;&gt;x1(t) -->
<g id="edge2" class="edge">
<title>x0(t)&#45;&gt;x1(t)</title>
<path fill="none" stroke="black" d="M107.59,-179.52C101.51,-173.52 94.78,-166.27 89.51,-159 83.99,-151.38 78.91,-142.49 74.69,-134.26"/>
<polygon fill="black" stroke="black" points="77.86,-132.78 70.32,-125.34 71.57,-135.86 77.86,-132.78"/>
<text text-anchor="middle" x="101.51" y="-145.7" font-family="Times,serif" font-size="14.00">1.94</text>
</g>
<!-- x2(t) -->
<g id="node3" class="node">
<title>x2(t)</title>
<ellipse fill="none" stroke="black" cx="94.51" cy="-18" rx="28.83" ry="18"/>
<text text-anchor="middle" x="94.51" y="-12.95" font-family="Times,serif" font-size="14.00">x2(t)</text>
</g>
<!-- x0(t)&#45;&gt;x2(t) -->
<g id="edge4" class="edge">
<title>x0(t)&#45;&gt;x2(t)</title>
<path fill="none" stroke="black" d="M123.18,-176.93C122.33,-150.3 119.3,-97.41 108.51,-54 107.89,-51.52 107.14,-48.99 106.31,-46.47"/>
<polygon fill="black" stroke="black" points="109.62,-45.34 102.83,-37.2 103.06,-47.79 109.62,-45.34"/>
<text text-anchor="middle" x="133.76" y="-101.45" font-family="Times,serif" font-size="14.00">&#45;1.12</text>
</g>
<!-- x1(t)&#45;&gt;x2(t) -->
<g id="edge5" class="edge">
<title>x1(t)&#45;&gt;x2(t)</title>
<path fill="none" stroke="black" d="M68.68,-88.82C73.12,-76.81 79.21,-60.34 84.37,-46.41"/>
<polygon fill="black" stroke="black" points="87.54,-47.93 87.72,-37.34 80.97,-45.51 87.54,-47.93"/>
<text text-anchor="middle" x="92.51" y="-57.2" font-family="Times,serif" font-size="14.00">0.60</text>
</g>
<!-- x0(t&#45;1) -->
<g id="node4" class="node">
<title>x0(t&#45;1)</title>
<ellipse fill="none" stroke="black" cx="123.51" cy="-283.5" rx="36.51" ry="18"/>
<text text-anchor="middle" x="123.51" y="-278.45" font-family="Times,serif" font-size="14.00">x0(t&#45;1)</text>
</g>
<!-- x0(t&#45;1)&#45;&gt;x0(t) -->
<g id="edge1" class="edge">
<title>x0(t&#45;1)&#45;&gt;x0(t)</title>
<path fill="none" stroke="black" d="M123.51,-265.41C123.51,-253.76 123.51,-238.05 123.51,-224.52"/>
<polygon fill="black" stroke="black" points="127.01,-224.86 123.51,-214.86 120.01,-224.86 127.01,-224.86"/>
<text text-anchor="middle" x="135.51" y="-234.2" font-family="Times,serif" font-size="14.00">0.68</text>
</g>
<!-- x1(t&#45;1) -->
<g id="node5" class="node">
<title>x1(t&#45;1)</title>
<ellipse fill="none" stroke="black" cx="36.51" cy="-195" rx="36.51" ry="18"/>
<text text-anchor="middle" x="36.51" y="-189.95" font-family="Times,serif" font-size="14.00">x1(t&#45;1)</text>
</g>
<!-- x1(t&#45;1)&#45;&gt;x1(t) -->
<g id="edge3" class="edge">
<title>x1(t&#45;1)&#45;&gt;x1(t)</title>
<path fill="none" stroke="black" d="M34.58,-176.88C34.02,-166.65 34.35,-153.54 38.01,-142.5 39.18,-138.98 40.82,-135.5 42.71,-132.18"/>
<polygon fill="black" stroke="black" points="45.48,-134.34 48.07,-124.07 39.64,-130.49 45.48,-134.34"/>
<text text-anchor="middle" x="52.76" y="-145.7" font-family="Times,serif" font-size="14.00">&#45;0.56</text>
</g>
<!-- x2(t&#45;1) -->
<g id="node6" class="node">
<title>x2(t&#45;1)</title>
<ellipse fill="none" stroke="black" cx="214.51" cy="-283.5" rx="36.51" ry="18"/>
<text text-anchor="middle" x="214.51" y="-278.45" font-family="Times,serif" font-size="14.00">x2(t&#45;1)</text>
</g>
</g>
</svg>