<?xml version="1.0" encoding="UTF-8" standalone="no"?>
<!DOCTYPE svg PUBLIC "-//W3C//DTD SVG 1.1//EN"
 "http://www.w3.org/Graphics/SVG/1.1/DTD/svg11.dtd">
<!-- Generated by graphviz version 10.0.1 (20240210.2158)
 -->
<!-- Pages: 1 -->
<svg width="152pt" height="221pt"
 viewBox="0.00 0.00 151.65 221.00" xmlns="http://www.w3.org/2000/svg" xmlns:xlink="http://www.w3.org/1999/xlink">
<g id="graph0" class="graph" transform="scale(1 1) rotate(0) translate(4 217)">
<polygon fill="white" stroke="none" points="-4,4 -4,-217 147.65,-217 147.65,4 -4,4"/>
<!-- global warming -->
<g id="node1" class="node">
<title>global warming</title>
<ellipse fill="none" stroke="black" cx="71.82" cy="-195" rx="69.78" ry="18"/>
<text text-anchor="middle" x="71.82" y="-189.95" font-family="Times,serif" font-size="14.00">global warming</text>
</g>
<!-- ice caps melting -->
<g id="node2" class="node">
<title>ice caps melting</title>
<ellipse fill="none" stroke="black" cx="71.82" cy="-106.5" rx="71.82" ry="18"/>
<text text-anchor="middle" x="71.82" y="-101.45" font-family="Times,serif" font-size="14.00">ice caps melting</text>
</g>
<!-- global warming&#45;&gt;ice caps melting -->
<g id="edge1" class="edge">
<title>global warming&#45;&gt;ice caps melting</title>
<path fill="none" stroke="black" d="M71.82,-176.91C71.82,-165.26 71.82,-149.55 71.82,-136.02"/>
<polygon fill="black" stroke="black" points="75.32,-136.36 71.82,-126.36 68.32,-136.36 75.32,-136.36"/>
<text text-anchor="middle" x="83.82" y="-145.7" font-family="Times,serif" font-size="14.00">1.00</text>
</g>
<!-- sea levels rising -->
<g id="node3" class="node">
<title>sea levels rising</title>
<ellipse fill="none" stroke="black" cx="71.82" cy="-18" rx="70.29" ry="18"/>
<text text-anchor="middle" x="71.82" y="-12.95" font-family="Times,serif" font-size="14.00">sea levels rising</text>
</g>
<!-- ice caps melting&#45;&gt;sea levels rising -->
<g id="edge2" class="edge">
<title>ice caps melting&#45;&gt;sea levels rising</title>
<path fill="none" stroke="black" d="M71.82,-88.41C71.82,-76.76 71.82,-61.05 71.82,-47.52"/>
<polygon fill="black" stroke="black" points="75.32,-47.86 71.82,-37.86 68.32,-47.86 75.32,-47.86"/>
<text text-anchor="middle" x="83.82" y="-57.2" font-family="Times,serif" font-size="14.00">1.00</text>
</g>
</g>
</svg>