<?xml version="1.0" encoding="UTF-8" standalone="no"?>
<!DOCTYPE svg PUBLIC "-//W3C//DTD SVG 1.1//EN"
 "http://www.w3.org/Graphics/SVG/1.1/DTD/svg11.dtd">
<!-- Generated by graphviz version 10.0.1 (20240210.2158)
 -->
<!-- Pages: 1 -->
<svg width="223pt" height="133pt"
 viewBox="0.00 0.00 222.50 132.50" xmlns="http://www.w3.org/2000/svg" xmlns:xlink="http://www.w3.org/1999/xlink">
<g id="graph0" class="graph" transform="scale(1 1) rotate(0) translate(4 128.5)">
<polygon fill="white" stroke="none" points="-4,4 -4,-128.5 218.5,-128.5 218.5,4 -4,4"/>
<!-- x0 -->
<g id="node1" class="node">
<title>x0</title>
<ellipse fill="none" stroke="black" cx="27" cy="-106.5" rx="27" ry="18"/>
<text text-anchor="middle" x="27" y="-101.45" font-family="Times,serif" font-size="14.00">x0</text>
</g>
<!-- x0&#45;&gt;x0 -->
<g id="edge1" class="edge">
<title>x0&#45;&gt;x0</title>
<path fill="none" stroke="black" d="M51.53,-114.67C62.51,-115.45 72,-112.72 72,-106.5 72,-102.61 68.29,-100.09 62.83,-98.93"/>
<polygon fill="black" stroke="black" points="63.22,-95.45 53.04,-98.41 62.84,-102.44 63.22,-95.45"/>
<text text-anchor="middle" x="84" y="-101.45" font-family="Times,serif" font-size="14.00">0.68</text>
</g>
<!-- x1 -->
<g id="node2" class="node">
<title>x1</title>
<ellipse fill="none" stroke="black" cx="141" cy="-106.5" rx="27" ry="18"/>
<text text-anchor="middle" x="141" y="-101.45" font-family="Times,serif" font-size="14.00">x1</text>
</g>
<!-- x1&#45;&gt;x1 -->
<g id="edge2" class="edge">
<title>x1&#45;&gt;x1</title>
<path fill="none" stroke="black" d="M165.53,-114.67C176.51,-115.45 186,-112.72 186,-106.5 186,-102.61 182.29,-100.09 176.83,-98.93"/>
<polygon fill="black" stroke="black" points="177.22,-95.45 167.04,-98.41 176.84,-102.44 177.22,-95.45"/>
<text text-anchor="middle" x="200.25" y="-101.45" font-family="Times,serif" font-size="14.00">&#45;0.42</text>
</g>
<!-- x2 -->
<g id="node3" class="node">
<title>x2</title>
<ellipse fill="none" stroke="black" cx="141" cy="-18" rx="27" ry="18"/>
<text text-anchor="middle" x="141" y="-12.95" font-family="Times,serif" font-size="14.00">x2</text>
</g>
<!-- x1&#45;&gt;x2 -->
<g id="edge3" class="edge">
<title>x1&#45;&gt;x2</title>
<path fill="none" stroke="black" d="M141,-88.41C141,-76.76 141,-61.05 141,-47.52"/>
<polygon fill="black" stroke="black" points="144.5,-47.86 141,-37.86 137.5,-47.86 144.5,-47.86"/>
<text text-anchor="middle" x="155.25" y="-57.2" font-family="Times,serif" font-size="14.00">&#45;0.24</text>
</g>
</g>
</svg>