<?xml version="1.0" encoding="UTF-8" standalone="no"?>
<!DOCTYPE svg PUBLIC "-//W3C//DTD SVG 1.1//EN"
 "http://www.w3.org/Graphics/SVG/1.1/DTD/svg11.dtd">
<!-- Generated by graphviz version 10.0.1 (20240210.2158)
 -->
<!-- Pages: 1 -->
<svg width="140pt" height="287pt"
 viewBox="0.00 0.00 139.88 286.95" xmlns="http://www.w3.org/2000/svg" xmlns:xlink="http://www.w3.org/1999/xlink">
<g id="graph0" class="graph" transform="scale(1 1) rotate(0) translate(4 282.95)">
<polygon fill="white" stroke="none" points="-4,4 -4,-282.95 135.88,-282.95 135.88,4 -4,4"/>
<!-- weather 
fluctuations -->
<g id="node1" class="node">
<title>weather 
fluctuations</title>
<ellipse fill="none" stroke="black" cx="65.94" cy="-249.96" rx="56.39" ry="28.99"/>
<text text-anchor="middle" x="65.94" y="-253.16" font-family="Times,serif" font-size="14.00">weather </text>
<text text-anchor="middle" x="65.94" y="-236.66" font-family="Times,serif" font-size="14.00">fluctuations</text>
</g>
<!-- wind forecast 
errors -->
<g id="node2" class="node">
<title>wind forecast 
errors</title>
<ellipse fill="none" stroke="black" cx="65.94" cy="-139.47" rx="65.94" ry="28.99"/>
<text text-anchor="middle" x="65.94" y="-142.67" font-family="Times,serif" font-size="14.00">wind forecast </text>
<text text-anchor="middle" x="65.94" y="-126.17" font-family="Times,serif" font-size="14.00">errors</text>
</g>
<!-- weather 
fluctuations&#45;&gt;wind forecast 
errors -->
<g id="edge1" class="edge">
<title>weather 
fluctuations&#45;&gt;wind forecast 
errors</title>
<path fill="none" stroke="black" d="M65.94,-220.74C65.94,-208.4 65.94,-193.72 65.94,-180.3"/>
<polygon fill="black" stroke="black" points="69.44,-180.44 65.94,-170.44 62.44,-180.44 69.44,-180.44"/>
<text text-anchor="middle" x="77.94" y="-189.67" font-family="Times,serif" font-size="14.00">1.00</text>
</g>
<!-- balancing 
costs -->
<g id="node3" class="node">
<title>balancing 
costs</title>
<ellipse fill="none" stroke="black" cx="65.94" cy="-28.99" rx="51.09" ry="28.99"/>
<text text-anchor="middle" x="65.94" y="-32.19" font-family="Times,serif" font-size="14.00">balancing </text>
<text text-anchor="middle" x="65.94" y="-15.69" font-family="Times,serif" font-size="14.00">costs</text>
</g>
<!-- wind forecast 
errors&#45;&gt;balancing 
costs -->
<g id="edge2" class="edge">
<title>wind forecast 
errors&#45;&gt;balancing 
costs</title>
<path fill="none" stroke="black" d="M65.94,-110.25C65.94,-97.92 65.94,-83.24 65.94,-69.82"/>
<polygon fill="black" stroke="black" points="69.44,-69.96 65.94,-59.96 62.44,-69.96 69.44,-69.96"/>
<text text-anchor="middle" x="77.94" y="-79.18" font-family="Times,serif" font-size="14.00">1.00</text>
</g>
</g>
</svg>