<?xml version="1.0" encoding="UTF-8" standalone="no"?>
<!DOCTYPE svg PUBLIC "-//W3C//DTD SVG 1.1//EN"
 "http://www.w3.org/Graphics/SVG/1.1/DTD/svg11.dtd">
<!-- Generated by graphviz version 10.0.1 (20240210.2158)
 -->
<!-- Pages: 1 -->
<svg width="223pt" height="133pt"
 viewBox="0.00 0.00 223.00 132.50" xmlns="http://www.w3.org/2000/svg" xmlns:xlink="http://www.w3.org/1999/xlink">
<g id="graph0" class="graph" transform="scale(1 1) rotate(0) translate(4 128.5)">
<polygon fill="white" stroke="none" points="-4,4 -4,-128.5 219,-128.5 219,4 -4,4"/>
<!-- x0 -->
<g id="node1" class="node">
<title>x0</title>
<ellipse fill="none" stroke="black" cx="86" cy="-106.5" rx="27" ry="18"/>
<text text-anchor="middle" x="86" y="-101.45" font-family="Times,serif" font-size="14.00">x0</text>
</g>
<!-- x0&#45;&gt;x0 -->
<g id="edge1" class="edge">
<title>x0&#45;&gt;x0</title>
<path fill="none" stroke="black" d="M110.53,-114.67C121.51,-115.45 131,-112.72 131,-106.5 131,-102.61 127.29,-100.09 121.83,-98.93"/>
<polygon fill="black" stroke="black" points="122.22,-95.45 112.04,-98.41 121.84,-102.44 122.22,-95.45"/>
<text text-anchor="middle" x="143" y="-101.45" font-family="Times,serif" font-size="14.00">0.70</text>
</g>
<!-- x1 -->
<g id="node2" class="node">
<title>x1</title>
<ellipse fill="none" stroke="black" cx="27" cy="-18" rx="27" ry="18"/>
<text text-anchor="middle" x="27" y="-12.95" font-family="Times,serif" font-size="14.00">x1</text>
</g>
<!-- x0&#45;&gt;x1 -->
<g id="edge2" class="edge">
<title>x0&#45;&gt;x1</title>
<path fill="none" stroke="black" d="M75.18,-89.63C66.53,-76.95 54.24,-58.94 44.24,-44.27"/>
<polygon fill="black" stroke="black" points="47.13,-42.3 38.61,-36.02 41.35,-46.25 47.13,-42.3"/>
<text text-anchor="middle" x="74" y="-57.2" font-family="Times,serif" font-size="14.00">0.20</text>
</g>
<!-- x2 -->
<g id="node3" class="node">
<title>x2</title>
<ellipse fill="none" stroke="black" cx="146" cy="-18" rx="27" ry="18"/>
<text text-anchor="middle" x="146" y="-12.95" font-family="Times,serif" font-size="14.00">x2</text>
</g>
<!-- x0&#45;&gt;x2 -->
<g id="edge4" class="edge">
<title>x0&#45;&gt;x2</title>
<path fill="none" stroke="black" d="M97,-89.63C105.89,-76.83 118.54,-58.59 128.76,-43.85"/>
<polygon fill="black" stroke="black" points="131.38,-46.22 134.2,-36.01 125.63,-42.23 131.38,-46.22"/>
<text text-anchor="middle" x="133" y="-57.2" font-family="Times,serif" font-size="14.00">0.10</text>
</g>
<!-- x1&#45;&gt;x1 -->
<g id="edge3" class="edge">
<title>x1&#45;&gt;x1</title>
<path fill="none" stroke="black" d="M51.53,-26.17C62.51,-26.95 72,-24.22 72,-18 72,-14.11 68.29,-11.59 62.83,-10.43"/>
<polygon fill="black" stroke="black" points="63.22,-6.95 53.04,-9.91 62.84,-13.94 63.22,-6.95"/>
<text text-anchor="middle" x="86.25" y="-12.95" font-family="Times,serif" font-size="14.00">&#45;0.60</text>
</g>
<!-- x2&#45;&gt;x2 -->
<g id="edge5" class="edge">
<title>x2&#45;&gt;x2</title>
<path fill="none" stroke="black" d="M170.53,-26.17C181.51,-26.95 191,-24.22 191,-18 191,-14.11 187.29,-11.59 181.83,-10.43"/>
<polygon fill="black" stroke="black" points="182.22,-6.95 172.04,-9.91 181.84,-13.94 182.22,-6.95"/>
<text text-anchor="middle" x="203" y="-12.95" font-family="Times,serif" font-size="14.00">0.10</text>
</g>
</g>
</svg>