<?xml version="1.0" encoding="UTF-8" standalone="no"?>
<!DOCTYPE svg PUBLIC "-//W3C//DTD SVG 1.1//EN"
 "http://www.w3.org/Graphics/SVG/1.1/DTD/svg11.dtd">
<!-- Generated by graphviz version 10.0.1 (20240210.2158)
 -->
<!-- Pages: 1 -->
<svg width="290pt" height="310pt"
 viewBox="0.00 0.00 290.02 309.50" xmlns="http://www.w3.org/2000/svg" xmlns:xlink="http://www.w3.org/1999/xlink">
<g id="graph0" class="graph" transform="scale(1 1) rotate(0) translate(4 305.5)">
<polygon fill="white" stroke="none" points="-4,4 -4,-305.5 286.02,-305.5 286.02,4 -4,4"/>
<!-- x0(t) -->
<g id="node1" class="node">
<title>x0(t)</title>
<ellipse fill="none" stroke="black" cx="111.51" cy="-195" rx="28.83" ry="18"/>
<text text-anchor="middle" x="111.51" y="-189.95" font-family="Times,serif" font-size="14.00">x0(t)</text>
</g>
<!-- x1(t) -->
<g id="node2" class="node">
<title>x1(t)</title>
<ellipse fill="none" stroke="black" cx="136.51" cy="-106.5" rx="28.83" ry="18"/>
<text text-anchor="middle" x="136.51" y="-101.45" font-family="Times,serif" font-size="14.00">x1(t)</text>
</g>
<!-- x0(t)&#45;&gt;x1(t) -->
<g id="edge3" class="edge">
<title>x0(t)&#45;&gt;x1(t)</title>
<path fill="none" stroke="black" d="M116.45,-176.91C119.87,-165.06 124.51,-149.02 128.46,-135.34"/>
<polygon fill="black" stroke="black" points="131.75,-136.59 131.16,-126.01 125.02,-134.64 131.75,-136.59"/>
<text text-anchor="middle" x="137.51" y="-145.7" font-family="Times,serif" font-size="14.00">2.13</text>
</g>
<!-- x2(t) -->
<g id="node3" class="node">
<title>x2(t)</title>
<ellipse fill="none" stroke="black" cx="61.51" cy="-18" rx="28.83" ry="18"/>
<text text-anchor="middle" x="61.51" y="-12.95" font-family="Times,serif" font-size="14.00">x2(t)</text>
</g>
<!-- x0(t)&#45;&gt;x2(t) -->
<g id="edge6" class="edge">
<title>x0(t)&#45;&gt;x2(t)</title>
<path fill="none" stroke="black" d="M99.36,-178.45C89.57,-164.99 76.43,-144.58 70.01,-124.5 61.98,-99.36 60.28,-69.23 60.34,-47.61"/>
<polygon fill="black" stroke="black" points="63.84,-47.84 60.51,-37.78 56.84,-47.72 63.84,-47.84"/>
<text text-anchor="middle" x="84.76" y="-101.45" font-family="Times,serif" font-size="14.00">&#45;0.71</text>
</g>
<!-- x1(t)&#45;&gt;x2(t) -->
<g id="edge7" class="edge">
<title>x1(t)&#45;&gt;x2(t)</title>
<path fill="none" stroke="black" d="M123.44,-90.43C112.01,-77.24 95.2,-57.86 81.98,-42.61"/>
<polygon fill="black" stroke="black" points="84.86,-40.59 75.67,-35.33 79.57,-45.18 84.86,-40.59"/>
<text text-anchor="middle" x="117.51" y="-57.2" font-family="Times,serif" font-size="14.00">0.35</text>
</g>
<!-- x0(t&#45;1) -->
<g id="node4" class="node">
<title>x0(t&#45;1)</title>
<ellipse fill="none" stroke="black" cx="154.51" cy="-283.5" rx="36.51" ry="18"/>
<text text-anchor="middle" x="154.51" y="-278.45" font-family="Times,serif" font-size="14.00">x0(t&#45;1)</text>
</g>
<!-- x0(t&#45;1)&#45;&gt;x0(t) -->
<g id="edge1" class="edge">
<title>x0(t&#45;1)&#45;&gt;x0(t)</title>
<path fill="none" stroke="black" d="M146.22,-265.82C140.15,-253.62 131.79,-236.8 124.8,-222.73"/>
<polygon fill="black" stroke="black" points="128.03,-221.38 120.45,-213.98 121.77,-224.49 128.03,-221.38"/>
<text text-anchor="middle" x="148.51" y="-234.2" font-family="Times,serif" font-size="14.00">0.09</text>
</g>
<!-- x0(t&#45;1)&#45;&gt;x1(t) -->
<g id="edge4" class="edge">
<title>x0(t&#45;1)&#45;&gt;x1(t)</title>
<path fill="none" stroke="black" d="M159.28,-265.19C160.6,-259.59 161.85,-253.32 162.51,-247.5 166.27,-214.14 161.06,-169.09 153.51,-142.5 152.72,-139.71 151.71,-136.88 150.59,-134.09"/>
<polygon fill="black" stroke="black" points="153.84,-132.78 146.5,-125.14 147.48,-135.69 153.84,-132.78"/>
<text text-anchor="middle" x="175.51" y="-189.95" font-family="Times,serif" font-size="14.00">1.49</text>
</g>
<!-- x1(t&#45;1) -->
<g id="node5" class="node">
<title>x1(t&#45;1)</title>
<ellipse fill="none" stroke="black" cx="36.51" cy="-283.5" rx="36.51" ry="18"/>
<text text-anchor="middle" x="36.51" y="-278.45" font-family="Times,serif" font-size="14.00">x1(t&#45;1)</text>
</g>
<!-- x1(t&#45;1)&#45;&gt;x0(t) -->
<g id="edge2" class="edge">
<title>x1(t&#45;1)&#45;&gt;x0(t)</title>
<path fill="none" stroke="black" d="M50.27,-266.63C61.61,-253.55 77.89,-234.78 90.81,-219.88"/>
<polygon fill="black" stroke="black" points="93.44,-222.18 97.35,-212.33 88.16,-217.59 93.44,-222.18"/>
<text text-anchor="middle" x="93.51" y="-234.2" font-family="Times,serif" font-size="14.00">0.21</text>
</g>
<!-- x1(t&#45;1)&#45;&gt;x1(t) -->
<g id="edge5" class="edge">
<title>x1(t&#45;1)&#45;&gt;x1(t)</title>
<path fill="none" stroke="black" d="M33.8,-265.22C31.23,-243.26 29.75,-204.89 45.01,-177 52.29,-163.7 83.2,-141.68 107.1,-125.99"/>
<polygon fill="black" stroke="black" points="108.74,-129.1 115.23,-120.73 104.94,-123.22 108.74,-129.1"/>
<text text-anchor="middle" x="59.76" y="-189.95" font-family="Times,serif" font-size="14.00">&#45;0.55</text>
</g>
<!-- x1(t&#45;1)&#45;&gt;x2(t) -->
<g id="edge8" class="edge">
<title>x1(t&#45;1)&#45;&gt;x2(t)</title>
<path fill="none" stroke="black" d="M31.74,-265.19C30.42,-259.59 29.17,-253.32 28.51,-247.5 27.69,-240.21 28.41,-238.33 28.51,-231 29.06,-191.65 25.71,-181.49 31.01,-142.5 35.56,-109.06 45.54,-71.54 52.85,-46.73"/>
<polygon fill="black" stroke="black" points="56.13,-47.99 55.66,-37.41 49.42,-45.97 56.13,-47.99"/>
<text text-anchor="middle" x="45.76" y="-145.7" font-family="Times,serif" font-size="14.00">&#45;0.25</text>
</g>
<!-- x2(t&#45;1) -->
<g id="node6" class="node">
<title>x2(t&#45;1)</title>
<ellipse fill="none" stroke="black" cx="245.51" cy="-283.5" rx="36.51" ry="18"/>
<text text-anchor="middle" x="245.51" y="-278.45" font-family="Times,serif" font-size="14.00">x2(t&#45;1)</text>
</g>
</g>
</svg>