<?xml version="1.0" encoding="UTF-8" standalone="no"?>
<!DOCTYPE svg PUBLIC "-//W3C//DTD SVG 1.1//EN"
 "http://www.w3.org/Graphics/SVG/1.1/DTD/svg11.dtd">
<!-- Generated by graphviz version 10.0.1 (20240210.2158)
 -->
<!-- Pages: 1 -->
<svg width="521pt" height="397pt"
 viewBox="0.00 0.00 521.33 397.43" xmlns="http://www.w3.org/2000/svg" xmlns:xlink="http://www.w3.org/1999/xlink">
<g id="graph0" class="graph" transform="scale(1 1) rotate(0) translate(4 393.43)">
<polygon fill="white" stroke="none" points="-4,4 -4,-393.43 517.33,-393.43 517.33,4 -4,4"/>
<!-- solar power 
generation (t) -->
<g id="node1" class="node">
<title>solar power 
generation (t)</title>
<ellipse fill="none" stroke="black" cx="296.24" cy="-249.96" rx="63.29" ry="28.99"/>
<text text-anchor="middle" x="296.24" y="-253.16" font-family="Times,serif" font-size="14.00">solar power </text>
<text text-anchor="middle" x="296.24" y="-236.66" font-family="Times,serif" font-size="14.00">generation (t)</text>
</g>
<!-- transmission capacity 
usage (t) -->
<g id="node2" class="node">
<title>transmission capacity 
usage (t)</title>
<ellipse fill="none" stroke="black" cx="194.24" cy="-139.47" rx="97.23" ry="28.99"/>
<text text-anchor="middle" x="194.24" y="-142.67" font-family="Times,serif" font-size="14.00">transmission capacity </text>
<text text-anchor="middle" x="194.24" y="-126.17" font-family="Times,serif" font-size="14.00">usage (t)</text>
</g>
<!-- solar power 
generation (t)&#45;&gt;transmission capacity 
usage (t) -->
<g id="edge2" class="edge">
<title>solar power 
generation (t)&#45;&gt;transmission capacity 
usage (t)</title>
<path fill="none" stroke="black" d="M271.81,-222.97C258.58,-208.9 242.05,-191.32 227.64,-176"/>
<polygon fill="black" stroke="black" points="230.33,-173.75 220.93,-168.86 225.23,-178.55 230.33,-173.75"/>
<text text-anchor="middle" x="265.49" y="-189.67" font-family="Times,serif" font-size="14.00">&#45;0.99</text>
</g>
<!-- balancing 
costs (t) -->
<g id="node3" class="node">
<title>balancing 
costs (t)</title>
<ellipse fill="none" stroke="black" cx="293.24" cy="-28.99" rx="51.09" ry="28.99"/>
<text text-anchor="middle" x="293.24" y="-32.19" font-family="Times,serif" font-size="14.00">balancing </text>
<text text-anchor="middle" x="293.24" y="-15.69" font-family="Times,serif" font-size="14.00">costs (t)</text>
</g>
<!-- solar power 
generation (t)&#45;&gt;balancing 
costs (t) -->
<g id="edge5" class="edge">
<title>solar power 
generation (t)&#45;&gt;balancing 
costs (t)</title>
<path fill="none" stroke="black" d="M298.26,-220.57C299.97,-192.57 301.89,-148.57 300.24,-110.48 299.66,-97.18 298.55,-82.67 297.38,-69.68"/>
<polygon fill="black" stroke="black" points="300.87,-69.4 296.45,-59.77 293.9,-70.05 300.87,-69.4"/>
<text text-anchor="middle" x="312.24" y="-134.42" font-family="Times,serif" font-size="14.00">1.44</text>
</g>
<!-- transmission capacity 
usage (t)&#45;&gt;balancing 
costs (t) -->
<g id="edge6" class="edge">
<title>transmission capacity 
usage (t)&#45;&gt;balancing 
costs (t)</title>
<path fill="none" stroke="black" d="M219.22,-111.1C232.47,-96.59 248.84,-78.64 262.82,-63.33"/>
<polygon fill="black" stroke="black" points="265.13,-65.99 269.28,-56.24 259.96,-61.27 265.13,-65.99"/>
<text text-anchor="middle" x="261.24" y="-79.18" font-family="Times,serif" font-size="14.00">1.94</text>
</g>
<!-- solar power 
generation (t&#45;1) -->
<g id="node4" class="node">
<title>solar power 
generation (t&#45;1)</title>
<ellipse fill="none" stroke="black" cx="71.24" cy="-249.96" rx="71.24" ry="28.99"/>
<text text-anchor="middle" x="71.24" y="-253.16" font-family="Times,serif" font-size="14.00">solar power </text>
<text text-anchor="middle" x="71.24" y="-236.66" font-family="Times,serif" font-size="14.00">generation (t&#45;1)</text>
</g>
<!-- solar power 
generation (t&#45;1)&#45;&gt;transmission capacity 
usage (t) -->
<g id="edge3" class="edge">
<title>solar power 
generation (t&#45;1)&#45;&gt;transmission capacity 
usage (t)</title>
<path fill="none" stroke="black" d="M100.39,-223.25C116.87,-208.71 137.69,-190.35 155.53,-174.62"/>
<polygon fill="black" stroke="black" points="157.7,-177.37 162.88,-168.13 153.07,-172.12 157.7,-177.37"/>
<text text-anchor="middle" x="154.49" y="-189.67" font-family="Times,serif" font-size="14.00">&#45;0.16</text>
</g>
<!-- solar power 
generation (t&#45;1)&#45;&gt;balancing 
costs (t) -->
<g id="edge7" class="edge">
<title>solar power 
generation (t&#45;1)&#45;&gt;balancing 
costs (t)</title>
<path fill="none" stroke="black" d="M60.42,-220.92C50.77,-190.76 41.35,-142.79 64.24,-110.48 101.77,-57.51 177.05,-39.15 231.06,-32.92"/>
<polygon fill="black" stroke="black" points="231.15,-36.43 240.74,-31.92 230.43,-29.46 231.15,-36.43"/>
<text text-anchor="middle" x="76.24" y="-134.42" font-family="Times,serif" font-size="14.00">0.43</text>
</g>
<!-- transmission capacity 
usage (t&#45;1) -->
<g id="node5" class="node">
<title>transmission capacity 
usage (t&#45;1)</title>
<ellipse fill="none" stroke="black" cx="296.24" cy="-360.44" rx="97.23" ry="28.99"/>
<text text-anchor="middle" x="296.24" y="-363.64" font-family="Times,serif" font-size="14.00">transmission capacity </text>
<text text-anchor="middle" x="296.24" y="-347.14" font-family="Times,serif" font-size="14.00">usage (t&#45;1)</text>
</g>
<!-- transmission capacity 
usage (t&#45;1)&#45;&gt;solar power 
generation (t) -->
<g id="edge1" class="edge">
<title>transmission capacity 
usage (t&#45;1)&#45;&gt;solar power 
generation (t)</title>
<path fill="none" stroke="black" d="M296.24,-331.22C296.24,-318.89 296.24,-304.2 296.24,-290.78"/>
<polygon fill="black" stroke="black" points="299.74,-290.93 296.24,-280.93 292.74,-290.93 299.74,-290.93"/>
<text text-anchor="middle" x="308.24" y="-300.15" font-family="Times,serif" font-size="14.00">0.11</text>
</g>
<!-- transmission capacity 
usage (t&#45;1)&#45;&gt;transmission capacity 
usage (t) -->
<g id="edge4" class="edge">
<title>transmission capacity 
usage (t&#45;1)&#45;&gt;transmission capacity 
usage (t)</title>
<path fill="none" stroke="black" d="M249.39,-334.64C228.98,-321.14 207.14,-302.36 195.74,-278.95 180.8,-248.27 181.97,-209.04 185.97,-180.17"/>
<polygon fill="black" stroke="black" points="189.42,-180.8 187.52,-170.38 182.5,-179.71 189.42,-180.8"/>
<text text-anchor="middle" x="209.49" y="-244.91" font-family="Times,serif" font-size="14.00">&#45;0.59</text>
</g>
<!-- transmission capacity 
usage (t&#45;1)&#45;&gt;balancing 
costs (t) -->
<g id="edge8" class="edge">
<title>transmission capacity 
usage (t&#45;1)&#45;&gt;balancing 
costs (t)</title>
<path fill="none" stroke="black" d="M329.19,-332.86C344.16,-318.65 360.28,-299.79 368.24,-278.95 396.65,-204.58 350.33,-114.53 318.75,-65.7"/>
<polygon fill="black" stroke="black" points="321.74,-63.87 313.3,-57.47 315.91,-67.74 321.74,-63.87"/>
<text text-anchor="middle" x="386.24" y="-189.67" font-family="Times,serif" font-size="14.00">1.38</text>
</g>
<!-- balancing 
costs (t&#45;1) -->
<g id="node6" class="node">
<title>balancing 
costs (t&#45;1)</title>
<ellipse fill="none" stroke="black" cx="462.24" cy="-360.44" rx="51.09" ry="28.99"/>
<text text-anchor="middle" x="462.24" y="-363.64" font-family="Times,serif" font-size="14.00">balancing </text>
<text text-anchor="middle" x="462.24" y="-347.14" font-family="Times,serif" font-size="14.00">costs (t&#45;1)</text>
</g>
</g>
</svg>