<?xml version="1.0" encoding="UTF-8" standalone="no"?>
<!DOCTYPE svg PUBLIC "-//W3C//DTD SVG 1.1//EN"
 "http://www.w3.org/Graphics/SVG/1.1/DTD/svg11.dtd">
<!-- Generated by graphviz version 10.0.1 (20240210.2158)
 -->
<!-- Pages: 1 -->
<svg width="634pt" height="287pt"
 viewBox="0.00 0.00 634.45 286.95" xmlns="http://www.w3.org/2000/svg" xmlns:xlink="http://www.w3.org/1999/xlink">
<g id="graph0" class="graph" transform="scale(1 1) rotate(0) translate(4 282.95)">
<polygon fill="white" stroke="none" points="-4,4 -4,-282.95 630.45,-282.95 630.45,4 -4,4"/>
<!-- solar power 
generation (t) -->
<g id="node1" class="node">
<title>solar power 
generation (t)</title>
<ellipse fill="none" stroke="black" cx="164.23" cy="-249.96" rx="63.29" ry="28.99"/>
<text text-anchor="middle" x="164.23" y="-253.16" font-family="Times,serif" font-size="14.00">solar power </text>
<text text-anchor="middle" x="164.23" y="-236.66" font-family="Times,serif" font-size="14.00">generation (t)</text>
</g>
<!-- transmission capacity 
usage (t) -->
<g id="node2" class="node">
<title>transmission capacity 
usage (t)</title>
<ellipse fill="none" stroke="black" cx="97.23" cy="-139.47" rx="97.23" ry="28.99"/>
<text text-anchor="middle" x="97.23" y="-142.67" font-family="Times,serif" font-size="14.00">transmission capacity </text>
<text text-anchor="middle" x="97.23" y="-126.17" font-family="Times,serif" font-size="14.00">usage (t)</text>
</g>
<!-- solar power 
generation (t)&#45;&gt;transmission capacity 
usage (t) -->
<g id="edge1" class="edge">
<title>solar power 
generation (t)&#45;&gt;transmission capacity 
usage (t)</title>
<path fill="none" stroke="black" d="M147.32,-221.58C139.13,-208.32 129.17,-192.2 120.3,-177.83"/>
<polygon fill="black" stroke="black" points="123.39,-176.17 115.16,-169.51 117.43,-179.85 123.39,-176.17"/>
<text text-anchor="middle" x="149.48" y="-189.67" font-family="Times,serif" font-size="14.00">&#45;1.02</text>
</g>
<!-- balancing 
costs (t) -->
<g id="node3" class="node">
<title>balancing 
costs (t)</title>
<ellipse fill="none" stroke="black" cx="286.23" cy="-28.99" rx="51.09" ry="28.99"/>
<text text-anchor="middle" x="286.23" y="-32.19" font-family="Times,serif" font-size="14.00">balancing </text>
<text text-anchor="middle" x="286.23" y="-15.69" font-family="Times,serif" font-size="14.00">costs (t)</text>
</g>
<!-- solar power 
generation (t)&#45;&gt;balancing 
costs (t) -->
<g id="edge2" class="edge">
<title>solar power 
generation (t)&#45;&gt;balancing 
costs (t)</title>
<path fill="none" stroke="black" d="M178.77,-221.49C193.69,-193.45 217.71,-148.73 239.23,-110.48 247.4,-95.96 256.6,-80.09 264.69,-66.31"/>
<polygon fill="black" stroke="black" points="267.52,-68.4 269.58,-58 261.49,-64.85 267.52,-68.4"/>
<text text-anchor="middle" x="251.23" y="-134.42" font-family="Times,serif" font-size="14.00">1.62</text>
</g>
<!-- transmission capacity 
usage (t)&#45;&gt;balancing 
costs (t) -->
<g id="edge3" class="edge">
<title>transmission capacity 
usage (t)&#45;&gt;balancing 
costs (t)</title>
<path fill="none" stroke="black" d="M134.45,-112.42C151.7,-100.75 172.68,-87.13 192.23,-75.98 206.32,-67.94 222.03,-59.91 236.5,-52.87"/>
<polygon fill="black" stroke="black" points="237.92,-56.07 245.41,-48.58 234.88,-49.76 237.92,-56.07"/>
<text text-anchor="middle" x="204.23" y="-79.18" font-family="Times,serif" font-size="14.00">2.08</text>
</g>
<!-- solar power 
generation (t&#45;1) -->
<g id="node4" class="node">
<title>solar power 
generation (t&#45;1)</title>
<ellipse fill="none" stroke="black" cx="343.23" cy="-139.47" rx="71.24" ry="28.99"/>
<text text-anchor="middle" x="343.23" y="-142.67" font-family="Times,serif" font-size="14.00">solar power </text>
<text text-anchor="middle" x="343.23" y="-126.17" font-family="Times,serif" font-size="14.00">generation (t&#45;1)</text>
</g>
<!-- solar power 
generation (t&#45;1)&#45;&gt;balancing 
costs (t) -->
<g id="edge4" class="edge">
<title>solar power 
generation (t&#45;1)&#45;&gt;balancing 
costs (t)</title>
<path fill="none" stroke="black" d="M328.7,-110.82C321.74,-97.58 313.31,-81.54 305.81,-67.25"/>
<polygon fill="black" stroke="black" points="308.99,-65.78 301.24,-58.56 302.79,-69.04 308.99,-65.78"/>
<text text-anchor="middle" x="330.23" y="-79.18" font-family="Times,serif" font-size="14.00">0.37</text>
</g>
<!-- transmission capacity 
usage (t&#45;1) -->
<g id="node5" class="node">
<title>transmission capacity 
usage (t&#45;1)</title>
<ellipse fill="none" stroke="black" cx="529.23" cy="-139.47" rx="97.23" ry="28.99"/>
<text text-anchor="middle" x="529.23" y="-142.67" font-family="Times,serif" font-size="14.00">transmission capacity </text>
<text text-anchor="middle" x="529.23" y="-126.17" font-family="Times,serif" font-size="14.00">usage (t&#45;1)</text>
</g>
<!-- transmission capacity 
usage (t&#45;1)&#45;&gt;balancing 
costs (t) -->
<g id="edge5" class="edge">
<title>transmission capacity 
usage (t&#45;1)&#45;&gt;balancing 
costs (t)</title>
<path fill="none" stroke="black" d="M476.2,-114.8C434.58,-96.22 377.04,-70.53 336.21,-52.31"/>
<polygon fill="black" stroke="black" points="337.9,-49.23 327.34,-48.34 335.04,-55.62 337.9,-49.23"/>
<text text-anchor="middle" x="434.23" y="-79.18" font-family="Times,serif" font-size="14.00">1.43</text>
</g>
<!-- balancing 
costs (t&#45;1) -->
<g id="node6" class="node">
<title>balancing 
costs (t&#45;1)</title>
<ellipse fill="none" stroke="black" cx="296.23" cy="-249.96" rx="51.09" ry="28.99"/>
<text text-anchor="middle" x="296.23" y="-253.16" font-family="Times,serif" font-size="14.00">balancing </text>
<text text-anchor="middle" x="296.23" y="-236.66" font-family="Times,serif" font-size="14.00">costs (t&#45;1)</text>
</g>
</g>
</svg>