<?xml version="1.0" encoding="UTF-8" standalone="no"?>
<!DOCTYPE svg PUBLIC "-//W3C//DTD SVG 1.1//EN"
 "http://www.w3.org/Graphics/SVG/1.1/DTD/svg11.dtd">
<!-- Generated by graphviz version 10.0.1 (20240210.2158)
 -->
<!-- Pages: 1 -->
<svg width="634pt" height="287pt"
 viewBox="0.00 0.00 634.37 286.95" xmlns="http://www.w3.org/2000/svg" xmlns:xlink="http://www.w3.org/1999/xlink">
<g id="graph0" class="graph" transform="scale(1 1) rotate(0) translate(4 282.95)">
<polygon fill="white" stroke="none" points="-4,4 -4,-282.95 630.37,-282.95 630.37,4 -4,4"/>
<!-- solar power 
generation (t) -->
<g id="node1" class="node">
<title>solar power 
generation (t)</title>
<ellipse fill="none" stroke="black" cx="63.29" cy="-249.96" rx="63.29" ry="28.99"/>
<text text-anchor="middle" x="63.29" y="-253.16" font-family="Times,serif" font-size="14.00">solar power </text>
<text text-anchor="middle" x="63.29" y="-236.66" font-family="Times,serif" font-size="14.00">generation (t)</text>
</g>
<!-- transmission capacity 
usage (t) -->
<g id="node2" class="node">
<title>transmission capacity 
usage (t)</title>
<ellipse fill="none" stroke="black" cx="277.29" cy="-139.47" rx="97.23" ry="28.99"/>
<text text-anchor="middle" x="277.29" y="-142.67" font-family="Times,serif" font-size="14.00">transmission capacity </text>
<text text-anchor="middle" x="277.29" y="-126.17" font-family="Times,serif" font-size="14.00">usage (t)</text>
</g>
<!-- solar power 
generation (t)&#45;&gt;transmission capacity 
usage (t) -->
<g id="edge1" class="edge">
<title>solar power 
generation (t)&#45;&gt;transmission capacity 
usage (t)</title>
<path fill="none" stroke="black" d="M105.06,-227.78C137.52,-211.33 182.94,-188.3 218.99,-170.03"/>
<polygon fill="black" stroke="black" points="220.2,-173.34 227.54,-165.69 217.04,-167.09 220.2,-173.34"/>
<text text-anchor="middle" x="197.54" y="-189.67" font-family="Times,serif" font-size="14.00">&#45;0.98</text>
</g>
<!-- balancing 
costs (t) -->
<g id="node3" class="node">
<title>balancing 
costs (t)</title>
<ellipse fill="none" stroke="black" cx="181.29" cy="-28.99" rx="51.09" ry="28.99"/>
<text text-anchor="middle" x="181.29" y="-32.19" font-family="Times,serif" font-size="14.00">balancing </text>
<text text-anchor="middle" x="181.29" y="-15.69" font-family="Times,serif" font-size="14.00">costs (t)</text>
</g>
<!-- solar power 
generation (t)&#45;&gt;balancing 
costs (t) -->
<g id="edge4" class="edge">
<title>solar power 
generation (t)&#45;&gt;balancing 
costs (t)</title>
<path fill="none" stroke="black" d="M70.55,-220.93C78.72,-192.05 93.6,-146.32 114.29,-110.48 124,-93.66 137.27,-76.86 149.44,-63"/>
<polygon fill="black" stroke="black" points="151.74,-65.67 155.82,-55.89 146.54,-60.99 151.74,-65.67"/>
<text text-anchor="middle" x="126.29" y="-134.42" font-family="Times,serif" font-size="14.00">1.52</text>
</g>
<!-- transmission capacity 
usage (t)&#45;&gt;balancing 
costs (t) -->
<g id="edge5" class="edge">
<title>transmission capacity 
usage (t)&#45;&gt;balancing 
costs (t)</title>
<path fill="none" stroke="black" d="M253.06,-111.1C240.43,-96.83 224.86,-79.24 211.46,-64.09"/>
<polygon fill="black" stroke="black" points="214.11,-61.8 204.86,-56.63 208.86,-66.44 214.11,-61.8"/>
<text text-anchor="middle" x="247.29" y="-79.18" font-family="Times,serif" font-size="14.00">2.00</text>
</g>
<!-- solar power 
generation (t&#45;1) -->
<g id="node4" class="node">
<title>solar power 
generation (t&#45;1)</title>
<ellipse fill="none" stroke="black" cx="221.29" cy="-249.96" rx="71.24" ry="28.99"/>
<text text-anchor="middle" x="221.29" y="-253.16" font-family="Times,serif" font-size="14.00">solar power </text>
<text text-anchor="middle" x="221.29" y="-236.66" font-family="Times,serif" font-size="14.00">generation (t&#45;1)</text>
</g>
<!-- solar power 
generation (t&#45;1)&#45;&gt;transmission capacity 
usage (t) -->
<g id="edge2" class="edge">
<title>solar power 
generation (t&#45;1)&#45;&gt;transmission capacity 
usage (t)</title>
<path fill="none" stroke="black" d="M235.56,-221.3C242.29,-208.27 250.42,-192.52 257.71,-178.39"/>
<polygon fill="black" stroke="black" points="260.67,-180.29 262.15,-169.8 254.45,-177.08 260.67,-180.29"/>
<text text-anchor="middle" x="267.54" y="-189.67" font-family="Times,serif" font-size="14.00">&#45;0.16</text>
</g>
<!-- solar power 
generation (t&#45;1)&#45;&gt;balancing 
costs (t) -->
<g id="edge6" class="edge">
<title>solar power 
generation (t&#45;1)&#45;&gt;balancing 
costs (t)</title>
<path fill="none" stroke="black" d="M188.99,-223.97C173.18,-209.65 155.77,-190.22 147.29,-168.47 134.33,-135.23 146.73,-95.54 160.05,-67.19"/>
<polygon fill="black" stroke="black" points="163.16,-68.78 164.47,-58.27 156.89,-65.67 163.16,-68.78"/>
<text text-anchor="middle" x="159.29" y="-134.42" font-family="Times,serif" font-size="14.00">0.62</text>
</g>
<!-- transmission capacity 
usage (t&#45;1) -->
<g id="node5" class="node">
<title>transmission capacity 
usage (t&#45;1)</title>
<ellipse fill="none" stroke="black" cx="409.29" cy="-249.96" rx="97.23" ry="28.99"/>
<text text-anchor="middle" x="409.29" y="-253.16" font-family="Times,serif" font-size="14.00">transmission capacity </text>
<text text-anchor="middle" x="409.29" y="-236.66" font-family="Times,serif" font-size="14.00">usage (t&#45;1)</text>
</g>
<!-- transmission capacity 
usage (t&#45;1)&#45;&gt;transmission capacity 
usage (t) -->
<g id="edge3" class="edge">
<title>transmission capacity 
usage (t&#45;1)&#45;&gt;transmission capacity 
usage (t)</title>
<path fill="none" stroke="black" d="M377,-222.42C359.34,-207.91 337.28,-189.78 318.4,-174.26"/>
<polygon fill="black" stroke="black" points="320.82,-171.72 310.87,-168.08 316.37,-177.13 320.82,-171.72"/>
<text text-anchor="middle" x="364.54" y="-189.67" font-family="Times,serif" font-size="14.00">&#45;0.58</text>
</g>
<!-- transmission capacity 
usage (t&#45;1)&#45;&gt;balancing 
costs (t) -->
<g id="edge7" class="edge">
<title>transmission capacity 
usage (t&#45;1)&#45;&gt;balancing 
costs (t)</title>
<path fill="none" stroke="black" d="M411.49,-220.72C412.32,-190.16 408.93,-141.65 383.29,-110.48 348.45,-68.16 288.15,-47.95 242.48,-38.39"/>
<polygon fill="black" stroke="black" points="243.18,-34.96 232.69,-36.47 241.83,-41.83 243.18,-34.96"/>
<text text-anchor="middle" x="419.29" y="-134.42" font-family="Times,serif" font-size="14.00">1.57</text>
</g>
<!-- balancing 
costs (t&#45;1) -->
<g id="node6" class="node">
<title>balancing 
costs (t&#45;1)</title>
<ellipse fill="none" stroke="black" cx="575.29" cy="-249.96" rx="51.09" ry="28.99"/>
<text text-anchor="middle" x="575.29" y="-253.16" font-family="Times,serif" font-size="14.00">balancing </text>
<text text-anchor="middle" x="575.29" y="-236.66" font-family="Times,serif" font-size="14.00">costs (t&#45;1)</text>
</g>
</g>
</svg>