<?xml version="1.0" encoding="UTF-8" standalone="no"?>
<!DOCTYPE svg PUBLIC "-//W3C//DTD SVG 1.1//EN"
 "http://www.w3.org/Graphics/SVG/1.1/DTD/svg11.dtd">
<!-- Generated by graphviz version 10.0.1 (20240210.2158)
 -->
<!-- Pages: 1 -->
<svg width="225pt" height="310pt"
 viewBox="0.00 0.00 225.02 309.50" xmlns="http://www.w3.org/2000/svg" xmlns:xlink="http://www.w3.org/1999/xlink">
<g id="graph0" class="graph" transform="scale(1 1) rotate(0) translate(4 305.5)">
<polygon fill="white" stroke="none" points="-4,4 -4,-305.5 221.02,-305.5 221.02,4 -4,4"/>
<!-- x0(t) -->
<g id="node1" class="node">
<title>x0(t)</title>
<ellipse fill="none" stroke="black" cx="77.51" cy="-195" rx="28.83" ry="18"/>
<text text-anchor="middle" x="77.51" y="-189.95" font-family="Times,serif" font-size="14.00">x0(t)</text>
</g>
<!-- x1(t) -->
<g id="node2" class="node">
<title>x1(t)</title>
<ellipse fill="none" stroke="black" cx="141.51" cy="-106.5" rx="28.83" ry="18"/>
<text text-anchor="middle" x="141.51" y="-101.45" font-family="Times,serif" font-size="14.00">x1(t)</text>
</g>
<!-- x0(t)&#45;&gt;x1(t) -->
<g id="edge2" class="edge">
<title>x0(t)&#45;&gt;x1(t)</title>
<path fill="none" stroke="black" d="M89.25,-178.13C98.72,-165.33 112.22,-147.09 123.12,-132.35"/>
<polygon fill="black" stroke="black" points="125.81,-134.6 128.94,-124.48 120.18,-130.44 125.81,-134.6"/>
<text text-anchor="middle" x="127.51" y="-145.7" font-family="Times,serif" font-size="14.00">1.94</text>
</g>
<!-- x2(t) -->
<g id="node3" class="node">
<title>x2(t)</title>
<ellipse fill="none" stroke="black" cx="103.51" cy="-18" rx="28.83" ry="18"/>
<text text-anchor="middle" x="103.51" y="-12.95" font-family="Times,serif" font-size="14.00">x2(t)</text>
</g>
<!-- x0(t)&#45;&gt;x2(t) -->
<g id="edge4" class="edge">
<title>x0(t)&#45;&gt;x2(t)</title>
<path fill="none" stroke="black" d="M74.81,-176.63C72.07,-155.55 68.99,-119.06 75.01,-88.5 77.9,-73.85 83.9,-58.41 89.65,-45.81"/>
<polygon fill="black" stroke="black" points="92.75,-47.46 93.91,-36.93 86.43,-44.43 92.75,-47.46"/>
<text text-anchor="middle" x="89.76" y="-101.45" font-family="Times,serif" font-size="14.00">&#45;1.03</text>
</g>
<!-- x1(t)&#45;&gt;x2(t) -->
<g id="edge5" class="edge">
<title>x1(t)&#45;&gt;x2(t)</title>
<path fill="none" stroke="black" d="M134.18,-88.82C128.87,-76.74 121.58,-60.13 115.43,-46.14"/>
<polygon fill="black" stroke="black" points="118.65,-44.76 111.42,-37.01 112.24,-47.58 118.65,-44.76"/>
<text text-anchor="middle" x="138.51" y="-57.2" font-family="Times,serif" font-size="14.00">0.59</text>
</g>
<!-- x0(t&#45;1) -->
<g id="node4" class="node">
<title>x0(t&#45;1)</title>
<ellipse fill="none" stroke="black" cx="36.51" cy="-283.5" rx="36.51" ry="18"/>
<text text-anchor="middle" x="36.51" y="-278.45" font-family="Times,serif" font-size="14.00">x0(t&#45;1)</text>
</g>
<!-- x0(t&#45;1)&#45;&gt;x0(t) -->
<g id="edge1" class="edge">
<title>x0(t&#45;1)&#45;&gt;x0(t)</title>
<path fill="none" stroke="black" d="M44.41,-265.82C50.2,-253.62 58.17,-236.8 64.84,-222.73"/>
<polygon fill="black" stroke="black" points="67.86,-224.53 68.98,-213.99 61.53,-221.53 67.86,-224.53"/>
<text text-anchor="middle" x="73.51" y="-234.2" font-family="Times,serif" font-size="14.00">0.64</text>
</g>
<!-- x0(t&#45;1)&#45;&gt;x2(t) -->
<g id="edge6" class="edge">
<title>x0(t&#45;1)&#45;&gt;x2(t)</title>
<path fill="none" stroke="black" d="M34.93,-265.02C32.96,-238.29 30.87,-185.8 40.01,-142.5 48.8,-100.87 55.22,-90.84 76.51,-54 78.53,-50.51 80.86,-46.97 83.29,-43.56"/>
<polygon fill="black" stroke="black" points="86.06,-45.7 89.29,-35.61 80.47,-41.48 86.06,-45.7"/>
<text text-anchor="middle" x="54.76" y="-145.7" font-family="Times,serif" font-size="14.00">&#45;0.41</text>
</g>
<!-- x1(t&#45;1) -->
<g id="node5" class="node">
<title>x1(t&#45;1)</title>
<ellipse fill="none" stroke="black" cx="180.51" cy="-195" rx="36.51" ry="18"/>
<text text-anchor="middle" x="180.51" y="-189.95" font-family="Times,serif" font-size="14.00">x1(t&#45;1)</text>
</g>
<!-- x1(t&#45;1)&#45;&gt;x1(t) -->
<g id="edge3" class="edge">
<title>x1(t&#45;1)&#45;&gt;x1(t)</title>
<path fill="none" stroke="black" d="M172.35,-176.96C169.66,-171.26 166.68,-164.87 164.01,-159 160.44,-151.15 156.66,-142.58 153.23,-134.73"/>
<polygon fill="black" stroke="black" points="156.48,-133.42 149.29,-125.64 150.06,-136.21 156.48,-133.42"/>
<text text-anchor="middle" x="177.76" y="-145.7" font-family="Times,serif" font-size="14.00">&#45;0.50</text>
</g>
<!-- x1(t&#45;1)&#45;&gt;x2(t) -->
<g id="edge7" class="edge">
<title>x1(t&#45;1)&#45;&gt;x2(t)</title>
<path fill="none" stroke="black" d="M187.52,-177.2C189.55,-171.53 191.5,-165.08 192.51,-159 197.75,-127.57 192.84,-117.44 179.51,-88.5 171.59,-71.3 168.07,-67.22 154.51,-54 148.32,-47.97 140.99,-42.28 133.84,-37.3"/>
<polygon fill="black" stroke="black" points="135.86,-34.44 125.59,-31.83 131.99,-40.27 135.86,-34.44"/>
<text text-anchor="middle" x="204.51" y="-101.45" font-family="Times,serif" font-size="14.00">0.23</text>
</g>
<!-- x2(t&#45;1) -->
<g id="node6" class="node">
<title>x2(t&#45;1)</title>
<ellipse fill="none" stroke="black" cx="127.51" cy="-283.5" rx="36.51" ry="18"/>
<text text-anchor="middle" x="127.51" y="-278.45" font-family="Times,serif" font-size="14.00">x2(t&#45;1)</text>
</g>
</g>
</svg>