<?xml version="1.0" encoding="UTF-8" standalone="no"?>
<!DOCTYPE svg PUBLIC "-//W3C//DTD SVG 1.1//EN"
 "http://www.w3.org/Graphics/SVG/1.1/DTD/svg11.dtd">
<!-- Generated by graphviz version 10.0.1 (20240210.2158)
 -->
<!-- Pages: 1 -->
<svg width="256pt" height="254pt"
 viewBox="0.00 0.00 256.44 253.95" xmlns="http://www.w3.org/2000/svg" xmlns:xlink="http://www.w3.org/1999/xlink">
<g id="graph0" class="graph" transform="scale(1 1) rotate(0) translate(4 249.95)">
<polygon fill="white" stroke="none" points="-4,4 -4,-249.95 252.44,-249.95 252.44,4 -4,4"/>
<!-- Z -->
<g id="node1" class="node">
<title>Z</title>
<ellipse fill="none" stroke="black" cx="56.92" cy="-216.96" rx="56.92" ry="28.99"/>
<text text-anchor="middle" x="56.92" y="-220.16" font-family="Times,serif" font-size="14.00">Wind speed</text>
<text text-anchor="middle" x="56.92" y="-203.66" font-family="Times,serif" font-size="14.00">forecasts</text>
</g>
<!-- X -->
<g id="node2" class="node">
<title>X</title>
<ellipse fill="none" stroke="black" cx="102.92" cy="-122.97" rx="59.04" ry="28.99"/>
<text text-anchor="middle" x="102.92" y="-126.17" font-family="Times,serif" font-size="14.00">Wind power</text>
<text text-anchor="middle" x="102.92" y="-109.67" font-family="Times,serif" font-size="14.00">production</text>
</g>
<!-- Z&#45;&gt;X -->
<g id="edge1" class="edge">
<title>Z&#45;&gt;X</title>
<path fill="none" stroke="black" d="M70.72,-188.36C74.91,-179.99 79.58,-170.65 84.04,-161.74"/>
<polygon fill="black" stroke="black" points="87.11,-163.42 88.45,-152.91 80.85,-160.28 87.11,-163.42"/>
</g>
<!-- Y -->
<g id="node3" class="node">
<title>Y</title>
<ellipse fill="none" stroke="black" cx="145.92" cy="-28.99" rx="53.74" ry="28.99"/>
<text text-anchor="middle" x="145.92" y="-32.19" font-family="Times,serif" font-size="14.00">Electricity </text>
<text text-anchor="middle" x="145.92" y="-15.69" font-family="Times,serif" font-size="14.00">prices</text>
</g>
<!-- X&#45;&gt;Y -->
<g id="edge2" class="edge">
<title>X&#45;&gt;Y</title>
<path fill="none" stroke="black" d="M115.82,-94.38C119.74,-86.01 124.1,-76.67 128.27,-67.75"/>
<polygon fill="black" stroke="black" points="131.32,-69.48 132.39,-58.94 124.98,-66.52 131.32,-69.48"/>
</g>
<!-- U -->
<g id="node4" class="node">
<title>U</title>
<ellipse fill="none" stroke="black" cx="189.92" cy="-216.96" rx="58.51" ry="28.99"/>
<text text-anchor="middle" x="189.92" y="-220.16" font-family="Times,serif" font-size="14.00">Unobserved</text>
<text text-anchor="middle" x="189.92" y="-203.66" font-family="Times,serif" font-size="14.00">confounders</text>
</g>
<!-- U&#45;&gt;X -->
<g id="edge3" class="edge">
<title>U&#45;&gt;X</title>
<path fill="none" stroke="black" d="M165.69,-190.33C156.25,-180.35 145.29,-168.76 135.19,-158.09"/>
<polygon fill="black" stroke="black" points="137.78,-155.74 128.37,-150.88 132.7,-160.55 137.78,-155.74"/>
</g>
<!-- U&#45;&gt;Y -->
<g id="edge4" class="edge">
<title>U&#45;&gt;Y</title>
<path fill="none" stroke="black" d="M187.32,-187.98C184.58,-163.03 179.46,-125.64 170.92,-93.98 168.63,-85.5 165.59,-76.59 162.42,-68.21"/>
<polygon fill="black" stroke="black" points="165.7,-67.01 158.78,-58.99 159.19,-69.58 165.7,-67.01"/>
</g>
</g>
</svg>