<?xml version="1.0" encoding="UTF-8" standalone="no"?>
<!DOCTYPE svg PUBLIC "-//W3C//DTD SVG 1.1//EN"
 "http://www.w3.org/Graphics/SVG/1.1/DTD/svg11.dtd">
<!-- Generated by graphviz version 10.0.1 (20240210.2158)
 -->
<!-- Pages: 1 -->
<svg width="134pt" height="133pt"
 viewBox="0.00 0.00 134.00 132.50" xmlns="http://www.w3.org/2000/svg" xmlns:xlink="http://www.w3.org/1999/xlink">
<g id="graph0" class="graph" transform="scale(1 1) rotate(0) translate(4 128.5)">
<polygon fill="white" stroke="none" points="-4,4 -4,-128.5 130,-128.5 130,4 -4,4"/>
<!-- x0 -->
<g id="node1" class="node">
<title>x0</title>
<ellipse fill="none" stroke="black" cx="63" cy="-106.5" rx="27" ry="18"/>
<text text-anchor="middle" x="63" y="-101.45" font-family="Times,serif" font-size="14.00">x0</text>
</g>
<!-- x1 -->
<g id="node2" class="node">
<title>x1</title>
<ellipse fill="none" stroke="black" cx="27" cy="-18" rx="27" ry="18"/>
<text text-anchor="middle" x="27" y="-12.95" font-family="Times,serif" font-size="14.00">x1</text>
</g>
<!-- x0&#45;&gt;x1 -->
<g id="edge1" class="edge">
<title>x0&#45;&gt;x1</title>
<path fill="none" stroke="black" d="M56.06,-88.82C51.03,-76.74 44.12,-60.13 38.3,-46.14"/>
<polygon fill="black" stroke="black" points="41.58,-44.91 34.5,-37.02 35.11,-47.6 41.58,-44.91"/>
<text text-anchor="middle" x="62.25" y="-57.2" font-family="Times,serif" font-size="14.00">&#45;1.00</text>
</g>
<!-- x2 -->
<g id="node3" class="node">
<title>x2</title>
<ellipse fill="none" stroke="black" cx="99" cy="-18" rx="27" ry="18"/>
<text text-anchor="middle" x="99" y="-12.95" font-family="Times,serif" font-size="14.00">x2</text>
</g>
<!-- x0&#45;&gt;x2 -->
<g id="edge2" class="edge">
<title>x0&#45;&gt;x2</title>
<path fill="none" stroke="black" d="M69.94,-88.82C74.97,-76.74 81.88,-60.13 87.7,-46.14"/>
<polygon fill="black" stroke="black" points="90.89,-47.6 91.5,-37.02 84.42,-44.91 90.89,-47.6"/>
<text text-anchor="middle" x="96" y="-57.2" font-family="Times,serif" font-size="14.00">5.00</text>
</g>
</g>
</svg>