<?xml version="1.0" encoding="UTF-8" standalone="no"?>
<!DOCTYPE svg PUBLIC "-//W3C//DTD SVG 1.1//EN"
 "http://www.w3.org/Graphics/SVG/1.1/DTD/svg11.dtd">
<!-- Generated by graphviz version 10.0.1 (20240210.2158)
 -->
<!-- Pages: 1 -->
<svg width="234pt" height="154pt"
 viewBox="0.00 0.00 233.77 154.48" xmlns="http://www.w3.org/2000/svg" xmlns:xlink="http://www.w3.org/1999/xlink">
<g id="graph0" class="graph" transform="scale(1 1) rotate(0) translate(4 150.48)">
<polygon fill="white" stroke="none" points="-4,4 -4,-150.48 229.77,-150.48 229.77,4 -4,4"/>
<!-- temperature -->
<g id="node1" class="node">
<title>temperature</title>
<ellipse fill="none" stroke="black" cx="113.15" cy="-128.48" rx="55.45" ry="18"/>
<text text-anchor="middle" x="113.15" y="-123.43" font-family="Times,serif" font-size="14.00">temperature</text>
</g>
<!-- electricity 
load -->
<g id="node2" class="node">
<title>electricity 
load</title>
<ellipse fill="none" stroke="black" cx="52.15" cy="-28.99" rx="52.15" ry="28.99"/>
<text text-anchor="middle" x="52.15" y="-32.19" font-family="Times,serif" font-size="14.00">electricity </text>
<text text-anchor="middle" x="52.15" y="-15.69" font-family="Times,serif" font-size="14.00">load</text>
</g>
<!-- temperature&#45;&gt;electricity 
load -->
<g id="edge1" class="edge">
<title>temperature&#45;&gt;electricity 
load</title>
<path fill="none" stroke="black" d="M102.52,-110.5C94.91,-98.33 84.36,-81.48 74.89,-66.33"/>
<polygon fill="black" stroke="black" points="77.93,-64.6 69.66,-57.98 72,-68.31 77.93,-64.6"/>
<text text-anchor="middle" x="102.15" y="-79.18" font-family="Times,serif" font-size="14.00">1.00</text>
</g>
<!-- ice cream 
sales -->
<g id="node3" class="node">
<title>ice cream 
sales</title>
<ellipse fill="none" stroke="black" cx="174.15" cy="-28.99" rx="51.62" ry="28.99"/>
<text text-anchor="middle" x="174.15" y="-32.19" font-family="Times,serif" font-size="14.00">ice cream </text>
<text text-anchor="middle" x="174.15" y="-15.69" font-family="Times,serif" font-size="14.00">sales</text>
</g>
<!-- temperature&#45;&gt;ice cream 
sales -->
<g id="edge2" class="edge">
<title>temperature&#45;&gt;ice cream 
sales</title>
<path fill="none" stroke="black" d="M123.77,-110.5C131.39,-98.33 141.94,-81.48 151.41,-66.33"/>
<polygon fill="black" stroke="black" points="154.3,-68.31 156.64,-57.98 148.37,-64.6 154.3,-68.31"/>
<text text-anchor="middle" x="155.15" y="-79.18" font-family="Times,serif" font-size="14.00">1.00</text>
</g>
</g>
</svg>