<?xml version="1.0" encoding="UTF-8" standalone="no"?>
<!DOCTYPE svg PUBLIC "-//W3C//DTD SVG 1.1//EN"
 "http://www.w3.org/Graphics/SVG/1.1/DTD/svg11.dtd">
<!-- Generated by graphviz version 10.0.1 (20240210.2158)
 -->
<!-- Pages: 1 -->
<svg width="134pt" height="221pt"
 viewBox="0.00 0.00 134.00 221.00" xmlns="http://www.w3.org/2000/svg" xmlns:xlink="http://www.w3.org/1999/xlink">
<g id="graph0" class="graph" transform="scale(1 1) rotate(0) translate(4 217)">
<polygon fill="white" stroke="none" points="-4,4 -4,-217 130,-217 130,4 -4,4"/>
<!-- x0 -->
<g id="node1" class="node">
<title>x0</title>
<ellipse fill="none" stroke="black" cx="27" cy="-106.5" rx="27" ry="18"/>
<text text-anchor="middle" x="27" y="-101.45" font-family="Times,serif" font-size="14.00">x0</text>
</g>
<!-- x1 -->
<g id="node2" class="node">
<title>x1</title>
<ellipse fill="none" stroke="black" cx="62" cy="-18" rx="27" ry="18"/>
<text text-anchor="middle" x="62" y="-12.95" font-family="Times,serif" font-size="14.00">x1</text>
</g>
<!-- x0&#45;&gt;x1 -->
<g id="edge2" class="edge">
<title>x0&#45;&gt;x1</title>
<path fill="none" stroke="black" d="M32.85,-88.68C36.45,-78.56 41.28,-65.45 46,-54 47.09,-51.35 48.27,-48.61 49.47,-45.88"/>
<polygon fill="black" stroke="black" points="52.55,-47.56 53.47,-37 46.17,-44.68 52.55,-47.56"/>
<text text-anchor="middle" x="58" y="-57.2" font-family="Times,serif" font-size="14.00">3.13</text>
</g>
<!-- x2 -->
<g id="node3" class="node">
<title>x2</title>
<ellipse fill="none" stroke="black" cx="99" cy="-106.5" rx="27" ry="18"/>
<text text-anchor="middle" x="99" y="-101.45" font-family="Times,serif" font-size="14.00">x2</text>
</g>
<!-- x2&#45;&gt;x1 -->
<g id="edge3" class="edge">
<title>x2&#45;&gt;x1</title>
<path fill="none" stroke="black" d="M91.87,-88.82C86.7,-76.74 79.59,-60.13 73.61,-46.14"/>
<polygon fill="black" stroke="black" points="76.86,-44.84 69.71,-37.02 70.42,-47.59 76.86,-44.84"/>
<text text-anchor="middle" x="95" y="-57.2" font-family="Times,serif" font-size="14.00">1.95</text>
</g>
<!-- x3 -->
<g id="node4" class="node">
<title>x3</title>
<ellipse fill="none" stroke="black" cx="62" cy="-195" rx="27" ry="18"/>
<text text-anchor="middle" x="62" y="-189.95" font-family="Times,serif" font-size="14.00">x3</text>
</g>
<!-- x3&#45;&gt;x0 -->
<g id="edge1" class="edge">
<title>x3&#45;&gt;x0</title>
<path fill="none" stroke="black" d="M54.09,-177.38C51.43,-171.6 48.5,-165.05 46,-159 42.83,-151.3 39.61,-142.87 36.74,-135.09"/>
<polygon fill="black" stroke="black" points="40.06,-133.96 33.36,-125.75 33.47,-136.34 40.06,-133.96"/>
<text text-anchor="middle" x="58" y="-145.7" font-family="Times,serif" font-size="14.00">2.01</text>
</g>
<!-- x3&#45;&gt;x2 -->
<g id="edge4" class="edge">
<title>x3&#45;&gt;x2</title>
<path fill="none" stroke="black" d="M69.13,-177.32C74.3,-165.24 81.41,-148.63 87.39,-134.64"/>
<polygon fill="black" stroke="black" points="90.58,-136.09 91.29,-125.52 84.14,-133.34 90.58,-136.09"/>
<text text-anchor="middle" x="95" y="-145.7" font-family="Times,serif" font-size="14.00">5.01</text>
</g>
</g>
</svg>