<?xml version="1.0" encoding="UTF-8" standalone="no"?>
<!DOCTYPE svg PUBLIC "-//W3C//DTD SVG 1.1//EN"
 "http://www.w3.org/Graphics/SVG/1.1/DTD/svg11.dtd">
<!-- Generated by graphviz version 10.0.1 (20240210.2158)
 -->
<!-- Pages: 1 -->
<svg width="322pt" height="310pt"
 viewBox="0.00 0.00 321.74 309.50" xmlns="http://www.w3.org/2000/svg" xmlns:xlink="http://www.w3.org/1999/xlink">
<g id="graph0" class="graph" transform="scale(1 1) rotate(0) translate(4 305.5)">
<polygon fill="white" stroke="none" points="-4,4 -4,-305.5 317.74,-305.5 317.74,4 -4,4"/>
<!-- wind generation -->
<g id="node1" class="node">
<title>wind generation</title>
<ellipse fill="none" stroke="black" cx="70.8" cy="-283.5" rx="70.8" ry="18"/>
<text text-anchor="middle" x="70.8" y="-278.45" font-family="Times,serif" font-size="14.00">wind generation</text>
</g>
<!-- electricity prices -->
<g id="node3" class="node">
<title>electricity prices</title>
<ellipse fill="none" stroke="black" cx="136.8" cy="-195" rx="72.34" ry="18"/>
<text text-anchor="middle" x="136.8" y="-189.95" font-family="Times,serif" font-size="14.00">electricity prices</text>
</g>
<!-- wind generation&#45;&gt;electricity prices -->
<g id="edge1" class="edge">
<title>wind generation&#45;&gt;electricity prices</title>
<path fill="none" stroke="black" d="M83.84,-265.41C93.33,-252.97 106.35,-235.91 117.11,-221.81"/>
<polygon fill="black" stroke="black" points="119.59,-224.33 122.87,-214.26 114.02,-220.08 119.59,-224.33"/>
<text text-anchor="middle" x="124.05" y="-234.2" font-family="Times,serif" font-size="14.00">&#45;1.01</text>
</g>
<!-- regulatory impact -->
<g id="node2" class="node">
<title>regulatory impact</title>
<ellipse fill="none" stroke="black" cx="236.8" cy="-283.5" rx="76.94" ry="18"/>
<text text-anchor="middle" x="236.8" y="-278.45" font-family="Times,serif" font-size="14.00">regulatory impact</text>
</g>
<!-- regulatory impact&#45;&gt;electricity prices -->
<g id="edge2" class="edge">
<title>regulatory impact&#45;&gt;electricity prices</title>
<path fill="none" stroke="black" d="M217.52,-265.82C202.44,-252.78 181.27,-234.47 164.4,-219.87"/>
<polygon fill="black" stroke="black" points="167.02,-217.51 157.17,-213.62 162.44,-222.81 167.02,-217.51"/>
<text text-anchor="middle" x="207.8" y="-234.2" font-family="Times,serif" font-size="14.00">0.50</text>
</g>
<!-- carbon emissions -->
<g id="node5" class="node">
<title>carbon emissions</title>
<ellipse fill="none" stroke="black" cx="188.8" cy="-18" rx="75.41" ry="18"/>
<text text-anchor="middle" x="188.8" y="-12.95" font-family="Times,serif" font-size="14.00">carbon emissions</text>
</g>
<!-- regulatory impact&#45;&gt;carbon emissions -->
<g id="edge4" class="edge">
<title>regulatory impact&#45;&gt;carbon emissions</title>
<path fill="none" stroke="black" d="M236.63,-265.09C235.94,-230.79 232.6,-152.26 216.8,-88.5 213.27,-74.24 207.4,-59.04 201.95,-46.5"/>
<polygon fill="black" stroke="black" points="205.26,-45.32 197.96,-37.64 198.88,-48.19 205.26,-45.32"/>
<text text-anchor="middle" x="243.05" y="-145.7" font-family="Times,serif" font-size="14.00">&#45;0.30</text>
</g>
<!-- energy demand -->
<g id="node4" class="node">
<title>energy demand</title>
<ellipse fill="none" stroke="black" cx="139.8" cy="-106.5" rx="68.24" ry="18"/>
<text text-anchor="middle" x="139.8" y="-101.45" font-family="Times,serif" font-size="14.00">energy demand</text>
</g>
<!-- electricity prices&#45;&gt;energy demand -->
<g id="edge3" class="edge">
<title>electricity prices&#45;&gt;energy demand</title>
<path fill="none" stroke="black" d="M137.39,-176.91C137.8,-165.26 138.34,-149.55 138.81,-136.02"/>
<polygon fill="black" stroke="black" points="142.3,-136.48 139.15,-126.36 135.3,-136.24 142.3,-136.48"/>
<text text-anchor="middle" x="153.05" y="-145.7" font-family="Times,serif" font-size="14.00">&#45;0.80</text>
</g>
<!-- energy demand&#45;&gt;carbon emissions -->
<g id="edge5" class="edge">
<title>energy demand&#45;&gt;carbon emissions</title>
<path fill="none" stroke="black" d="M149.48,-88.41C156.33,-76.33 165.64,-59.88 173.49,-46.03"/>
<polygon fill="black" stroke="black" points="176.51,-47.8 178.39,-37.37 170.42,-44.35 176.51,-47.8"/>
<text text-anchor="middle" x="180.8" y="-57.2" font-family="Times,serif" font-size="14.00">1.50</text>
</g>
</g>
</svg>