<?xml version="1.0" encoding="UTF-8" standalone="no"?>
<!DOCTYPE svg PUBLIC "-//W3C//DTD SVG 1.1//EN"
 "http://www.w3.org/Graphics/SVG/1.1/DTD/svg11.dtd">
<!-- Generated by graphviz version 10.0.1 (20240210.2158)
 -->
<!-- Pages: 1 -->
<svg width="290pt" height="232pt"
 viewBox="0.00 0.00 290.41 231.97" xmlns="http://www.w3.org/2000/svg" xmlns:xlink="http://www.w3.org/1999/xlink">
<g id="graph0" class="graph" transform="scale(1 1) rotate(0) translate(4 227.97)">
<polygon fill="white" stroke="none" points="-4,4 -4,-227.97 286.41,-227.97 286.41,4 -4,4"/>
<!-- T -->
<g id="node1" class="node">
<title>T</title>
<ellipse fill="none" stroke="black" cx="126.09" cy="-205.97" rx="58.52" ry="18"/>
<text text-anchor="middle" x="126.09" y="-200.92" font-family="Times,serif" font-size="14.00">Temperature</text>
</g>
<!-- L -->
<g id="node2" class="node">
<title>L</title>
<ellipse fill="none" stroke="black" cx="51.09" cy="-122.97" rx="51.09" ry="28.99"/>
<text text-anchor="middle" x="51.09" y="-126.17" font-family="Times,serif" font-size="14.00">Electricity</text>
<text text-anchor="middle" x="51.09" y="-109.67" font-family="Times,serif" font-size="14.00">load</text>
</g>
<!-- T&#45;&gt;L -->
<g id="edge1" class="edge">
<title>T&#45;&gt;L</title>
<path fill="none" stroke="black" d="M110.55,-188.18C102.29,-179.26 91.83,-167.97 82,-157.35"/>
<polygon fill="black" stroke="black" points="84.69,-155.11 75.33,-150.15 79.56,-159.87 84.69,-155.11"/>
</g>
<!-- R -->
<g id="node3" class="node">
<title>R</title>
<ellipse fill="none" stroke="black" cx="201.09" cy="-122.97" rx="81.32" ry="28.99"/>
<text text-anchor="middle" x="201.09" y="-126.17" font-family="Times,serif" font-size="14.00">Renewable</text>
<text text-anchor="middle" x="201.09" y="-109.67" font-family="Times,serif" font-size="14.00">energy production</text>
</g>
<!-- T&#45;&gt;R -->
<g id="edge2" class="edge">
<title>T&#45;&gt;R</title>
<path fill="none" stroke="black" d="M141.63,-188.18C149.41,-179.79 159.13,-169.29 168.44,-159.23"/>
<polygon fill="black" stroke="black" points="170.87,-161.76 175.09,-152.05 165.73,-157.01 170.87,-161.76"/>
</g>
<!-- P -->
<g id="node4" class="node">
<title>P</title>
<ellipse fill="none" stroke="black" cx="126.09" cy="-28.99" rx="51.09" ry="28.99"/>
<text text-anchor="middle" x="126.09" y="-32.19" font-family="Times,serif" font-size="14.00">Electricity</text>
<text text-anchor="middle" x="126.09" y="-15.69" font-family="Times,serif" font-size="14.00">price</text>
</g>
<!-- L&#45;&gt;P -->
<g id="edge4" class="edge">
<title>L&#45;&gt;P</title>
<path fill="none" stroke="black" d="M71.98,-96.35C80.04,-86.47 89.38,-75.01 98.01,-64.43"/>
<polygon fill="black" stroke="black" points="100.49,-66.93 104.09,-56.97 95.06,-62.51 100.49,-66.93"/>
</g>
<!-- R&#45;&gt;P -->
<g id="edge3" class="edge">
<title>R&#45;&gt;P</title>
<path fill="none" stroke="black" d="M178.99,-94.87C171.17,-85.28 162.27,-74.37 154.03,-64.26"/>
<polygon fill="black" stroke="black" points="156.99,-62.35 147.96,-56.81 151.56,-66.77 156.99,-62.35"/>
</g>
</g>
</svg>