<?xml version="1.0" encoding="UTF-8" standalone="no"?>
<!DOCTYPE svg PUBLIC "-//W3C//DTD SVG 1.1//EN"
 "http://www.w3.org/Graphics/SVG/1.1/DTD/svg11.dtd">
<!-- Generated by graphviz version 10.0.1 (20240210.2158)
 -->
<!-- Pages: 1 -->
<svg width="768pt" height="273pt"
 viewBox="0.00 0.00 768.04 272.80" xmlns="http://www.w3.org/2000/svg" xmlns:xlink="http://www.w3.org/1999/xlink">
<g id="graph0" class="graph" transform="scale(1 1) rotate(0) translate(4 268.8)">
<polygon fill="white" stroke="none" points="-4,4 -4,-268.8 764.04,-268.8 764.04,4 -4,4"/>
<!-- S -->
<g id="node1" class="node">
<title>S</title>
<ellipse fill="none" stroke="gray" cx="184.33" cy="-235.81" rx="81.85" ry="28.99"/>
<text text-anchor="middle" x="184.33" y="-239.01" font-family="Times,serif" font-size="14.00">Daylight hours </text>
<text text-anchor="middle" x="184.33" y="-222.51" font-family="Times,serif" font-size="14.00">(proxy for season)</text>
</g>
<!-- WP -->
<g id="node2" class="node">
<title>WP</title>
<ellipse fill="none" stroke="green" stroke-width="2" cx="55.33" cy="-129.16" rx="55.33" ry="40.66"/>
<text text-anchor="middle" x="55.33" y="-140.61" font-family="Times,serif" font-size="14.00">Forecasted </text>
<text text-anchor="middle" x="55.33" y="-124.11" font-family="Times,serif" font-size="14.00">WP </text>
<text text-anchor="middle" x="55.33" y="-107.61" font-family="Times,serif" font-size="14.00">production</text>
</g>
<!-- S&#45;&gt;WP -->
<g id="edge2" class="edge">
<title>S&#45;&gt;WP</title>
<path fill="none" stroke="gray" d="M152.11,-208.67C136.61,-196.09 117.75,-180.79 100.81,-167.05"/>
<polygon fill="gray" stroke="gray" points="103.3,-164.57 93.33,-160.98 98.89,-170 103.3,-164.57"/>
</g>
<!-- SP -->
<g id="node3" class="node">
<title>SP</title>
<ellipse fill="none" stroke="green" stroke-width="2" cx="184.33" cy="-129.16" rx="55.33" ry="40.66"/>
<text text-anchor="middle" x="184.33" y="-140.61" font-family="Times,serif" font-size="14.00">Forecasted </text>
<text text-anchor="middle" x="184.33" y="-124.11" font-family="Times,serif" font-size="14.00">SP </text>
<text text-anchor="middle" x="184.33" y="-107.61" font-family="Times,serif" font-size="14.00">production</text>
</g>
<!-- S&#45;&gt;SP -->
<g id="edge3" class="edge">
<title>S&#45;&gt;SP</title>
<path fill="none" stroke="gray" d="M184.33,-206.49C184.33,-198.91 184.33,-190.48 184.33,-182.07"/>
<polygon fill="gray" stroke="gray" points="187.83,-182.19 184.33,-172.19 180.83,-182.19 187.83,-182.19"/>
</g>
<!-- L -->
<g id="node4" class="node">
<title>L</title>
<ellipse fill="none" stroke="gray" cx="319.33" cy="-129.16" rx="61.59" ry="18"/>
<text text-anchor="middle" x="319.33" y="-124.11" font-family="Times,serif" font-size="14.00">Load forecast</text>
</g>
<!-- S&#45;&gt;L -->
<g id="edge1" class="edge">
<title>S&#45;&gt;L</title>
<path fill="none" stroke="gray" d="M217.7,-208.94C239.74,-191.86 268.36,-169.67 289.61,-153.19"/>
<polygon fill="gray" stroke="gray" points="291.56,-156.11 297.32,-147.22 287.28,-150.58 291.56,-156.11"/>
</g>
<!-- P -->
<g id="node8" class="node">
<title>P</title>
<ellipse fill="none" stroke="green" stroke-width="2" cx="413.33" cy="-18" rx="93.32" ry="18"/>
<text text-anchor="middle" x="413.33" y="-12.95" font-family="Times,serif" font-size="14.00">Day&#45;ahead spot prices</text>
</g>
<!-- WP&#45;&gt;P -->
<g id="edge4" class="edge">
<title>WP&#45;&gt;P</title>
<path fill="none" stroke="green" stroke-width="2" d="M96.28,-100.57C104.05,-96.09 112.27,-91.84 120.33,-88.5 187.15,-60.81 267.32,-42.75 326.9,-32"/>
<polygon fill="green" stroke="green" stroke-width="2" points="327.44,-35.46 336.68,-30.27 326.23,-28.56 327.44,-35.46"/>
<text text-anchor="middle" x="233.21" y="-57.2" font-family="Times,serif" font-size="14.00">&#45;0.3</text>
</g>
<!-- SP&#45;&gt;P -->
<g id="edge5" class="edge">
<title>SP&#45;&gt;P</title>
<path fill="none" stroke="green" stroke-width="2" d="M225.79,-101.17C233.18,-96.74 240.9,-92.34 248.33,-88.5 284.21,-69.97 326.16,-52.35 358.78,-39.49"/>
<polygon fill="green" stroke="green" stroke-width="2" points="359.94,-42.8 367.98,-35.9 357.39,-36.28 359.94,-42.8"/>
<text text-anchor="middle" x="331.21" y="-57.2" font-family="Times,serif" font-size="14.00">&#45;0.3</text>
</g>
<!-- L&#45;&gt;P -->
<g id="edge6" class="edge">
<title>L&#45;&gt;P</title>
<path fill="none" stroke="gray" d="M333.61,-111.58C348.82,-93.92 373.11,-65.71 390.88,-45.07"/>
<polygon fill="gray" stroke="gray" points="393.44,-47.47 397.31,-37.61 388.13,-42.9 393.44,-47.47"/>
</g>
<!-- G -->
<g id="node5" class="node">
<title>G</title>
<ellipse fill="none" stroke="gray" cx="445.33" cy="-129.16" rx="46.23" ry="18"/>
<text text-anchor="middle" x="445.33" y="-124.11" font-family="Times,serif" font-size="14.00">Gas price</text>
</g>
<!-- G&#45;&gt;P -->
<g id="edge7" class="edge">
<title>G&#45;&gt;P</title>
<path fill="none" stroke="gray" d="M440.33,-111.1C435.36,-94.16 427.66,-67.87 421.75,-47.71"/>
<polygon fill="gray" stroke="gray" points="425.11,-46.72 418.93,-38.11 418.39,-48.69 425.11,-46.72"/>
</g>
<!-- C -->
<g id="node6" class="node">
<title>C</title>
<ellipse fill="none" stroke="gray" cx="559.33" cy="-129.16" rx="49.3" ry="18"/>
<text text-anchor="middle" x="559.33" y="-124.11" font-family="Times,serif" font-size="14.00">Coal price</text>
</g>
<!-- C&#45;&gt;P -->
<g id="edge9" class="edge">
<title>C&#45;&gt;P</title>
<path fill="none" stroke="gray" d="M538.41,-112.52C514.04,-94.3 473.52,-64 445.22,-42.84"/>
<polygon fill="gray" stroke="gray" points="447.45,-40.14 437.35,-36.95 443.26,-45.75 447.45,-40.14"/>
</g>
<!-- CO2 -->
<g id="node7" class="node">
<title>CO2</title>
<ellipse fill="none" stroke="gray" cx="693.33" cy="-129.16" rx="66.71" ry="18"/>
<text text-anchor="middle" x="693.33" y="-124.11" font-family="Times,serif" font-size="14.00">Carbon pricing</text>
</g>
<!-- CO2&#45;&gt;P -->
<g id="edge8" class="edge">
<title>CO2&#45;&gt;P</title>
<path fill="none" stroke="gray" d="M665.67,-112.43C651.47,-104.68 633.75,-95.53 617.33,-88.5 570.55,-68.46 515.88,-50.1 474.92,-37.28"/>
<polygon fill="gray" stroke="gray" points="476.05,-33.97 465.46,-34.35 473.98,-40.65 476.05,-33.97"/>
</g>
</g>
</svg>