<?xml version="1.0" encoding="UTF-8" standalone="no"?>
<!DOCTYPE svg PUBLIC "-//W3C//DTD SVG 1.1//EN"
 "http://www.w3.org/Graphics/SVG/1.1/DTD/svg11.dtd">
<!-- Generated by graphviz version 10.0.1 (20240210.2158)
 -->
<!-- Pages: 1 -->
<svg width="192pt" height="176pt"
 viewBox="0.00 0.00 192.26 176.47" xmlns="http://www.w3.org/2000/svg" xmlns:xlink="http://www.w3.org/1999/xlink">
<g id="graph0" class="graph" transform="scale(1 1) rotate(0) translate(4 172.47)">
<polygon fill="white" stroke="none" points="-4,4 -4,-172.47 188.26,-172.47 188.26,4 -4,4"/>
<!-- forecast 
errors -->
<g id="node1" class="node">
<title>forecast 
errors</title>
<ellipse fill="none" stroke="black" cx="44.19" cy="-139.47" rx="44.19" ry="28.99"/>
<text text-anchor="middle" x="44.19" y="-142.67" font-family="Times,serif" font-size="14.00">forecast </text>
<text text-anchor="middle" x="44.19" y="-126.17" font-family="Times,serif" font-size="14.00">errors</text>
</g>
<!-- balancing 
costs -->
<g id="node3" class="node">
<title>balancing 
costs</title>
<ellipse fill="none" stroke="black" cx="94.19" cy="-28.99" rx="51.09" ry="28.99"/>
<text text-anchor="middle" x="94.19" y="-32.19" font-family="Times,serif" font-size="14.00">balancing </text>
<text text-anchor="middle" x="94.19" y="-15.69" font-family="Times,serif" font-size="14.00">costs</text>
</g>
<!-- forecast 
errors&#45;&gt;balancing 
costs -->
<g id="edge1" class="edge">
<title>forecast 
errors&#45;&gt;balancing 
costs</title>
<path fill="none" stroke="black" d="M56.68,-111.38C62.78,-98.15 70.22,-82.01 76.86,-67.61"/>
<polygon fill="black" stroke="black" points="79.88,-69.42 80.88,-58.87 73.52,-66.49 79.88,-69.42"/>
<text text-anchor="middle" x="84.19" y="-79.18" font-family="Times,serif" font-size="14.00">2.00</text>
</g>
<!-- outages -->
<g id="node2" class="node">
<title>outages</title>
<ellipse fill="none" stroke="black" cx="145.19" cy="-139.47" rx="39.07" ry="18"/>
<text text-anchor="middle" x="145.19" y="-134.42" font-family="Times,serif" font-size="14.00">outages</text>
</g>
<!-- outages&#45;&gt;balancing 
costs -->
<g id="edge2" class="edge">
<title>outages&#45;&gt;balancing 
costs</title>
<path fill="none" stroke="black" d="M137.23,-121.52C130.48,-107.18 120.56,-86.08 111.95,-67.76"/>
<polygon fill="black" stroke="black" points="115.13,-66.3 107.71,-58.74 108.79,-69.27 115.13,-66.3"/>
<text text-anchor="middle" x="134.19" y="-79.18" font-family="Times,serif" font-size="14.00">1.50</text>
</g>
</g>
</svg>