<?xml version="1.0" encoding="UTF-8" standalone="no"?>
<!DOCTYPE svg PUBLIC "-//W3C//DTD SVG 1.1//EN"
 "http://www.w3.org/Graphics/SVG/1.1/DTD/svg11.dtd">
<!-- Generated by graphviz version 10.0.1 (20240210.2158)
 -->
<!-- Pages: 1 -->
<svg width="308pt" height="133pt"
 viewBox="0.00 0.00 308.09 132.50" xmlns="http://www.w3.org/2000/svg" xmlns:xlink="http://www.w3.org/1999/xlink">
<g id="graph0" class="graph" transform="scale(1 1) rotate(0) translate(4 128.5)">
<polygon fill="white" stroke="none" points="-4,4 -4,-128.5 304.09,-128.5 304.09,4 -4,4"/>
<!-- wind energy -->
<g id="node1" class="node">
<title>wind energy</title>
<ellipse fill="none" stroke="black" cx="152.36" cy="-106.5" rx="56.98" ry="18"/>
<text text-anchor="middle" x="152.36" y="-101.45" font-family="Times,serif" font-size="14.00">wind energy</text>
</g>
<!-- day&#45;ahead prices -->
<g id="node2" class="node">
<title>day&#45;ahead prices</title>
<ellipse fill="none" stroke="black" cx="73.36" cy="-18" rx="73.36" ry="18"/>
<text text-anchor="middle" x="73.36" y="-12.95" font-family="Times,serif" font-size="14.00">day&#45;ahead prices</text>
</g>
<!-- wind energy&#45;&gt;day&#45;ahead prices -->
<g id="edge1" class="edge">
<title>wind energy&#45;&gt;day&#45;ahead prices</title>
<path fill="none" stroke="black" d="M137.13,-88.82C125.62,-76.22 109.62,-58.7 96.52,-44.36"/>
<polygon fill="black" stroke="black" points="99.16,-42.06 89.83,-37.04 93.99,-46.78 99.16,-42.06"/>
<text text-anchor="middle" x="132.36" y="-57.2" font-family="Times,serif" font-size="14.00">1.00</text>
</g>
<!-- balancing costs -->
<g id="node3" class="node">
<title>balancing costs</title>
<ellipse fill="none" stroke="black" cx="232.36" cy="-18" rx="67.73" ry="18"/>
<text text-anchor="middle" x="232.36" y="-12.95" font-family="Times,serif" font-size="14.00">balancing costs</text>
</g>
<!-- wind energy&#45;&gt;balancing costs -->
<g id="edge2" class="edge">
<title>wind energy&#45;&gt;balancing costs</title>
<path fill="none" stroke="black" d="M167.78,-88.82C179.44,-76.22 195.64,-58.7 208.9,-44.36"/>
<polygon fill="black" stroke="black" points="211.46,-46.75 215.68,-37.03 206.32,-42 211.46,-46.75"/>
<text text-anchor="middle" x="211.36" y="-57.2" font-family="Times,serif" font-size="14.00">1.00</text>
</g>
</g>
</svg>