<?xml version="1.0" encoding="UTF-8" standalone="no"?>
<!DOCTYPE svg PUBLIC "-//W3C//DTD SVG 1.1//EN"
 "http://www.w3.org/Graphics/SVG/1.1/DTD/svg11.dtd">
<!-- Generated by graphviz version 10.0.1 (20240210.2158)
 -->
<!-- Pages: 1 -->
<svg width="286pt" height="310pt"
 viewBox="0.00 0.00 286.34 309.50" xmlns="http://www.w3.org/2000/svg" xmlns:xlink="http://www.w3.org/1999/xlink">
<g id="graph0" class="graph" transform="scale(1 1) rotate(0) translate(4 305.5)">
<polygon fill="white" stroke="none" points="-4,4 -4,-305.5 282.34,-305.5 282.34,4 -4,4"/>
<!-- x0(t) -->
<g id="node1" class="node">
<title>x0(t)</title>
<ellipse fill="none" stroke="black" cx="28.83" cy="-195" rx="28.83" ry="18"/>
<text text-anchor="middle" x="28.83" y="-189.95" font-family="Times,serif" font-size="14.00">x0(t)</text>
</g>
<!-- x1(t) -->
<g id="node2" class="node">
<title>x1(t)</title>
<ellipse fill="none" stroke="black" cx="111.83" cy="-106.5" rx="28.83" ry="18"/>
<text text-anchor="middle" x="111.83" y="-101.45" font-family="Times,serif" font-size="14.00">x1(t)</text>
</g>
<!-- x0(t)&#45;&gt;x1(t) -->
<g id="edge2" class="edge">
<title>x0(t)&#45;&gt;x1(t)</title>
<path fill="none" stroke="black" d="M43.29,-178.93C56.14,-165.54 75.13,-145.75 89.86,-130.4"/>
<polygon fill="black" stroke="black" points="92.09,-133.13 96.49,-123.49 87.04,-128.28 92.09,-133.13"/>
<text text-anchor="middle" x="89.83" y="-145.7" font-family="Times,serif" font-size="14.00">2.03</text>
</g>
<!-- x2(t) -->
<g id="node3" class="node">
<title>x2(t)</title>
<ellipse fill="none" stroke="black" cx="156.83" cy="-18" rx="28.83" ry="18"/>
<text text-anchor="middle" x="156.83" y="-12.95" font-family="Times,serif" font-size="14.00">x2(t)</text>
</g>
<!-- x0(t)&#45;&gt;x2(t) -->
<g id="edge4" class="edge">
<title>x0(t)&#45;&gt;x2(t)</title>
<path fill="none" stroke="black" d="M27.35,-176.74C26.31,-154.48 27.54,-115.41 45.33,-88.5 63.39,-61.2 96.24,-42.67 121.62,-31.65"/>
<polygon fill="black" stroke="black" points="122.66,-35.01 130.58,-27.96 120,-28.53 122.66,-35.01"/>
<text text-anchor="middle" x="60.08" y="-101.45" font-family="Times,serif" font-size="14.00">&#45;1.22</text>
</g>
<!-- x1(t)&#45;&gt;x2(t) -->
<g id="edge5" class="edge">
<title>x1(t)&#45;&gt;x2(t)</title>
<path fill="none" stroke="black" d="M120.3,-89.23C126.67,-76.98 135.54,-59.93 142.94,-45.7"/>
<polygon fill="black" stroke="black" points="146.04,-47.32 147.55,-36.83 139.83,-44.09 146.04,-47.32"/>
<text text-anchor="middle" x="149.83" y="-57.2" font-family="Times,serif" font-size="14.00">0.65</text>
</g>
<!-- x0(t&#45;1) -->
<g id="node4" class="node">
<title>x0(t&#45;1)</title>
<ellipse fill="none" stroke="black" cx="102.83" cy="-283.5" rx="36.51" ry="18"/>
<text text-anchor="middle" x="102.83" y="-278.45" font-family="Times,serif" font-size="14.00">x0(t&#45;1)</text>
</g>
<!-- x0(t&#45;1)&#45;&gt;x0(t) -->
<g id="edge1" class="edge">
<title>x0(t&#45;1)&#45;&gt;x0(t)</title>
<path fill="none" stroke="black" d="M89.26,-266.63C78.13,-253.63 62.21,-235.01 49.5,-220.15"/>
<polygon fill="black" stroke="black" points="52.21,-217.95 43.05,-212.62 46.89,-222.5 52.21,-217.95"/>
<text text-anchor="middle" x="84.83" y="-234.2" font-family="Times,serif" font-size="14.00">0.55</text>
</g>
<!-- x0(t&#45;1)&#45;&gt;x2(t) -->
<g id="edge6" class="edge">
<title>x0(t&#45;1)&#45;&gt;x2(t)</title>
<path fill="none" stroke="black" d="M119.74,-267.24C132.82,-254.26 149.97,-234.37 157.83,-213 178.32,-157.25 170.11,-86.26 163.01,-47.47"/>
<polygon fill="black" stroke="black" points="166.47,-46.93 161.12,-37.78 159.6,-48.27 166.47,-46.93"/>
<text text-anchor="middle" x="181.83" y="-145.7" font-family="Times,serif" font-size="14.00">0.27</text>
</g>
<!-- x1(t&#45;1) -->
<g id="node5" class="node">
<title>x1(t&#45;1)</title>
<ellipse fill="none" stroke="black" cx="111.83" cy="-195" rx="36.51" ry="18"/>
<text text-anchor="middle" x="111.83" y="-189.95" font-family="Times,serif" font-size="14.00">x1(t&#45;1)</text>
</g>
<!-- x1(t&#45;1)&#45;&gt;x1(t) -->
<g id="edge3" class="edge">
<title>x1(t&#45;1)&#45;&gt;x1(t)</title>
<path fill="none" stroke="black" d="M111.83,-176.91C111.83,-165.26 111.83,-149.55 111.83,-136.02"/>
<polygon fill="black" stroke="black" points="115.33,-136.36 111.83,-126.36 108.33,-136.36 115.33,-136.36"/>
<text text-anchor="middle" x="126.08" y="-145.7" font-family="Times,serif" font-size="14.00">&#45;0.54</text>
</g>
<!-- x2(t&#45;1) -->
<g id="node6" class="node">
<title>x2(t&#45;1)</title>
<ellipse fill="none" stroke="black" cx="241.83" cy="-106.5" rx="36.51" ry="18"/>
<text text-anchor="middle" x="241.83" y="-101.45" font-family="Times,serif" font-size="14.00">x2(t&#45;1)</text>
</g>
<!-- x2(t&#45;1)&#45;&gt;x2(t) -->
<g id="edge7" class="edge">
<title>x2(t&#45;1)&#45;&gt;x2(t)</title>
<path fill="none" stroke="black" d="M226.64,-90.04C213.42,-76.59 194.1,-56.92 179.13,-41.69"/>
<polygon fill="black" stroke="black" points="181.9,-39.51 172.39,-34.83 176.9,-44.42 181.9,-39.51"/>
<text text-anchor="middle" x="218.83" y="-57.2" font-family="Times,serif" font-size="14.00">0.23</text>
</g>
</g>
</svg>